SplineFontDB: 3.2
FontName: VitrailnoirClassic
FullName: VitrailnoirClassic
FamilyName: VitrailnoirClassic
Weight: Regular
Copyright: Open source. 2019, Aimery Capon
UComments: "2019-11-8: Created with FontForge (http://fontforge.org)"
FontLog: "This font was created to use for the graphic designs on the packaging of my company.+AAoA-It was inspired by the fonts Candlebright and Folkart.+AAoACgAA-This is my first attempt at making a font.+AAoA-All glyphs has been made by Aimery Capon.+AAoA-github : Dolendin.+AAoA"
Version: 1.0
ItalicAngle: 0
UnderlinePosition: -49
UnderlineWidth: 49
Ascent: 1000
Descent: 500
InvalidEm: 0
LayerCount: 2
Layer: 0 0 "Arri+AOgA-re" 1
Layer: 1 0 "Avant" 0
HasVMetrics: 1
XUID: [1021 120 -1828802672 16062]
FSType: 0
OS2Version: 0
OS2_WeightWidthSlopeOnly: 0
OS2_UseTypoMetrics: 1
CreationTime: 1573227005
ModificationTime: 1573404589
PfmFamily: 17
TTFWeight: 400
TTFWidth: 5
LineGap: 135
VLineGap: 0
OS2TypoAscent: 1000
OS2TypoAOffset: 0
OS2TypoDescent: -500
OS2TypoDOffset: 0
OS2TypoLinegap: 135
OS2WinAscent: 2050
OS2WinAOffset: 0
OS2WinDescent: 1250
OS2WinDOffset: 0
HheadAscent: 2003
HheadAOffset: 0
HheadDescent: -1037
HheadDOffset: 0
OS2CapHeight: 1500
OS2XHeight: 1040
OS2Vendor: 'PfEd'
MarkAttachClasses: 1
DEI: 91125
LangName: 1033
DesignSize: 30
Encoding: win
UnicodeInterp: none
NameList: AGL For New Fonts
DisplaySize: -48
AntiAlias: 1
FitToEm: 0
WidthSeparation: 50
WinInfo: 0 36 14
BeginPrivate: 0
EndPrivate
Grid
-1500 905.640625 m 0
 3000 905.640625 l 1024
EndSplineSet
TeXData: 1 3145728 0 216947 131072 87381 515375 -383080 87381 783286 444596 497025 792723 393216 433062 380633 303038 157286 324010 404750 52429 2506097 1059062 262144
BeginChars: 256 224

StartChar: A
Encoding: 65 65 0
Width: 1778
VWidth: -115
Flags: HW
HStem: -1147 56<971 1454> -872 39<1235 1379> -458 49<1317 1570> 1232 149<750 967>
VStem: 31 298<-384 271> 972 211<-793 -541> 1401 114<-816 -685> 1759 185<-938 -602>
LayerCount: 2
Fore
SplineSet
1078 791 m 0
 1125 782 1043 1150 969 1216 c 1
 801 1180 621 912 493 706 c 1
 734 782 837 838 1078 791 c 0
1287 -756 m 0
 1158.4726969 -756 990 -670.088137576 990 -553 c 0
 990 -479 1046 -416 1157 -363 c 0
 1252 -317 1342 -295 1424 -295 c 0
 1544 -295 1657 -325 1768 -387 c 0
 1897 -459 1963 -550 1963 -659 c 0
 1963 -776 1884 -870 1728 -942 c 0
 1601 -1001 1471 -1031 1339 -1031 c 2
 1225 -1031 l 2
 979 -1031 755 -964 550 -828 c 0
 340 -688 197 -505 120 -276 c 0
 102.177912965 -222.533738896 50 -85.2484704318 50 -2 c 0
 50 258 138 513 314 763 c 0
 490 1013 723 1170 960 1246 c 1
 949 1262 937 1288 914 1306 c 1
 884 1336 855 1348 812 1348 c 0
 713.587223516 1348 656.500010339 1313.00000636 572 1261 c 1
 583.803945539 1278.70591831 600.530641698 1293.5306417 618 1311 c 0
 693.88397018 1383.1823131 805.561635619 1467.69573061 911 1490 c 0
 931 1494 947 1497 965 1497 c 0
 1006 1497 1044 1485 1077 1461 c 0
 1137 1419 1185 1347 1220 1248 c 0
 1232 1213 1270 1054 1333 773 c 0
 1396 492 1450 317 1496 252 c 0
 1566 153 1645 92 1733 67 c 1
 1730 67 1686 49 1600 14 c 0
 1576 5 1553 0 1530 0 c 0
 1466 0 1379 22 1318 95 c 1
 1264 178 1218 281 1155 553 c 0
 1144 604 1138 636 1132 646 c 0
 1111 684 1095 729 978 729 c 0
 812.507459201 729 738.665835476 720.785536191 584 647 c 0
 468 591 465 525 431 463 c 0
 417 434 399 360 378 237 c 0
 358 120 348 40 348 -1 c 0
 348 -249 368 -466 549 -667 c 0
 735 -873 951 -976 1196 -976 c 2
 1253 -976 l 2
 1378 -976 1491 -953 1589 -907 c 0
 1715 -848 1777 -766 1777 -656 c 0
 1777 -461.063446118 1643.03840477 -343 1447 -343 c 0
 1331.77928411 -343 1201 -427.223907777 1201 -537 c 0
 1201 -609.449921824 1274.60626641 -717 1346 -717 c 0
 1396 -717 1420 -697 1420 -656 c 0
 1420 -639 1396 -614 1346 -583 c 1
 1383 -547 1414 -530 1440 -530 c 0
 1476.81859527 -530 1533 -585.0957721 1533 -622 c 0
 1533 -698.457073389 1375.39892818 -756 1287 -756 c 0
EndSplineSet
EndChar

StartChar: a
Encoding: 97 97 1
Width: 1068
VWidth: 1883
Flags: HW
HStem: -274 180<211.246 445.246> -260 46G<633.246 645.246>
VStem: 24.2456 267<-72 547> 515.246 261<-59 584>
LayerCount: 2
Fore
SplineSet
123.245117188 828 m 4xb0
 231.275871459 904.021641895 341.959287657 972.399451279 459.245117188 1038 c 5
 559.340560981 1098.66390533 669.875860239 1034.82813386 735.245117188 992 c 4
 773.245117188 965 794.245117188 926 797.245117188 876 c 4
 803.174691054 696.136259397 803.22882969 513.465874733 805.245117188 332 c 4
 805.245117188 263.936236114 820.776193811 171.456848724 895.245117188 192 c 4
 920.082762988 197.322352672 997.263727036 253.467432765 1015.24511719 222 c 4
 1023.24511719 210 1017.24511719 196 997.245117188 182 c 4
 915.746480982 128.330166402 831.203195287 76.9790390498 741.245117188 32 c 4
 731.378847803 27.7715988353 677.877771899 14 665.245117188 14 c 4x70
 601.942550023 14 558.495629975 84.1419780792 535.245117188 124 c 5
 468.407355546 83.3161450876 411.935589201 46.1339270051 334.245117188 17 c 4
 249.829079866 -14.6560139956 166.178810877 2.72560560936 115.245117188 48 c 5
 45.5751764079 117.66994078 48.3955913703 289.13508953 50.2451171875 426 c 4
 51.6845116956 532.515193597 50.679926536 657.174046743 69.2451171875 750 c 4
 75.2451171875 780 93.2451171875 806 123.245117188 828 c 4xb0
317.245117188 368 m 4
 317.245117188 250.985702704 351.988974702 180 471.245117188 180 c 4xb0
 507.454333902 180 529.402999988 195.157656017 531.245117188 232 c 4
 537.212897453 387.162286907 541.245117188 528.624162646 541.245117188 688 c 4
 541.245117188 768.558132997 527.319703709 827.398863793 477.245117188 858 c 4
 453.813079989 872.319578288 393.392595192 917.838724338 359.245117188 878 c 4
 319.024690592 827.287288206 315.245117188 740.456687956 315.245117188 656 c 4
 313.245968163 558.041697818 315.266962462 464.929581547 317.245117188 368 c 4
EndSplineSet
EndChar

StartChar: e
Encoding: 101 101 2
Width: 789
VWidth: 1882
Flags: HW
HStem: -264 46G<121 149>
VStem: 18 268<-92 185 252 592>
LayerCount: 2
Fore
SplineSet
50 216 m 4
 50 405.825666198 47.1974055788 595.378596025 68 767 c 4
 76.2346609869 834.935953142 154.65914861 881.933538014 204 913 c 4
 277.983365282 959.582118881 365.743890272 994.523544586 454 1028 c 4
 484 1039 509 1046 532 1046 c 4
 606.287823302 1046 649.393685535 1005.47508595 682 962 c 4
 720.047737125 918.098764856 752.890803412 865.193481451 736 792 c 4
 722.489752898 733.455595893 680.511348039 682.185754475 642 642 c 4
 565.830106875 559.81669426 455.314375364 480.657187682 356 431 c 4
 344 425 331 419 320 412 c 5
 318 314 l 5
 318 245.208540738 329.950621626 158.679438957 404 174 c 4
 429.117235275 178.709481614 510.149630079 229.738147362 526 202 c 4
 550.010679293 165.983981061 404.234373034 99.9058937692 378 85 c 4
 334 60 290 36 248 14 c 4
 226.294137357 1.33824679166 207.019168126 0 178 0 c 4
 113.16084516 4.63136820283 58.2333558308 51.7330183692 53 125 c 4
 51 153 50 183 50 216 c 4
320 516 m 5
 405.464007969 568.22800487 535.561366295 643.652720893 475 789 c 4
 454.416308035 838.400860717 407.002065175 886.167010863 334 874 c 5
 320 516 l 5
EndSplineSet
EndChar

StartChar: at
Encoding: 64 64 3
Width: 1886
VWidth: 1843
Flags: HW
HStem: -610 156<744 1315> -168 180<799 1033> 1040 168<849 1331>
VStem: 63 274<-73 476> 607 266<36 547> 1099 267<26 584> 1663 184<290 690>
LayerCount: 2
Fore
SplineSet
1216 19 m 4
 1150.43950528 19 1110.40303139 85.1662318994 1086 127 c 5
 1019.16223836 86.3161450876 962.690472014 49.1339270051 885 20 c 4
 802.248764288 -11.0317133921 711.148021361 7.31286990111 662 51 c 4
 600.069879732 112.930120268 596 253.070035396 596 377 c 4
 596 462.339998567 603.635826682 566.814960095 617 647 c 4
 622 677 640 701 670 723 c 4
 778.286624713 799.201698872 887.820174663 866.899419727 1006 933 c 5
 1105.08902476 993.053954399 1214.99240934 932.901524912 1282 889 c 4
 1324 860 1347 822 1348 773 c 4
 1351.3470575 619.035354771 1356 491.82560209 1356 335 c 4
 1356 271.816348365 1371.26541451 168.30361885 1446 201 c 4
 1509.84665263 225.714833278 1570.89149059 295.565511463 1606 351 c 4
 1636.74172448 402.87666006 1652 471.547106344 1652 553 c 4
 1652 764.247621801 1573.46839662 918.163574003 1474 1025 c 4
 1370.32074405 1135.59120635 1218.96023521 1209 1022 1209 c 4
 556.193905551 1209 326 885.365485949 326 419 c 4
 326 63.1540992097 523.302444561 -153.459020794 798 -241 c 4
 889 -270 986 -283 1084 -283 c 4
 1340.49345573 -283 1520.38194788 -186.203826042 1660 -73 c 4
 1682.44233469 -57.5708949016 1708.91812229 -36.7624181422 1728 -63 c 4
 1751.62388035 -91.3486564159 1729.0322308 -111.967769202 1710 -131 c 5
 1643.52633934 -179.344480479 1579.58802058 -227.251765198 1508 -271 c 4
 1342.47693483 -373.385401138 1155.8346637 -441 916 -441 c 4
 623.953450986 -441 407.22448008 -348.487297639 254 -199 c 4
 131.408709898 -78.111366705 50 83.5708441113 50 303 c 4
 50 588.578293271 186.560354039 831.560354039 340 985 c 4
 495.332067999 1137.40127426 693.065180672 1269.49909554 927 1340 c 4
 1097.99560503 1391.53292206 1284.50119447 1388.70282416 1443 1326 c 4
 1603.50932671 1262.50180482 1728.29898042 1143.44179826 1793 984 c 4
 1821 915 1835 838 1836 755 c 4
 1836 556.062393174 1755.58422679 414.344293493 1668 301 c 4
 1603.28756974 217.254502014 1514.69791277 160.305801066 1424 102 c 4
 1372.17489602 68.6838617248 1321.97160017 39.6603555937 1256 25 c 4
 1238 21 1224 19 1216 19 c 4
864 371 m 4
 867.467055841 256.587157257 901.978301679 183 1022 183 c 4
 1058.20921671 183 1080.1578828 198.157656017 1082 235 c 4
 1084.46640018 328.723206924 1088 408.660550881 1088 501 c 6
 1088 583 l 6
 1088 665.121071777 1074.89456776 721.897764149 1024 753 c 4
 1003.1109852 765.765509043 939.160545595 813.687303194 906 775 c 4
 867.268875707 725.705841809 864 638.486707356 864 551 c 4
 864 514.965230311 862 489.329138299 862 457 c 4
 862 427.169611284 864 403.847262159 864 371 c 4
EndSplineSet
EndChar

StartChar: u
Encoding: 117 117 4
Width: 1192
VWidth: 1879
Flags: HW
HStem: -267 170<445.556 587.556>
VStem: 159.556 266<-84 544> 669.556 266<-64 588>
LayerCount: 2
Fore
SplineSet
365.555664062 0 m 4
 227.990289382 0 153.555664062 85.9696048548 153.555664062 218 c 6
 153.555664062 678 l 6
 153.555664062 786.916365322 124.741978299 822.69744494 69.5556640625 870 c 4
 10.4715044049 917.267327726 109.258685621 972.623802653 141.555664062 998 c 4
 164.317680956 1015.88444185 216.349366991 1056.07539357 249.555664062 1054 c 4
 308.038192225 1050.34484199 370.786447203 945.307660624 391.555664062 898 c 4
 408.449165291 859.144947173 421.555664062 785.652424358 421.555664062 732 c 4
 420.555664062 662 419.555664062 594 419.555664062 526 c 6
 419.555664062 320 l 6
 419.555664062 232.404270682 463.908839644 164.147073474 557.555664062 170 c 4
 600.628751918 171.87274295 631.125096294 175.838537087 663.555664062 188 c 5
 663.555664062 352 663.555664063 516 663.555664062 680 c 4
 663.555664062 786.403854341 625.215173202 829.297929503 569.555664062 878 c 4
 534.056261339 913.499402723 574.014788012 942.670397292 607.555664062 970 c 5
 651.555664062 1003 l 6
 675.39601232 1020.88026119 725.084576167 1060.46718681 754.555664062 1057 c 4
 809.57944697 1050.52661378 875.737408541 949.636511042 899.555664062 902 c 4
 913.057775933 874.99577626 925.555664062 829.156998695 925.555664062 788 c 4
 927.510659262 635.510374411 929.555664062 474.467532603 929.555664062 320 c 4
 929.555664062 251.936236114 945.086740686 159.456848724 1019.55566406 180 c 4
 1042.65363687 184.949565603 1123.38842264 238.292672497 1139.55566406 210 c 4
 1147.55566406 198 1141.55566406 184 1121.55566406 170 c 4
 1040.96689316 116.929345991 951.55247598 65.0934922405 865.555664062 18 c 4
 843.555664062 7 822.555664062 0 799.555664062 0 c 4
 750.323309553 3.51659675069 692.844127307 35.6089681051 678.555664062 88 c 4
 675.555664062 99 670.555664062 112 667.555664062 124 c 5
 608.650427113 83.5026495971 535.690065261 40.9143229671 461.555664062 17 c 4
 430.555664062 7 398.555664062 0 365.555664062 0 c 4
EndSplineSet
EndChar

StartChar: t
Encoding: 116 116 5
Width: 770
VWidth: 1774
Flags: HW
TeX: 0 0
ItalicCorrection: 690
HStem: -371 239<423 677> 391 215<392 586>
VStem: 159 231<-86 403 606 1002>
LayerCount: 2
Fore
SplineSet
683 1026 m 0
 683 872.035020878 548.713401408 786.853255467 377 762 c 1
 377 420 l 2
 377 343 361 240 411 208 c 4
 467 173 603 239 664 239 c 0
 700 239 728 237 718 229 c 0
 619 141 529 4 409 0 c 0
 372 -1 342 8 269 65 c 0
 187 128 146 205 146 254 c 2
 146 779 l 1
 120.308647874 782.211419016 98.800965974 764.800965974 86 752 c 0
 82 748 77 746 75 746 c 1
 75 748 76 750 77 751 c 1
 76 752 67 750 50 746 c 1
 50 818 l 1
 71 868 104 915 145 965 c 0
 157 979 162 992 162 1000 c 2
 162 1183 l 2
 162 1289 170 1354 187 1376 c 0
 199 1392 241 1422 362 1480 c 1
 377 1472 l 1
 378 977 l 1
 461 992 l 2
 505 1000 577 1018 594 1031 c 2
 650 1076 l 1
 660.213132191 1082.80875479 683 1041.82614115 683 1026 c 0
EndSplineSet
EndChar

StartChar: n
Encoding: 110 110 6
Width: 1218
VWidth: 1878
Flags: HW
HStem: -265 42G<285.609 318.609 820.609 836.609>
VStem: 172.609 266<-65 468> 701.609 266<-100 557>
LayerCount: 2
Fore
SplineSet
937.609375 814 m 4
 979.183291215 668.491293247 966.594295666 480.435450206 955.609375 312 c 5
 955.609375 245.872685452 965.916445651 148.576767663 1043.609375 168 c 4
 1069.31503659 173.508356054 1147.0106253 226.547811979 1165.609375 194 c 4
 1172.609375 180 1165.609375 166 1145.609375 154 c 4
 1062.83239156 101.507278792 975.052801937 55.7338128831 883.609375 12 c 4
 863.904636348 -0.539379142304 845.826747758 -2 817.609375 -2 c 4
 707.796916186 3.49062294068 685.996864485 96.7871530083 689.609375 216 c 4
 694.927517477 370.22613184 700.117050651 469.062487882 697.609375 612 c 4
 695.175858385 733.675830774 667.320681604 797.774479495 581.609375 852 c 5
 425.609375 732 l 5
 425.609375 318 l 6
 425.609375 249.936236114 441.140451624 157.456848724 515.609375 178 c 4
 538.707347812 182.949565603 619.442133573 236.292672497 635.609375 208 c 4
 643.609375 196 637.609375 182 617.609375 168 c 4
 536.742241752 114.746034203 447.891574144 65.2497757215 361.609375 18 c 4
 339.609375 7 318.609375 0 295.609375 0 c 4
 227.033483505 4.67562896559 171.412158233 52.1740231574 163.609375 125 c 4
 160.609375 153 159.609375 183 159.609375 216 c 6
 159.609375 686 l 6
 159.609375 789.212119217 121.727983847 828.646217259 67.609375 876 c 5
 5.96523399147 914.93314169 119.111401722 979.126520042 145.609375 999 c 4
 184.060046215 1027.83800341 238.842030275 1089.76734473 295.609375 1033 c 4
 303.609375 1025 313.609375 1018 321.609375 1010 c 4
 372.258138498 959.351236502 397.167287955 904.954319166 417.609375 830 c 5
 683.609375 1030 l 6
 722.630779416 1058.75261378 761.561134393 1065.04824061 796.609375 1030 c 4
 861.618580124 964.990794876 914.551625252 894.702124116 937.609375 814 c 4
EndSplineSet
EndChar

StartChar: m
Encoding: 109 109 7
Width: 1717
VWidth: 1878
Flags: HW
HStem: -265 42G<271.421 304.421 785.421 818.421 1310.42 1325.42>
VStem: 158.421 266<-65 468> 677.421 262<-87 477> 1199.42 268<-100 558>
LayerCount: 2
Fore
SplineSet
926.420898438 744 m 5
 932.22188128 699.525798211 934.420898438 650.848146545 934.420898438 602 c 6
 934.420898438 318 l 6
 934.420898438 254.889231915 945.726838766 159.326485082 1020.42089844 178 c 4
 1043.30052372 182.902776847 1124.72193892 235.473179151 1140.42089844 208 c 4
 1148.42089844 196 1144.42089844 182 1124.42089844 168 c 4
 1043.10453875 114.450202158 956.870439261 65.3414152127 870.420898438 18 c 4
 848.420898438 7 827.420898438 0 804.420898438 0 c 4
 737.927960296 4.53360941871 679.119722245 49.4329334035 676.420898438 125 c 4
 675.420898438 153 674.420898438 183 674.420898438 216 c 6
 674.420898438 596 l 6
 674.420898438 682.574828828 670.53531849 748.678924538 635.420898438 800 c 4
 622.420898438 819 602.420898438 834 576.420898438 852 c 5
 420.420898438 732 l 5
 420.420898438 318 l 6
 420.420898438 249.936236114 435.951975061 157.456848724 510.420898438 178 c 4
 533.300523722 182.902776847 614.721938923 235.473179151 630.420898438 208 c 4
 638.420898438 196 634.420898438 182 614.420898438 168 c 4
 533.110901037 114.454391956 442.892625595 65.3535648719 356.420898438 18 c 4
 334.420898438 7 313.420898438 0 290.420898438 0 c 4
 221.845006942 4.67562896559 166.223681671 52.1740231574 158.420898438 125 c 4
 155.420898438 153 154.420898438 183 154.420898438 216 c 6
 154.420898438 674 l 6
 154.420898438 748.255803977 143.170495245 797.250403193 111.420898438 829 c 4
 55.2920161833 885.128882254 22.0786936581 909.890611708 92.4208984375 964 c 4
 125.70517936 986.882943134 147.41767869 1005.31028642 180.420898438 1028 c 4
 239.964684707 1075.22438221 267.464702479 1058.95619596 316.420898438 1010 c 4
 354.06246585 972.358432587 391.67263655 924.494206292 407.420898438 872 c 4
 410.420898438 862 414.420898438 850 420.420898438 836 c 5
 676.420898438 1028 l 5
 738.044834823 1076.87415644 757.664927883 1062.75597055 810.420898438 1010 c 4
 857.647771778 962.77312666 885.420496548 907.401366423 906.420898438 836 c 5
 1186.42089844 1030 l 6
 1251.94101345 1076.24949295 1279.11492822 1053.30597022 1322.42089844 1010 c 4
 1399.80729625 932.613602186 1464.42089844 797.758149892 1464.42089844 646 c 4
 1464.42089844 531.376089738 1460.4848978 421.151988504 1454.42089844 312 c 4
 1454.42089844 247.086991224 1464.67167957 149.062695282 1540.42089844 168 c 4
 1566.88872887 173.67167795 1646.06447214 226.123746014 1664.42089844 194 c 4
 1671.42089844 180 1664.42089844 166 1644.42089844 154 c 4
 1561.64391499 101.507278792 1473.86432537 55.7338128831 1382.42089844 12 c 4
 1362.71615979 -0.539379142304 1344.6382712 -2 1316.42089844 -2 c 4
 1206.60843962 3.49062294068 1184.80838792 96.7871530083 1188.42089844 216 c 4
 1193.78916881 378.837534653 1196.42089844 479.789410224 1196.42089844 630 c 4
 1196.42089844 741.220454296 1159.93172805 807.242522413 1086.42089844 858 c 5
 926.420898438 744 l 5
EndSplineSet
EndChar

StartChar: l
Encoding: 108 108 8
Width: 689
VWidth: 1771
Flags: HW
HStem: -373 46G<265.788 298.788>
VStem: 153.788 266<-173 909>
LayerCount: 2
Fore
SplineSet
425.788085938 318 m 4
 425.788085938 248.691369944 439.05873593 156.833282757 515.788085938 178 c 4
 538.522771493 182.871718333 619.513116279 236.481196902 635.788085938 208 c 4
 643.788085938 196 637.788085938 182 617.788085938 168 c 4
 536.47339992 114.45130433 446.835049248 65.6685751463 359.788085938 18 c 4
 337.788085938 7 316.788085938 0 293.788085938 0 c 4
 226.030809462 4.61981430516 171.500277766 53.0195429314 163.788085938 125 c 4
 160.788085938 153 159.788085938 183 159.788085938 216 c 6
 159.788085938 1106 l 6
 159.788085938 1213.4891224 128.583107988 1257.90373346 69.7880859375 1302 c 4
 38.7880859375 1328 43.7880859375 1356 87.7880859375 1386 c 4
 123.151523732 1413.50489606 152.552642795 1439.17637124 189.788085938 1464 c 4
 252.105270018 1511.27510516 272.631043423 1485.15704251 319.788085938 1438 c 4
 371.36596496 1386.42212098 421.172192752 1310.94036832 423.788085938 1222 c 4
 424.788085938 1188 425.788085938 1152 425.788085938 1118 c 4
 425.788085937 851.333333333 425.788085938 584.666666667 425.788085938 318 c 4
EndSplineSet
EndChar

StartChar: o
Encoding: 111 111 9
Width: 852
VWidth: 1878
Flags: HW
HStem: 628 168<385 559>
VStem: 47 264<-66 554> 540 259<17 559>
LayerCount: 2
Fore
SplineSet
550 128 m 4
 486.233014473 89.0312866222 418.879994896 46.2049980859 341 17 c 4
 256.206736791 -14.7974737033 166.86059059 2.79058614266 116 48 c 4
 46.0690819995 117.930918001 50 288.919215131 50 426 c 4
 50 533.333527302 57.2381275357 655.428765214 73 750 c 4
 78 780 96 806 126 828 c 4
 234.109978818 904.077392502 344.055563721 972.031078014 462 1038 c 4
 489.086386871 1054.92899179 521.452954199 1062 562 1062 c 4
 709.704650578 1062 800 944.556576276 800 802 c 5
 812.716959472 560.377770037 807.666661756 314.708329773 666 212 c 4
 642 194 619 180 601 167 c 4
 583 154 568 139 550 128 c 4
314 368 m 4
 314 261.989142245 355.640581983 186.397463626 458 180 c 4
 506.723244754 180 532.049615057 229.141146321 534 274 c 4
 541.855251504 407.539275563 548.161641875 548.33611749 542 688 c 4
 536.161292238 798.935447469 511.636144352 879.732874392 412 896 c 4
 313.101119025 908.362360122 314 747.148458397 314 656 c 4
 313 560 313 464 314 368 c 4
EndSplineSet
EndChar

StartChar: h
Encoding: 104 104 10
Width: 1207
VWidth: 1773
Flags: HW
HStem: -371 42G<253 287 789 804>
VStem: 140 266<-172 395 501 912> 676 268<-207 445>
LayerCount: 2
Fore
SplineSet
953 646 m 260
 953 511.109581444 949.543621841 429.006604666 947 312 c 4
 947 246.234176368 956.747716367 148.936929092 1033 168 c 4
 1059.03921161 173.579831059 1136.48963548 226.393137906 1155 194 c 4
 1162 180 1155 166 1135 154 c 4
 1052.70528949 101.813110406 965.59494223 55.3280158491 875 12 c 4
 854.901665355 -0.789849319644 836.105610424 -2 807 -2 c 4
 697.714945287 3.46425273567 675.397333278 97.111998162 679 216 c 4
 684.648529044 349.681854039 685 463.652319031 685 596 c 4
 685 730.468482093 654.937816708 803.654847089 563 862 c 5
 415 768 l 5
 415 318 l 6
 415 251.608221145 430.803624491 157.532034342 505 178 c 4
 528.653878963 183.068688349 609.249282418 235.563755768 625 208 c 4
 633 196 629 182 609 168 c 4
 527.685313983 114.45130433 438.046963311 65.6685751463 351 18 c 4
 329 7 308 0 285 0 c 4
 217.242723524 4.61981430516 162.712191829 53.0195429314 155 125 c 4
 152 153 151 183 151 216 c 6
 151 1120 l 6
 151 1200.06178738 125.107601241 1241.89239876 87 1280 c 4
 52.7262171324 1314.27378287 30.3089784802 1344.24718278 75 1380 c 4
 117.110459615 1410.62578881 158.853275446 1441.88262036 199 1474 c 4
 236.954166478 1507.20989567 292.657782497 1455.43618643 313 1438 c 4
 371.800061569 1379.19993843 417 1300.24084733 417 1193 c 6
 417 1060 l 5
 415 1060 l 5
 415 872 l 5
 677 1040 l 6
 735.555134872 1078.36370905 773.968401725 1039.36142069 807 1010 c 4
 893.001932774 931.476496163 953 805.458345823 953 646 c 260
EndSplineSet
EndChar

StartChar: k
Encoding: 107 107 11
Width: 1226
VWidth: 1772
Flags: HW
HStem: -372 46G<247.075 281.075 799.075 815.075>
VStem: 134.075 266<-172 138 245 442 500 913> 616.075 288<442 567> 684.075 266<-208 188>
LayerCount: 2
Fore
SplineSet
700.075195312 426 m 6xd0
 700.075195312 510.224020509 629.259700541 580.938498257 566.075195312 602 c 5
 418.075195312 510 l 5
 418.075195312 318 l 6
 418.075195312 249.936236114 433.606271936 157.456848724 508.075195312 178 c 4
 530.809880868 182.871718333 611.800225654 236.481196902 628.075195312 208 c 4
 636.075195312 196 630.075195312 182 610.075195312 168 c 4
 529.208062065 114.746034203 440.357394456 65.2497757215 354.075195312 18 c 4
 332.075195312 7 309.075195312 0 286.075195312 0 c 4
 218.317918837 4.61981430516 163.787387141 53.0195429314 156.075195312 125 c 4
 153.075195312 153 152.075195312 183 152.075195312 216 c 6
 152.075195312 1108 l 6
 152.075195312 1154.39689745 144.270742526 1212.98112258 126.075195312 1238 c 4
 113.380495109 1251.96417022 51.8640622194 1318.53359712 50.0751953125 1340 c 4
 47.6653247748 1368.91844645 111.103401769 1407.85370466 132.075195312 1423 c 4
 159.284684164 1442.6512975 208.490433712 1491.6980952 246.075195312 1487 c 4
 275.351791822 1483.34042544 340.621353253 1414.46744932 361.075195312 1383 c 4
 393.671364786 1332.85204696 416.482241751 1266.27586381 418.075195312 1193 c 4
 419.075195312 1147 420.075195312 1102 420.075195312 1060 c 6
 418.075195312 872 l 5
 496.075195312 926 l 5
 579.969036025 985.33954587 644.183430647 1029.01299235 738.075195312 1078 c 4
 846.832168055 1130.50336615 906.88813453 1019.32020816 920.075195312 938 c 4xe0
 931.630085579 876.37391858 858.810778977 823.135186547 827.075195312 797 c 4
 810.075195312 783 792.075195312 764 770.075195312 744 c 5
 884.524091836 691.54425576 971.839938466 595.648698773 968.075195312 430 c 4
 967.075195312 401 966.075195312 380 966.075195312 363 c 4
 966.075195312 283.005013265 960.128896338 202.367779385 1014.07519531 170 c 4
 1057.76741545 143.784667917 1114.83785332 199.108951143 1156.07519531 205 c 4
 1163.07519531 206 1170.07519531 201 1174.07519531 194 c 4
 1181.07519531 180 1174.07519531 166 1154.07519531 154 c 4
 1071.7804848 101.813110406 984.670137542 55.3280158491 894.075195312 12 c 4
 874.109734867 -0.705293010791 854.283581482 -2 826.075195312 -2 c 4
 681.373087382 5.23510539655 700.075195312 155.759905041 700.075195312 304 c 6
 700.075195312 426 l 6xd0
418.075195312 618 m 5
 498.005825674 670.681551829 525.879274106 688.312242177 586.075195312 746 c 4
 608.491229597 766.378212986 662.021501022 824.05369429 624.075195312 862 c 4
 593.197472616 892.877722696 514.549041548 829.258461583 492.075195312 817 c 4
 463.915453543 801.640140853 446.433113088 787.496068471 418.075195312 768 c 5
 418.075195312 618 l 5
EndSplineSet
EndChar

StartChar: v
Encoding: 118 118 12
Width: 999
VWidth: 1878
Flags: HW
HStem: -265 46G<259.231 292.231>
VStem: 146.231 266<-65 584> 675.231 266<64 588>
LayerCount: 2
Fore
SplineSet
155.23046875 347 m 6
 155.23046875 420.037457712 153.23046875 491.547031941 153.23046875 562 c 6
 153.23046875 662 l 6
 153.23046875 716.313778627 146.957757178 779.581796201 125.23046875 810 c 4
 110.43253976 827.264250489 97.4353257805 843.305558523 77.23046875 858 c 4
 38.0160192714 887.410837109 42.631186449 923.858901512 83.23046875 956 c 5
 191.23046875 1038 l 5
 243.335991324 1073.82254677 283.087692695 1040.14277606 313.23046875 1010 c 4
 365.194147148 958.036321602 395.313668268 902.764535662 412.23046875 821 c 4
 418.23046875 792 423.23046875 767 423.23046875 744 c 4
 422.23046875 672 421.23046875 599 421.23046875 528 c 6
 421.23046875 318 l 6
 421.23046875 249.847472625 434.073083549 157.26692822 509.23046875 178 c 4
 569.860199707 194.167928255 623.373107684 234.552725869 639.23046875 296 c 4
 665.866933367 390.70742975 669.238376275 479.748377761 679.23046875 583 c 4
 682.23046875 614 683.23046875 647 683.23046875 680 c 4
 683.23046875 785.63093123 644.644222205 827.512965727 589.23046875 876 c 4
 553.731066027 911.499402723 593.6895927 940.670397292 627.23046875 968 c 5
 671.23046875 1001 l 6
 695.070817008 1018.88026119 744.759380855 1058.46718681 774.23046875 1055 c 4
 831.311863147 1048.28454184 894.677374339 949.106188822 919.23046875 900 c 4
 947.376035257 840.190671172 949.23046875 765.588287164 949.23046875 684 c 4
 949.23046875 498.364888661 914.595746678 339.365277928 821.23046875 246 c 4
 761.329770155 186.099301405 660.681893397 134.436972866 580.23046875 95 c 4
 529.23046875 70 478.23046875 47 425.23046875 24 c 4
 383.517368111 5.86386928745 344.467637362 0 289.23046875 0 c 4
 223.630399164 0 166.807917434 54.2771456117 159.23046875 125 c 4
 156.23046875 153 155.23046875 183 155.23046875 216 c 6
 155.23046875 347 l 6
EndSplineSet
EndChar

StartChar: w
Encoding: 119 119 13
Width: 1496
VWidth: 1878
Flags: HW
HStem: -267 170<443.062 585.062>
VStem: 158.062 266<-84 544> 666.062 270<-89 591> 1183.06 266<57 587>
LayerCount: 2
Fore
SplineSet
666.0625 262 m 6
 666.0625 421.625847878 664.0625 533.573606643 664.0625 702 c 4
 664.0625 798.959529529 625.692459111 832.823785778 574.0625 878 c 4
 537.615451368 914.447048632 580.319787493 942.505937957 614.0625 970 c 4
 645.740448449 993.758461337 664.715097401 1009.60899814 696.0625 1032 c 4
 755.083385674 1075.13064722 777.724676777 1062.33782322 828.0625 1012 c 4
 902.825085399 932.414021995 934.0625 860.669861106 934.0625 702 c 4
 933.0625 638 932.0625 574 931.0625 510 c 4
 930.0625 446 931.0625 383 932.0625 320 c 4
 932.0625 256.071551233 943.644422669 159.158706183 1020.0625 180 c 4
 1073.66682883 194.431934685 1123.9477704 243.557471537 1138.0625 298 c 4
 1164.01293259 390.268204751 1170.07293802 475.651351321 1177.0625 577 c 4
 1179.0625 606 1182.0625 642 1182.0625 680 c 4
 1182.0625 786.389590997 1141.86046811 829.176777903 1086.0625 878 c 4
 1049.61545137 914.447048632 1092.31978749 942.505937957 1126.0625 970 c 4
 1158.07626613 994.010324597 1178.09691337 1009.16743812 1210.0625 1032 c 4
 1268.39784624 1074.6296761 1289.59414022 1062.46835978 1340.0625 1012 c 4
 1415.95894962 931.207005245 1446.0625 859.6768069 1446.0625 698 c 4
 1446.0625 555.21926979 1430.27715129 422.214992503 1382.0625 329 c 4
 1329.45983563 227.301515547 1191.79054397 153.108356235 1084.0625 97 c 4
 1036.0625 72 987.0625 49 934.0625 26 c 4
 893.50633369 8.36688421312 855.471392514 0 802.0625 0 c 4
 746.911345731 0 693.488111936 42.4394229025 681.0625 88 c 4
 678.0625 99 675.0625 112 672.0625 124 c 5
 613.389862552 83.6625617545 539.079379607 40.5538321314 466.0625 17 c 4
 435.0625 7 403.0625 0 370.0625 0 c 4
 231.453926588 0 156.0625 84.9062864509 156.0625 218 c 6
 156.0625 341 l 6
 156.0625 411.262883681 154.0625 472.939520239 154.0625 539 c 6
 154.0625 626 l 6
 154.0625 754.706186733 143.300353728 793.20268284 105.0625 841 c 4
 97.0625 851 86.0625 864 70.0625 876 c 4
 34.3341159354 898.736244405 49.3445158046 929.068346504 84.0625 958 c 5
 196.0625 1042 l 5
 250.387532808 1079.34846006 285.320254151 1042.74224585 316.0625 1012 c 4
 370.926630956 957.135869044 416.137091777 875.58275623 421.0625 782 c 4
 423.0625 744 424.0625 705 424.0625 668 c 4
 424.0625 550.607507523 422.0625 435.983132046 422.0625 320 c 4
 422.0625 234.944362294 468.376147242 164.269602953 560.0625 170 c 4
 603.135587856 171.87274295 633.631932231 175.838537087 666.0625 188 c 5
 666.0625 262 l 6
EndSplineSet
EndChar

StartChar: zero
Encoding: 48 48 14
Width: 1174
VWidth: 1753
Flags: HW
VStem: 44.1256 266<-29 799> 836.126 274<66 756>
LayerCount: 2
Fore
SplineSet
1124.12597656 848 m 4
 1124.12597656 677.540103915 1101.05385479 575.728902915 1052.12597656 444 c 4
 1004.92191272 310.25515246 894.972145698 199.403854053 776.125976562 138 c 4
 682.039624149 90.9568237933 588.457108351 40.8858300797 486.125976562 2 c 4
 393.658482311 -34.0848758055 318.893378259 18.6962051384 268.125976562 58 c 4
 196.760484692 113.93511525 125.313689641 184.09751417 96.1259765625 280 c 4
 80.375479038 337.095553526 70.7862877898 367.61699147 64.1259765625 432 c 4
 43.8523452602 650.955218065 51.9531967452 831.248555025 60.1259765625 1056 c 4
 66.1958889351 1128.83894847 115.171821585 1182.64856089 158.125976562 1220 c 4
 295.032835344 1339.79350143 418.48398243 1431.20883676 574.125976562 1522 c 4
 622.125976562 1552 664.125976562 1566 704.125976562 1566 c 4
 744.125976562 1566 788.125976562 1548 836.125976562 1514 c 4
 1028.59616842 1376.52129153 1124.12597656 1173.01862644 1124.12597656 848 c 4
850.125976562 702 m 4
 850.125976562 801.392207554 844.157441452 877.638153767 836.125976562 970 c 4
 824.125976562 1108 757.125976562 1218 640.125976562 1302 c 4
 506.981440287 1399.37436235 334.048912467 1293.14862846 330.125976562 1148 c 4
 327.125976562 1074 326.125976562 1008 326.125976562 947 c 6
 326.125976562 744 l 6
 326.125976562 492.755567744 363.639370618 286.218253613 560.125976562 228 c 4
 820.36752486 147.449044575 850.125976562 445.804366634 850.125976562 702 c 4
EndSplineSet
EndChar

StartChar: bar
Encoding: 124 124 15
Width: 364
VWidth: 1846
Flags: HW
VStem: 35 264<-753 1350>
LayerCount: 2
Fore
SplineSet
50 1584 m 4
 50 1650.87576509 59.9781355028 1682.73269061 102 1716 c 260
 154.895793971 1757.87583689 179.812713411 1765.90919438 246 1798 c 4
 292 1820 314 1808 314 1760 c 6
 314 -260 l 6
 314 -335.593297665 245.107373469 -379.195511801 206 -403 c 4
 183 -417 155 -434 122 -452 c 4
 78.4473430145 -473.776328493 50 -438.45779032 50 -402 c 4
 50 260 50 922 50 1584 c 4
EndSplineSet
EndChar

StartChar: ampersand
Encoding: 38 38 16
Width: 1526
VWidth: 1741
Flags: HW
HStem: -409 212<491.482 705.482> 631 42G<1010.48 1077.48> 1023 188<485.482 598.482>
LayerCount: 2
Fore
SplineSet
814.482421875 288 m 5
 414.482421875 774 l 5
 386.482421875 772 l 5
 346.482421875 724 334.482421875 658 350.482421875 574 c 4
 375.535272902 418.314425758 525.729173983 214.131137169 700.482421875 212 c 4
 752.907933521 212 786.110365687 229.720957859 818.482421875 254 c 5
 814.482421875 288 l 5
720.482421875 1174 m 4
 704.57903279 1269.42033451 627.06342041 1429.66861367 524.482421875 1432 c 4
 396.412757093 1434.41640877 501.508554175 1193.99904202 540.482421875 1118 c 4
 578.482421875 1044 612.482421875 1007 636.482421875 1006 c 4
 711.819637068 1006 731.741445168 1098.93984471 720.482421875 1174 c 4
1100.48242188 448 m 5
 1111.9426006 372.690254084 1219.45308635 244 1302.48242188 244 c 4
 1330.89222266 244 1349.95099853 258.392502285 1376.48242188 270 c 5
 1430.48242188 296 l 5
 1476.48242188 314 l 5
 1473.48242188 307 1434.48242188 267 1413.48242188 240 c 4
 1392.48242188 213 1317.48242188 131 1316.48242188 130 c 4
 1267.48242188 79 1244.48242188 20 1172.48242188 10 c 28
 1108.48242188 0 1073.48242188 42 1019.48242188 85 c 4
 977.482421875 118 940.482421875 153 904.482421875 190 c 5
 852.482421875 180 l 5
 818.482421875 140 788.482421875 109 761.482421875 85 c 4
 700.630652947 30.9095387304 663.605144684 -1.9144337335 554.482421875 0 c 4
 316.728401343 6.25668475085 93.7787314318 217.140666482 56.482421875 426 c 4
 31.6625371925 570.406601789 77.0215206309 636.477101173 158.482421875 702 c 6
 354.482421875 862 l 5
 354.482421875 943.26469731 303.561163344 999.763775592 281.482421875 1066 c 4
 275.482421875 1084 269.482421875 1096 266.482421875 1104 c 4
 242.482421875 1240 297.482421875 1364 428.482421875 1480 c 5
 541.482421875 1574 626.482421875 1621 686.482421875 1620 c 4
 740.482421875 1617 799.482421875 1580 860.482421875 1512 c 4
 910.102024403 1457.41843722 950.744253969 1402.06781154 966.482421875 1326 c 4
 982.482421875 1243 958.482421875 1174 898.482421875 1118 c 4
 825.903689382 1053.26761697 749.708211864 998.993883775 674.482421875 938 c 5
 762.612382789 818.045330979 851.177241284 694.718328165 942.482421875 592 c 4
 966.482421875 565 986.482421875 545 1002.48242188 534 c 5
 1108.58892889 597.663904208 966.088719398 844.19422727 920.482421875 886 c 5
 866.482421875 886 l 5
 866.482421875 908 l 5
 1106.48242188 1082 l 5
 1183.72604044 1082 1224.7684351 963.355423984 1236.48242188 896 c 4
 1248.48242188 824 1244.48242188 752 1224.48242188 682 c 4
 1204.48242188 612 1163.48242188 534 1100.48242188 448 c 5
EndSplineSet
EndChar

StartChar: percent
Encoding: 37 37 17
Width: 1359
VWidth: 1780
Flags: HW
VStem: 64.4315 201<697 834> 617.432 201<-159 -23>
LayerCount: 2
Fore
SplineSet
116.431640625 1009 m 4
 116.431640625 1187.69576853 254.168877068 1274.40499065 359.431640625 1347 c 4
 406.989182289 1378.70502778 463.658988477 1415.61041823 522.431640625 1438 c 4
 543.431640625 1446 563.431640625 1449 583.431640625 1449 c 4
 652.62305105 1449 681.198019369 1413.31973419 696.431640625 1349 c 4
 734.629664408 1189.84156757 650.278334921 1123.78509098 566.431640625 1050 c 4
 480.917071685 974.747179333 383.813060133 912.732505733 273.431640625 865 c 5
 170.801403924 829.302526365 116.431640625 908.421947746 116.431640625 1009 c 4
391.431640625 1285 m 4
 283.841743713 1280.69640412 296.693632944 1020.30258301 409.431640625 1025 c 4
 512.662513023 1028.68681687 514.024138494 1177.1112532 467.431640625 1247 c 4
 449.431640625 1274 424.431640625 1286 391.431640625 1285 c 4
667.431640625 151 m 4
 667.431640625 329.307562886 806.649973567 416.736781339 911.431640625 489 c 4
 959.382020505 520.96691992 1016.00562903 557.361519394 1075.43164062 580 c 4
 1096.43164062 588 1116.43164062 593 1136.43164062 593 c 4
 1203.15450777 593 1234.58317409 553.693525359 1249.43164062 491 c 4
 1287.73321002 331.410127524 1201.07948281 265.610101125 1117.43164062 192 c 4
 1032.02533641 116.842452294 935.870080504 54.7571631909 825.431640625 7 c 5
 725.16544802 -27.8751974278 667.431640625 53.1224933545 667.431640625 151 c 4
943.431640625 427 m 4
 832.127452866 422.54783249 850.384018786 164.373015757 961.431640625 169 c 4
 1062.37217314 172.605019018 1065.73931072 319.53849486 1019.43164062 389 c 4
 1001.43164062 416 976.431640625 428 943.431640625 427 c 4
1264.43164062 1413 m 4
 1315.16046233 1413 1321.26365695 1388.42551938 1291.43164062 1353 c 4
 1056.97613901 1086.20580851 795.968875543 765.543903859 561.431640625 489 c 4
 461.205663375 370.823101451 350.873644322 242.617421134 268.431640625 143 c 4
 219.986949304 84.8663704147 175.825861647 41 85.431640625 41 c 4
 4.63184030559 41 84.7488741632 139.317233538 100.431640625 155 c 4
 263.099739019 357.236014219 463.693407717 585.90389561 635.431640625 793 c 4
 779.205391604 966.374229122 929.287370248 1141.40654814 1065.43164062 1297 c 4
 1118.62963977 1358.51018652 1163.83569856 1413 1264.43164062 1413 c 4
EndSplineSet
EndChar

StartChar: p
Encoding: 112 112 18
Width: 1017
VWidth: 1987
Flags: HW
VStem: 148.188 266<-508 -134 38 576> 683.188 270<149 657>
LayerCount: 2
Fore
SplineSet
161.1875 190 m 5
 161.1875 672 l 6
 161.1875 785.976033995 129.072111669 820.384618569 71.1875 870 c 5
 23.1595130494 904.929445055 69.8657006764 938.542560541 99.1875 962 c 4
 133.530015485 988.710845377 165.604437536 1016.27795836 201.1875 1040 c 4
 248.680510749 1074.54037145 296.305027677 1032.88247232 321.1875 1008 c 4
 372.935971564 956.251528436 399.655154279 904.129382885 419.1875 826 c 5
 677.1875 1022 l 5
 737.836336403 1070.10080129 768.180293544 1059.00720646 819.1875 1008 c 4
 917.1875 910 967.1875 773 967.1875 600 c 4
 967.1875 422.942178674 921.288839935 291.417359953 811.1875 212 c 4
 730.911712325 151.793159244 664.000344924 106.89922419 573.1875 58 c 4
 528.943704729 33.8670207611 484.135191301 14.2456977448 429.1875 0 c 5
 426.1875 -41 425.1875 -82 425.1875 -121 c 4
 425.1875 -211.151590217 427.350178933 -304.763158233 373.1875 -342 c 4
 320.422129611 -380.55930913 287.42655603 -402.304377588 223.1875 -428 c 4
 186.335282979 -444.122844947 165.1875 -414.510985779 165.1875 -380 c 4
 162.1875 -314 161.1875 -249 161.1875 -188 c 4
 161.1875 -127 163.1875 -64 159.1875 0 c 5
 161.1875 190 l 5
527.1875 192 m 6
 653.36708213 192 697.1875 301.457586616 697.1875 428 c 6
 697.1875 594 l 6
 697.1875 726.244649026 674.4025165 792.113547221 583.1875 850 c 5
 427.1875 730 l 5
 427.1875 550.666666667 427.1875 371.333333333 427.1875 192 c 5
 527.1875 192 l 6
EndSplineSet
EndChar

StartChar: q
Encoding: 113 113 19
Width: 858
VWidth: 1988
Flags: HW
HStem: -171 180<314 429>
VStem: 23 268<31 652> 523 256<-510 -47 21 690>
LayerCount: 2
Fore
SplineSet
806 34 m 4
 806 -55.630544766 804 -127.569743563 804 -222 c 4
 804 -311.906821153 739.881176411 -342.064812867 685 -372 c 4
 655.273593081 -388.214403774 548 -465.176642951 548 -362 c 4
 548 -200 548 -38 548 124 c 5
 479.553607083 82.3369782247 427.250958796 45.20032873 345 17 c 4
 256.529970592 -13.3325815114 169.033520794 0.859092627959 116 48 c 5
 46.0690819995 117.930918001 50 288.919215131 50 426 c 4
 50 533.333527302 57.2381275357 655.428765214 73 750 c 4
 78 780 94 806 124 828 c 4
 231.642900966 903.748708088 356.848036938 972.474325745 474 1038 c 5
 573.443609623 1098.26885432 682.836595535 1034.69326499 748 992 c 4
 788 965 808 926 808 876 c 6
 808 302 l 6
 808 202.412542782 806 126.760213479 806 34 c 4
318 368 m 4
 318 247.471152136 360.589456072 180 484 180 c 4
 522.080851769 180 546.064731077 193.294621547 548 232 c 4
 553.921862138 385.968415599 558.0664346 526.818101221 556 688 c 4
 556 811.188960775 508.825103455 855.811994889 420 892 c 4
 351.396105637 917.726460386 325.612150317 822.570104444 322 772 c 4
 319 730 318 690 318 656 c 4
 317 560 317 464 318 368 c 4
EndSplineSet
EndChar

StartChar: y
Encoding: 121 121 20
Width: 912
VWidth: 4227
Flags: HW
TeX: 1800 1500
HStem: -591 167<361 565> -160 46G<333 438> 867 42G<196 273 656 721>
VStem: 153 249<20 753> 191 142<-396 -265> 616 251<-359 2 101 753>
LayerCount: 2
Fore
SplineSet
610 775 m 2
 610 842.217988895 565.399421136 911.455780669 510 933 c 1
 715 1070 l 1xf4
 716 1069 l 1
 717 1069 l 1
 720 1068 l 1
 727 1063 l 1
 795.285772434 1035.68569103 862 964.420260393 862 875 c 2
 862 97 l 1
 860.740701536 -71.7459941945 811.945830057 -199.837966604 729 -292 c 1
 668.387775324 -365.788795258 573.51755956 -430 462 -430 c 0
 362.58120359 -430 296.187485304 -395.669102086 237 -333 c 0
 203 -297 186 -260 186 -223 c 0
 186 -149.304598324 247.545219941 -90.417444491 317 -89 c 0
 335.810737201 -89 369.845703856 -91.1342778919 383 -101 c 1
 384 -101 l 1
 350 -120 332 -144 328 -172 c 1
 328 -180 l 2xec
 328 -230.295302898 379.658777795 -264 430 -264 c 2
 438 -264 l 1
 532.166736307 -258.76851465 610 -157.938190156 610 -66 c 2
 610 161 l 5
 529 107 458 -9 367 0 c 5
 245.080492356 42.6718276754 148 120.180378402 148 269 c 2
 148 798 l 2
 148 860.4315104 93.7353244799 912.418670833 50 933 c 1
 254 1070 l 1
 340.895467034 1020.34544741 388.297732172 934.427213932 399 806 c 1
 397 267 l 2
 397 232 424 200 477 172 c 1
 610 262 l 1
 610 775 l 2
EndSplineSet
EndChar

StartChar: x
Encoding: 120 120 21
Width: 911
VWidth: 4107
Flags: HW
HStem: -279 132<234 314> -194 152<623 814> 611 171<143 249> 794 42G<698 730>
VStem: 43 223<-146 28> 675 178<644 814>
LayerCount: 2
Fore
SplineSet
274 111 m 4
 274 73.6640536238 295.053552108 48 334 48 c 4
 352 48 372 52 396 59 c 5
 359 -37 306 -85 238 -85 c 4
 208 -85 175 -76 139 -58 c 4
 79 -28 50 14 50 67 c 260
 50 120 79 184 139 261 c 5
 365 536 l 5xbc
 330.332506495 631.33560714 285.282069102 715.431936214 224 772 c 4
 192.010783866 797.896032108 165.464139523 806 116 806 c 6
 107 806 l 5
 87.6228711609 804.509451628 66.1768626154 802.176862615 56 792 c 5
 53 792 l 5
 100.731253101 872.998490111 192.564552207 978 306 978 c 4
 322 978 336 974 353 969 c 4
 447.503907599 944.036703653 513.011492452 848.574719018 542 746 c 5
 663 900 l 6
 676 918 682 935 682 953 c 4
 682 976 669 997 642 1016 c 5
 668 1027 692 1032 716 1032 c 4
 781.739552741 1032 860 970.976215872 860 895 c 4
 860 857 841 815 805 769 c 5
 569 492 l 5
 624 333 683 229 747 180 c 4
 769.304237847 163.271821615 785.483403231 152 818 152 c 4
 834.858360305 152 852.567549458 156.77218525 861 164 c 5
 846.088052799 80.4930956732 776.275952058 0 679 0 c 4x7c
 581 0 503 52 447 158 c 4
 428 193 413 236 396 288 c 5
 348 232 314 190 293 162 c 4
 280 144 274 129 274 111 c 4
EndSplineSet
EndChar

StartChar: z
Encoding: 122 122 22
Width: 910
VWidth: 1883
Flags: HW
VStem: 16.8514 808
LayerCount: 2
Fore
SplineSet
366.8515625 637 m 5
 411.211226965 703.539496697 443.233720694 762.935739626 486.8515625 835 c 5
 378.952883905 823.011257934 322.550847718 836.514489938 250.8515625 857 c 4
 209.657626083 870.0086115 187.85360261 850.334693407 164.8515625 835 c 4
 142.8515625 823 124.8515625 810 106.8515625 799 c 4
 83.4837094075 778.970411635 49.6810231637 797.545228436 61.8515625 830 c 4
 72.5580262137 858.550569903 110.007091825 874.155529325 128.8515625 893 c 4
 200.410441438 950.644652478 239.096628553 988.496710702 314.8515625 1039 c 4
 357.85973585 1071.25613001 405.974830287 1079.30137502 468.8515625 1063 c 4
 523.784837711 1049.74024391 559.515167994 1041 622.8515625 1041 c 4
 668.665491853 1041 692.116262965 1052.37461072 726.8515625 1067 c 260
 759.558638356 1080.77140036 792.237450353 1055.21742057 770.8515625 1021 c 4
 704.659290419 920.708678665 645.044817633 825.292810808 578.8515625 725 c 4
 559.014545522 693.260772835 544.254610964 666.96426785 522.8515625 637 c 5
 404.8515625 451 l 6
 368.232819186 395.108233889 333.473336758 335.932661387 296.8515625 281 c 5
 364.63323072 247.10916589 427.460851668 211.597677708 509.8515625 191 c 4
 581.26348374 173.14701969 650.426931795 157.347523914 720.8515625 187 c 4
 753.808840541 201.418809143 778.317306533 216.766263014 810.8515625 231 c 4
 817.8515625 235 827.8515625 237 837.8515625 237 c 4
 854.695997403 237 867.308700007 217.68570626 856.8515625 202 c 4
 838.479523484 174.441941476 797.776643101 153.958378112 770.8515625 139 c 4
 698.419568248 92.0170848096 625.282555556 46.3140503005 548.8515625 5 c 4
 520.911195812 -8.970183344 449.505727514 -29 406.8515625 -29 c 4
 320.605889303 -29 244.137897032 14.8747286422 179.8515625 43 c 4
 144.714613542 58.3724151689 40.7782455135 92.6334150673 50.8515625 143 c 4
 54.8515625 163 64.8515625 182 76.8515625 201 c 4
 128.793958724 283.242127354 192.79933422 365.261982728 246.8515625 451 c 5
 366.8515625 637 l 5
EndSplineSet
EndChar

StartChar: b
Encoding: 98 98 23
Width: 959
VWidth: 1772
Flags: HW
HStem: 521 168<492.333 664.333>
VStem: 149.333 266<-173 518 577 910> 636.333 258<-104 452>
LayerCount: 2
Fore
SplineSet
155.333007812 682 m 5
 155.333007812 1082 l 6
 155.333007812 1160.11929912 143.212294265 1228.12071355 106.333007812 1265 c 6
 77.3330078125 1294 l 6
 49.0713912003 1322.26161661 35.8467922075 1351.3853383 71.3330078125 1378 c 4
 112.745974569 1411.1303734 149.880114378 1438.39789568 193.333007812 1470 c 4
 227.522520918 1494.42108079 263.508744646 1491.82426317 291.333007812 1464 c 6
 315.333007812 1440 l 6
 381.309497885 1374.02350993 421.333007812 1286.24634544 421.333007812 1160 c 4
 420.333007812 1127 419.333007812 1096 419.333007812 1066 c 6
 419.333007812 952 l 5
 469.301790717 981.148456694 519.749649959 1006.27776143 567.333007812 1038 c 4
 594.656662249 1055.07728402 628.83170666 1062 669.333007812 1062 c 4
 817.037658391 1062 907.333007812 944.556576276 907.333007812 802 c 5
 913.448624518 685.803282593 909.080421473 565.726722945 897.333007812 460 c 4
 888.502805613 351.830023055 843.219990029 264.118062107 771.333007812 212 c 4
 670.087355341 136.065760647 575.346753222 65.3801545285 446.333007812 17 c 4
 362.185931346 -14.5551536749 274.031906974 2.93431185609 223.333007812 48 c 4
 150.714304625 120.618703188 157.333007812 302.87974238 157.333007812 445 c 4
 157.333007812 526 156.333007812 604 155.333007812 682 c 5
419.333007812 368 m 4
 419.333007812 265.309737109 463.680890017 186.228257362 563.333007812 180 c 4
 613.241033492 180 639.331024221 227.954377401 641.333007812 274 c 4
 649.188259316 407.539275563 655.494649688 548.33611749 649.333007812 688 c 4
 643.494300051 798.935447469 618.969152165 879.732874392 519.333007812 896 c 4
 421.880775555 908.181529032 419.333007812 745.08430013 419.333007812 656 c 4
 418.333007812 560 418.333007812 464 419.333007812 368 c 4
EndSplineSet
EndChar

StartChar: d
Encoding: 100 100 24
Width: 852
VWidth: 1775
Flags: HW
HStem: 524 152<354 500>
VStem: 40 264<-170 450> 526 264<-91 455 629 901>
LayerCount: 2
Fore
SplineSet
536 1072 m 5
 536 1148.5813936 523.094649098 1218.9053509 487 1255 c 6
 458 1284 l 6
 430.35077057 1311.64922943 415.68623334 1340.76467501 452 1368 c 4
 493.412966756 1401.1303734 530.547106565 1428.39789568 574 1460 c 4
 625.406877674 1496.71919834 667.011067642 1458.98893236 696 1430 c 4
 762.515626252 1363.48437375 802 1275.49172381 802 1148 c 4
 801 1115 800 1084 800 1054 c 6
 800 802 l 5
 812.793650584 558.920638909 809.516370211 316.049368403 666 212 c 4
 564.907469159 136.180601869 469.592611121 65.2222291705 341 17 c 4
 256.625738232 -14.6403481632 167.039592772 2.6314730915 116 48 c 5
 48.0757837975 115.924216203 50 293.950375661 50 426 c 4
 50 531.639252298 56.9292527234 653.57551634 73 750 c 4
 78 780 96 806 126 828 c 4
 234.620692043 904.43678329 347.484634982 965.674506304 462 1038 c 4
 478 1048 487 1052 504 1048 c 4
 522 1044 552 1024 550 996 c 5
 536 1072 l 5
314 368 m 4
 314 264.331867489 356.897135964 186.318929002 458 180 c 4
 508.809805735 180 531.946183723 226.762225629 534 274 c 4
 541.823277192 406.99571226 550.224735105 546.906004283 544 688 c 4
 538.087220765 800.342805471 512.993777063 879.511220071 412 896 c 4
 314.649086174 908.168864228 314 746.083535525 314 656 c 4
 313 560 313 464 314 368 c 4
EndSplineSet
EndChar

StartChar: c
Encoding: 99 99 25
Width: 846
VWidth: 1870
Flags: HW
HStem: -275 117<347 542> 702 117<372 559>
VStem: 43 264<-132 575> 580 206<-136 13 531 680>
LayerCount: 2
Fore
SplineSet
794 206 m 4
 794 84.8070768825 681.641822741 -3 560 -3 c 5
 249 0 l 5
 159 6 64 80 56 146 c 4
 53 174 52 181 52 214 c 6
 52 343 l 6
 52 415.674944717 50 482.096428874 50 551 c 6
 50 644 l 6
 50 763.298867185 69.5294925653 814.0203397 142 864 c 4
 203.93299199 910.449743993 257.928396369 952.957037821 323 992 c 5
 356 1016 l 5
 414 1062 470 1091 562 1091 c 4
 683.441980118 1091 796 1001.74262127 796 881 c 4
 796 789.630005455 721.93734314 707 631 707 c 4
 596 707 570 712 558 719 c 4
 554 721 536 738 507 769 c 5
 507 804 l 5
 527 801 l 5
 560.905458135 801 590 829.286017006 590 863 c 4
 590 927.345527704 529.531325913 974 465 974 c 4
 363 974 313 884 315 704 c 6
 316 524 l 6
 315 453 316 442 316 374 c 4
 314 194 362 114 464 114 c 4
 529.104078113 114 589 161.11633579 589 226 c 4
 589 258.363200861 558.281508413 287 526 287 c 5
 506 284 l 5
 506 320 l 5
 535 351 552 367 556 369 c 4
 568 376 593 381 628 381 c 4
 719.97728724 381 794 298.374916329 794 206 c 4
EndSplineSet
EndChar

StartChar: r
Encoding: 114 114 26
Width: 941
VWidth: 3164
Flags: HW
HStem: -267 46G<258.385 289.385> 581 117<478.385 670.385>
VStem: 146.385 266<-67 546> 693.385 206<409 558>
LayerCount: 2
Fore
SplineSet
685.385742188 737 m 4
 685.385742188 800.851975168 625.45673718 848 561.385742188 848 c 4
 459.385742188 848 408.385742188 758 410.385742188 578 c 5
 403.385742188 318 l 5
 403.385742188 251.608221145 419.189366679 157.532034342 493.385742188 178 c 4
 517.831982206 183.238480004 596.980551849 234.709083093 613.385742188 206 c 4
 623.385742188 192 619.385742188 179 597.385742188 168 c 4
 511.385742188 112 424.385742188 62 337.385742188 20 c 4
 313.385742188 8 291.385742188 0 271.385742188 0 c 4
 207.799751363 4.54185648745 147.602363768 53.967297867 142.385742188 127 c 4
 140.385742188 155 139.385742188 185 139.385742188 218 c 6
 147.385742188 692 l 5
 147.385742188 775.195484602 119.562125585 817.823616603 79.3857421875 858 c 4
 9.1070150165 921.250854454 89.8105230251 971.616520558 132.385742188 1000 c 4
 171.628024871 1026.16152179 227.385388802 1094.00035339 284.385742188 1037 c 6
 309.385742188 1012 l 6
 359.509494777 961.87624741 379.589331491 912.654702321 401.385742188 840 c 5
 451.385742188 890 l 5
 497.385742188 941 565.385742188 965 657.385742188 965 c 4
 778.059473821 965 891.385742188 874.735745297 891.385742188 755 c 4
 891.385742188 663.406552291 816.320188557 580 725.385742188 580 c 4
 690.385742188 580 665.385742188 586 653.385742188 593 c 4
 649.385742188 595 632.385742188 611 603.385742188 642 c 5
 603.385742188 678 l 5
 622.385742188 674 l 5
 655.755467276 674 685.385742188 703.635403195 685.385742188 737 c 4
EndSplineSet
EndChar

StartChar: f
Encoding: 102 102 27
Width: 1108
VWidth: 1843
Flags: HW
HStem: 1214 117<625 827>
VStem: 325 265<-378 -213 548 548 857 1077> 866 206<1042 1191>
LayerCount: 2
Fore
SplineSet
576 485 m 6
 576 559.913965077 578 652.010559436 578 717 c 5
 655.572185191 762.630697171 728.235329175 809.42073669 811 858 c 4
 837.7862692 873.306439543 834.404166626 909 798 909 c 6
 576 909 l 5
 576 1039 l 5
 578 1147 l 5
 576 1327 626 1383 728 1383 c 4
 793.104078113 1383 853 1335.88366421 853 1271 c 4
 853 1238.12939932 822.827005915 1209 790 1209 c 5
 770 1212 l 5
 770 1177 l 5
 799 1146 817 1130 821 1128 c 4
 833 1121 858 1115 893 1115 c 4
 983.430645078 1115 1058 1198.99304139 1058 1290 c 4
 1058 1411.72623357 946.216640022 1500 824 1500 c 4
 720 1501 599 1504 466 1409 c 4
 415 1373 356 1328 324 1247 c 4
 315 1224 314 1164 312 1133 c 4
 305.601945941 1056.22335129 304.214814232 987.992600754 310 907 c 5
 216.706963367 851.785753829 151.43176821 812.059060926 63 759 c 4
 55 753 50 746 50 737 c 4
 50 719.276167117 76.2025794959 717 95 717 c 4
 164.333333333 717 233.666666667 717 303 717 c 5
 308.964589887 520.168533733 313.146509208 269.993122473 318 71 c 4
 321 27 323 -17 323 -61 c 4
 323 -288.849884306 231.643026078 -412.049881746 96 -507 c 4
 77.5038686758 -517.5692179 67.1553304532 -562.239481161 101 -566 c 4
 110 -567 119 -565 126 -559 c 4
 278.336814224 -464.148776049 422.837221909 -354.701806082 515 -200 c 4
 583.799155873 -84.515702642 576 85.4172358592 576 265 c 6
 576 485 l 6
EndSplineSet
EndChar

StartChar: g
Encoding: 103 103 28
Width: 912
VWidth: 4237
Flags: HW
HStem: -623 168<250 507> 881 42G<556 611>
VStem: 42 287<61 669> 88 159<-448 -301> 565 287<-397 2 102 712>
LayerCount: 2
Fore
SplineSet
575 259 m 1xe8
 575 647 l 1
 574 703 574 748 574 785 c 0
 574 815 566 844 549 870 c 1
 535 883 514 896 487 908 c 1
 389 849 339 786 339 719 c 2
 339 268 l 2
 339 233 368 202 428 174 c 1
 575 259 l 1xe8
612 1081 m 1
 746.009826731 1041.58534508 844.178767289 955.449103096 859 846 c 1
 859 466.4 862 -8.1 862 -103 c 0
 862 -198 806 -286 695 -365 c 0
 601 -432 505 -467 410 -467 c 0
 299.539221162 -467 221.452739007 -431.955226427 155 -369 c 0
 117 -333 98 -295 98 -259 c 0
 98 -179.997546952 167.504736491 -124 245 -124 c 2
 254 -124 l 2
 275.636149132 -124 301.257004291 -128.128502145 317 -136 c 1
 319 -136 l 1
 282 -156 261 -179 257 -207 c 1
 257 -215 l 2xd8
 257 -266.280313078 317.353254935 -299 371 -299 c 2
 379 -299 l 1
 480.158997978 -294.065414733 575 -195.819213401 575 -101 c 2
 575 158 l 5
 476 69 381 -6 304 0 c 5
 164 44 83 116 60 217 c 1
 58 217 l 1
 54 234 51 253 50 275 c 1
 52 275 l 1
 52 704 l 2
 52 748 80 795 138 844 c 0
 249.462167679 936.885139733 455.287037808 1028.76234594 612 1081 c 1
EndSplineSet
EndChar

StartChar: s
Encoding: 115 115 29
Width: 788
VWidth: 4093
Flags: HW
HStem: -268 365<97 244> 702 111<305 503>
VStem: 38 206<-145 7> 510 176<-1 130> 520 206<539 690>
LayerCount: 2
Fore
SplineSet
256 217 m 4
 256 153.038790188 314.768407161 115.433241728 380 112 c 5
 380 112 409 114 427 120 c 28
 447 128 472 148 472 148 c 5
 504 187 l 5
 504 187 518 207 520 221 c 28
 524 240 522 267 522 267 c 6xf0
 522 274 521 282 519 288 c 4
 503 361 448 420 354 466 c 4
 260 512 200 543 174 561 c 4
 109 609 77 662 77 725 c 6
 77 739 l 5
 81.6800124449 806.86018045 115.004279235 850.004279235 159 894 c 5
 299 1010 l 5
 345 1058 412 1081 504 1081 c 4
 623.241360345 1081 738 999.638861579 738 882 c 4
 738 793.17116948 662.701308202 716 573 716 c 4
 487.039810153 716 504.73687065 721.26312935 451 775 c 5
 451 808 l 5
 469 805 l 5
 502.076336084 805 532 830.970698505 532 864 c 4xe8
 532 924.629012043 469.759430654 971.871497899 408 970 c 4
 348 968 314 951 280 892 c 4
 271 875 257 850 277 800 c 4
 279 794 283 786 287 779 c 4
 308 750 377 703 495 638 c 4
 613 573 678 510 688 447 c 4
 695 410 698 376 698 346 c 4
 698 269.967283984 655.801394498 180.49510092 614 140 c 5
 558 93 l 5
 512 45 376 0 284 0 c 4
 166.241418475 0 50 83.3234067013 50 199 c 4
 50 288.114273688 125.58453465 365 216 365 c 4
 300.90914927 365 284.432682534 359.567317466 338 306 c 5
 338 273 l 5
 319 276 l 5
 285.630274912 276 256 249.878646064 256 217 c 4
EndSplineSet
EndChar

StartChar: i
Encoding: 105 105 30
Width: 669
VWidth: 1749
Flags: HW
HStem: -396 46G<245.562 260.562>
VStem: 130.562 271<-230 477 828 1064>
LayerCount: 2
Fore
SplineSet
416.5625 1332 m 260
 416.5625 1245.8226858 367.382529472 1186 286.5625 1186 c 4
 211.030772927 1186 145.5625 1241.50382706 145.5625 1316 c 4
 145.5625 1346 167.5625 1396 213.5625 1465 c 4
 264.5625 1541 306.5625 1578 340.5625 1578 c 4
 386.284360469 1578 416.5625 1385.19877994 416.5625 1332 c 260
406.5625 314 m 4
 406.5625 248.969513569 419.16967441 151.151793603 494.5625 170 c 4
 518.350328707 175.097391866 600.117015597 226.779597705 616.5625 198 c 4
 623.5625 184 618.5625 168 598.5625 156 c 4
 515.844713908 103.544818576 427.288548715 57.3907189507 336.5625 14 c 4
 316.857761348 1.4606208577 298.779872758 0 270.5625 0 c 4
 115.871765718 7.73453671411 139.534980461 191.92673799 143.5625 349 c 4
 145.405047279 420.859343863 147.301685497 486.914750411 149.5625 557 c 4
 150.5625 588 151.5625 619 152.5625 650 c 4
 152.5625 768.286333593 141.646562865 818.826982457 72.5625 876 c 4
 31.1124269355 910.905324686 53.5525486972 928.203193777 88.5625 954 c 4
 131.416444128 985.166504821 164.249660977 1014.38101268 206.5625 1044 c 4
 293.494271829 1096.1590631 373.151296901 955.174865996 394.5625 894 c 5
 436.424761759 797.716797954 419.279726062 645.385686095 415.5625 519 c 4
 413.5625 451 409.5625 382 406.5625 314 c 4
EndSplineSet
EndChar

StartChar: j
Encoding: 106 106 31
Width: 598
VWidth: 1856
Flags: HW
VStem: 245.25 271<937 1174> 279.25 268<-364 565>
LayerCount: 2
Fore
SplineSet
388.25 1178 m 4
 314.566684269 1178 246.25 1235.60535938 246.25 1309 c 4x80
 246.25 1339 269.25 1389 315.25 1458 c 4
 366.25 1534 408.25 1571 442.25 1571 c 4
 488.862983193 1571 516.25 1380.3852783 516.25 1326 c 260
 516.25 1239.4501193 468.769331112 1178 388.25 1178 c 4
548.25 390 m 6x40
 548.25 213.460551248 553.438976576 41.4600678233 485.25 -73 c 4
 390.861869802 -231.437218546 252.075515268 -334.976565965 96.25 -432 c 5
 61.0238851271 -462.193812748 29.8862071467 -403.922167345 68.25 -382 c 5
 201.613582743 -288.64549208 298.399288352 -162.56868747 293.25 64 c 4
 289.75664808 217.707484461 290.735297291 383.264648761 282.25 536 c 4
 281.25 572 280.25 601 280.25 624 c 6
 280.25 682 l 6x40
 280.25 725.180113761 268.180550856 778.966277227 252.25 804 c 4
 245.25 812 236.25 822 227.25 831 c 6
 192.25 866 l 6
 157.228146347 901.021853653 170.211688536 919.966477469 202.25 948 c 4
 241.661186468 983.470067821 279.195066314 1001.15605305 320.25 1034 c 4
 368.648008281 1069.19855148 413.212159852 1029.03784015 440.25 1002 c 4
 505.179385452 937.070614548 548.25 847.700569793 548.25 724 c 6
 548.25 390 l 6x40
EndSplineSet
EndChar

StartChar: quotesingle
Encoding: 39 39 32
Width: 377
VWidth: 1492
Flags: HW
HStem: 399 500
VStem: 69 243<619 853> 120 192<532 829>
LayerCount: 2
Fore
SplineSet
220 1571 m 6
 297.077357294 1571 327 1466.90883858 327 1377 c 4
 327 1234.09203753 221.357526985 1153.42099301 114 1088 c 4
 97 1077 86 1072 82 1072 c 4
 61 1072 50 1079 50 1096 c 5xc0
 55 1112 70 1135 91 1169 c 4
 119 1218 134 1258 134 1290 c 4xa0
 134 1312.17017574 82 1418.97701401 82 1441 c 4
 82 1457 120 1500 196 1571 c 5
 220 1571 l 6
EndSplineSet
EndChar

StartChar: parenleft
Encoding: 40 40 34
Width: 740
VWidth: 1787
Flags: HW
VStem: 113 252<53 546>
LayerCount: 2
Fore
SplineSet
469 0 m 4
 401.085227228 0 338.942577615 67.6206477584 300 101 c 4
 154.56281771 240.113826538 50 449.515482157 50 717 c 4
 50 898.7354288 111.764727896 1051.73156289 181 1176 c 4
 274.603724997 1344.00668589 406.659706752 1495.05427887 543 1619 c 4
 575.070730551 1648.15520959 609.300020342 1670.98001221 646 1693 c 4
 666.786311582 1705.47178695 694.697293265 1681.8900753 689 1661 c 4
 680.733283678 1630.68870682 652.908841433 1613.90884143 634 1595 c 4
 423.740194534 1393.15058675 215.92265314 1075.6784487 330 665 c 4
 370.004657174 524.98369989 418.950372456 412.45061057 516 321 c 4
 560.564194554 280.48709586 576.584300777 265.332559379 622 229 c 4
 658.433005141 198.903169666 671.318784276 183.89088207 664 129 c 4
 654 58 612 -2 469 0 c 4
EndSplineSet
EndChar

StartChar: parenright
Encoding: 41 41 35
Width: 741
VWidth: 1787
Flags: HW
VStem: 368.857 252<53 546>
LayerCount: 2
Fore
SplineSet
272.857421875 0 m 4
 341.593204664 0 400.715131785 67.4494656373 439.857421875 101 c 4
 584.339986877 239.20071435 691.857421875 452.240407315 691.857421875 717 c 4
 691.857421875 896.642112203 627.732988876 1052.37718743 558.857421875 1176 c 4
 464.58818413 1345.20119595 334.10237325 1494.23186239 196.857421875 1619 c 4
 164.847233754 1648.10017102 132.654655958 1670.92165955 95.857421875 1693 c 4
 75.2595358355 1705.35873162 45.4372206664 1680.8740711 50.857421875 1661 c 4
 58.6081214297 1632.5807683 87.3035380594 1613.55388382 105.857421875 1595 c 4
 315.945367202 1393.31557249 523.991642494 1075.88319423 409.857421875 665 c 4
 369.852764701 524.98369989 320.907049419 412.45061057 223.857421875 321 c 4
 179.702529777 280.859189002 164.592584973 264.788130478 119.857421875 229 c 4
 82.7222153773 198.323090284 68.3485153713 185.316798777 75.857421875 129 c 4
 85.857421875 58 129.857421875 -2 272.857421875 0 c 4
EndSplineSet
EndChar

StartChar: asterisk
Encoding: 42 42 36
Width: 792
VWidth: 1645
Flags: HW
HStem: 257 190<50 225 529 728> 535 204<51 250 535 724>
VStem: 295 198<122 419 569 869>
LayerCount: 2
Fore
SplineSet
642 1210 m 4
 612 1212 576 1232 538 1272 c 6
 442 1376 l 5
 486 1234 l 6
 494 1206 498 1184 498 1170 c 4
 498 1112 458 1072 400 1072 c 4
 346 1072 300 1114 300 1168 c 4
 300 1178 306 1196 312 1222 c 6
 354 1378 l 5
 228 1252 l 6
 200 1224 172 1210 144 1210 c 4
 94 1210 50 1256 50 1306 c 4
 50 1326 58 1342 68 1354 c 4
 82 1382 112 1402 160 1412 c 5
 326 1452 l 5
 274 1470 222 1484 168 1490 c 4
 88 1500 50 1534 50 1590 c 4
 50 1650 92 1692 152 1692 c 4
 178 1692 212 1672 250 1632 c 5
 364 1518 l 5
 346 1578 l 6
 339.673845951 1601.19589818 300 1687.47904546 300 1732 c 4
 300 1798 334 1830 398 1830 c 4
 452 1830 498 1784 498 1730 c 5
 492 1706 488 1688 486 1678 c 5
 438 1522 l 5
 556 1642 l 6
 592 1678 622 1694 650 1692 c 4
 704 1690 742 1644 742 1590 c 4
 742 1586 738 1572 730 1546 c 4
 712.424018281 1493.27205484 555.801246844 1468.20859309 478 1452 c 5
 618 1416 l 5
 683.704214983 1409.4295785 740 1373.97702694 740 1316 c 4
 740 1262 696 1210 642 1210 c 4
EndSplineSet
EndChar

StartChar: plus
Encoding: 43 43 37
Width: 1188
VWidth: 1864
Flags: HW
HStem: 185 262<131 396> 185 230<200 420 679 909>
VStem: 423 250<-216 177 416 717>
LayerCount: 2
Fore
SplineSet
742 1232 m 5
 742 1142.84911426 712 974.981814944 712 872 c 4
 712 824 720 784 740 752 c 5
 850 756 982 784 1138 836 c 5
 1120 790 1098 734 1068 672 c 6
 958 450 l 5x60
 866 496 790 516 732 516 c 5
 718 492 710 458 710 406 c 6
 710 362 l 6
 710 324.243282921 720 224.096443548 720 192 c 4
 720 180 718 156 714 120 c 5
 634 108 518 66 366 0 c 5
 366 98.8989737971 372.706575945 84.538905056 408 140 c 4
 418 154 424 166 424 176 c 4
 448 270 460 354 460 432 c 6
 460 492 l 5
 432 512 396 522 350 522 c 4
 296 522 198 496 50 442 c 5
 96.2434947113 573.616100332 126.370368878 696.358022577 184 778 c 5
 198 782 214 784 236 784 c 4xa0
 278.546327795 784 375.051406902 752 408 752 c 4
 428 752 446 760 460 774 c 4
 460 778 460 784 462 792 c 5
 462 810 l 6
 462 855.916080914 436 1008.94929976 436 1056 c 5
 524 1084 626 1144 742 1232 c 5
EndSplineSet
EndChar

StartChar: comma
Encoding: 44 44 38
Width: 375
VWidth: 2125
Flags: HW
HStem: -234 500
VStem: 89 243<-14 219> 140 192<-101 196>
LayerCount: 2
Fore
SplineSet
219 204 m 6
 295.122239206 204 325 98.0429520792 325 9 c 4
 325 -133.336413285 221.409337676 -213.547434853 114 -279 c 4
 97 -290 86 -296 82 -296 c 4
 61 -296 50 -288 50 -271 c 5xc0
 55 -255 68 -232 89 -198 c 4
 117 -149 132 -110 132 -78 c 4xa0
 132 -54.9981544896 82 51.9362196905 82 73 c 4
 82 89 118 133 194 204 c 5
 219 204 l 6
EndSplineSet
EndChar

StartChar: period
Encoding: 46 46 39
Width: 371
VWidth: 2063
Flags: HW
HStem: -119 392<139 270>
VStem: 37 271<-80 157>
LayerCount: 2
Fore
SplineSet
321 110 m 260
 321 22.877183344 273.676192884 -37 192 -37 c 4
 116.553690748 -37 50 18.4945352788 50 92 c 4
 50 122 73 173 119 242 c 4
 170 318 212 355 246 355 c 4
 291.5065426 355 321 163.528952424 321 110 c 260
EndSplineSet
EndChar

StartChar: exclam
Encoding: 33 33 40
Width: 452
VWidth: 1720
Flags: HW
VStem: 51 271<-423 -186> 184 90<125 491>
LayerCount: 2
Fore
SplineSet
90 1557 m 4
 98.10195769 1603.58625672 154.582384745 1648.35632978 181 1671 c 4
 195 1683 216 1698 240 1717 c 4
 260 1733 280 1733 300 1717 c 4
 335.195519162 1688.32216957 404.566436905 1638.4616119 402 1582 c 4
 397.486516069 1482.70335352 375.147921757 1373.7203545 361 1257 c 4
 335.047135792 1042.88887028 297.610196871 793.88157497 272 589 c 4
 266.224139872 567.821846196 253.744105837 551 228 551 c 4
 173.778475118 551 180.330453081 595.365016108 174 665 c 4
 152.945775486 896.596469652 120.28861997 1170.68087034 100 1404 c 4
 92.9531785525 1485.03844665 78.5437807151 1491.12673911 90 1557 c 4
192 -37 m 4
 116.752644713 -37 50 18.154447534 50 93 c 4x80
 50 123 72 173 118 242 c 4
 169 318 211 355 245 355 c 4
 290.259960302 355 321 163.860830732 321 111 c 260
 321 23.4323494708 274.149304422 -37 192 -37 c 4
EndSplineSet
EndChar

StartChar: question
Encoding: 63 63 41
Width: 978
VWidth: 1750
Flags: HW
VStem: 254 271<-393 -156> 300 271<179 417>
LayerCount: 2
Fore
SplineSet
455 535 m 4
 536.623536968 535 584 594.904187468 584 682 c 260
 584 730 573 757 622 858 c 4x40
 680 979 905 1101 925 1207 c 4
 951 1345 825 1566 641 1599 c 260
 429 1637 280 1581 121 1409 c 4
 80 1365 50 1323 50 1267 c 4
 50 1178.41890466 126.928600575 1101 217 1101 c 4
 252 1101 276 1105 288 1112 c 4
 292 1114 310 1131 339 1160 c 5
 339 1193 l 5
 319 1190 l 5
 282.499463155 1190 261.928773813 1217.379873 256 1249 c 4
 219.303276635 1449.42056607 535.761370849 1503.52999365 675 1381 c 4
 738 1325 750 1279 750 1205 c 4
 750 1111 474 957 381 814 c 4
 346 759 313 695 313 665 c 4
 313 588.870529491 378.97699724 535 455 535 c 4
538 110 m 260
 538 23.9436851057 489.719403239 -37 409 -37 c 4
 332.877193228 -37 267 17.4284875632 267 92 c 4x80
 267 122 289 173 335 242 c 4
 386 318 428 355 462 355 c 4
 506.942645681 355 538 162.848150489 538 110 c 260
EndSplineSet
EndChar

StartChar: quotedbl
Encoding: 34 34 42
Width: 740
VWidth: 1461
Flags: HW
HStem: 394 572<103 180 461 539>
VStem: 101 218<521 817> 457 218<572 817>
LayerCount: 2
Fore
SplineSet
472 1324 m 6
 472 1352.39598348 416 1467.64289448 416 1496 c 4
 416 1516 458 1564 542 1644 c 5
 570 1644 l 6
 650 1644 690 1570 690 1422 c 6
 690 1360 l 6
 690 1215.73392767 595.184690866 1161.99043179 480 1090 c 4
 460 1078 448 1072 444 1072 c 4
 418 1072 406 1080 406 1098 c 5
 442 1166 468 1198 474 1258 c 5
 474 1254 474 1252 472 1250 c 5
 472 1324 l 6
216 1644 m 6
 302.58473883 1644 336 1523.08598386 336 1422 c 4
 336 1295.16612911 332.225127042 1263.48450734 254 1182 c 5
 216 1150 172 1120 124 1090 c 4
 104 1078 92 1072 88 1072 c 4
 62 1072 50 1080 50 1098 c 5
 81.712232222 1155.082018 116 1192.30096949 116 1258 c 6
 116 1324 l 6
 116 1349.91919995 58 1470.41400299 58 1496 c 4
 58 1514 102 1562 188 1644 c 5
 216 1644 l 6
EndSplineSet
EndChar

StartChar: hyphen
Encoding: 45 45 43
Width: 1068
VWidth: 1841
Flags: HW
HStem: 172 194<350 838> 269 160<72 447>
LayerCount: 2
Fore
SplineSet
880 536 m 4x80
 815 483 740 463 676 463 c 4x80
 665 463 657 465 654 466 c 6
 556 475 l 5
 541.941974958 475 399.979094111 523.002090589 350 528 c 4
 281.341602892 536.582299638 186.855867613 562 116 562 c 4
 84.1420211224 562 56.7120629796 557.373543265 50 535 c 5
 69 586 115 630 186 667 c 4
 258 704 324 722 384 722 c 4x40
 395 722 404 722 408 721 c 6
 554 706 l 5
 624.267151127 687.50864444 711.105387553 658 788 658 c 4
 870 657 948 666 1018 696 c 5
 1018 685 1018 678 1016 676 c 4
 959 593 921 569 880 536 c 4x80
EndSplineSet
EndChar

StartChar: asciitilde
Encoding: 126 126 44
Width: 1196
VWidth: 4323
Flags: HW
HStem: -65 146<610 900> 65 129<186 477>
LayerCount: 2
Fore
SplineSet
881 146 m 4
 926.74953934 146 978.487339872 148.794935949 1014 163 c 5
 1017 163 l 5
 1122 205 l 5
 1146 168 l 5x80
 850 40 l 5
 791.537489744 16.6149958976 722.549629414 0 646 0 c 4x80
 586.021029941 0 532.390532417 15.1442877437 492 40 c 5
 455 61 l 5
 394.355906397 94.0785965108 327.861450978 129 255 129 c 4
 204.550205582 129 168.78336351 109.192870076 131 93 c 4
 94 77 74 68 74 66 c 5
 50 103 l 5
 299 210 l 5
 345.67915019 232.632315243 424.671128595 260 490 260 c 4x40
 537.300633046 260 560.293319166 250.082672333 608 231 c 5
 677 200 l 5
 751 170 l 6
 790 154 832 146 881 146 c 4
EndSplineSet
EndChar

StartChar: numbersign
Encoding: 35 35 45
Width: 1555
VWidth: 1872
Flags: HW
HStem: 13 156<1013 1305> 64 155<167 503 585 847> 385 156<1050 1302> 437 155<164 499 582 882>
VStem: 459 155<-325 58 83 428> 511 155<592 812> 843 155<-330 14 88 385> 894 155<556 807>
LayerCount: 2
Fore
SplineSet
475.078304968 526.415332728 m 1
 375.430429625 534.817411139 250.955621945 550 152 550 c 0
 114.404453628 550 73.7058043508 551.264620634 56.870162053 535.184813713 c 1
 112.93462348 605.846160202 347.005644846 665.841038715 483.397014525 676.995515085 c 1
 488 761 l 1
 494.249081211 806.305838782 500.498162423 851.001505439 506.270616739 895.563626866 c 1
 396.629985528 903.109934332 258.665523377 923 149 923 c 0
 110.338178631 923 72.507339937 924.122725036 54.9678682015 907.56426129 c 1
 118.785001293 985.941801814 376.85958745 1046.64193821 524.392389016 1050.65106699 c 1
 526.38938472 1073.96646553 527 1080.67941317 527 1111 c 0
 527 1116 527 1121 527 1126 c 0
 527 1244 519 1357 496 1459 c 1
 505 1459 510 1458 512 1456 c 0
 578 1370 597 1312 624 1250 c 0
 651.882438741 1184.94097627 668.306152911 1113.71187008 676.196940915 1045.09007665 c 1
 805 1038 l 1
 838.60121466 1033.3653497 871.86680458 1028.7306994 904.991207673 1024.29048702 c 1
 907.705534213 1057.8754684 909 1068.50492516 909 1106 c 0
 909 1111 909 1115 909 1120 c 0
 909 1238 901 1350 878 1452 c 1
 887 1452 893 1451 895 1449 c 0
 961 1363 981 1305 1008 1243 c 0
 1040.47511603 1167.22472926 1056.80788776 1083.67721867 1062.54566443 1005.30128315 c 1
 1100.6654811 1001.53338141 1114.36772634 1000 1156 1000 c 0
 1279 999 1395 1006 1502 1030 c 1
 1502 1021 1501 1016 1499 1014 c 0
 1413 948 1355 929 1293 902 c 0
 1218.86935726 870.229724542 1137.30019115 853.336495835 1060.4116779 846.992036652 c 1
 1055 758 l 2
 1055 742.327326774 1049.47326456 701.477303227 1038.41979369 635.449929361 c 1
 1088.92966761 630.372806919 1109.33632254 628 1159 628 c 0
 1282 627 1398 635 1505 659 c 1
 1505 650 1504 644 1502 642 c 0
 1416 576 1358 558 1296 531 c 0
 1206.30274905 492.558321021 1105.71495679 475.897724667 1015.70588952 473.350615828 c 1
 1006.17964369 359.580668765 987 213.735250833 987 99 c 0
 987 60.3381786315 985.877274964 22.5073399369 1002.43573871 4.96786820148 c 1
 923.320941023 69.3852962017 862.067396092 331.299442713 858.289436065 479.443814267 c 1
 811 482 l 1
 791.450487916 482 732.727175002 490.599127011 634.830061257 507.797381034 c 1
 624.56046046 434.320105856 626.032719539 373.274844123 616 289 c 0
 610.04631212 212.79279514 603 173.680978248 603 106 c 0
 603 67.6559728608 603.132674471 25.9999323085 619.812272293 8.868117465 c 1
 536.448183451 74.8687359792 475 355.229519688 475 507 c 0
 475 514.700795864 475.078304968 521.120370128 475.078304968 526.415332728 c 1
56.870162053 535.184813713 m 1
 55.2270344967 533.615453647 53.945793026 531.891589219 53 530 c 1
 54.2163955584 531.737707941 55.506394571 533.465979541 56.870162053 535.184813713 c 1
54.9678682015 907.56426129 m 1
 52.7871784038 905.505540094 51.146938399 903.293878807 50 901 c 1
 51.5381531277 903.197361611 53.1939984579 905.385669976 54.9678682015 907.56426129 c 1
619.812272293 8.868117465 m 1
 621.427734631 7.20885776106 623.161025505 5.919484715 625 5 c 1
 623.263160755 6.2157874714 621.533863037 7.50510482527 619.812272293 8.868117465 c 1
661.860580301 674.714736037 m 1
 808 666 l 1
 827.314840638 663.33588405 846.518782622 660.560869447 865.648756813 657.785748767 c 1
 871 755 l 1
 875.349122955 786.531141425 879.993790762 817.766737999 884.451993083 848.867459833 c 1
 808 853 l 2
 791.805249568 853 748.727830128 858.901073685 678.767741679 870.703221054 c 1
 673 764 l 2
 673 751.153660444 669.2868601 721.39190579 661.860580301 674.714736037 c 1
1002.43573871 4.96786820148 m 1
 1004.49445991 2.78717840384 1006.70612119 1.14693839901 1009 0 c 1
 1006.80263839 1.53815312771 1004.61433002 3.19399845787 1002.43573871 4.96786820148 c 1
EndSplineSet
EndChar

StartChar: dollar
Encoding: 36 36 46
Width: 1146
VWidth: 3054
Flags: HW
HStem: -372 64<546 722> 231 43<332 464> 393 288<649 810> 961 99<393 557 699 784>
VStem: 34 150<-194 120> 237 102<682 904> 645 169<-72 168> 819 206<780 933> 970 111<-43 245>
LayerCount: 2
Fore
SplineSet
253 1092 m 4
 253 1275.19052147 397.248403716 1433 580 1433 c 6
 589 1433 l 5
 596 1467 601 1501 608 1536 c 5
 764 1690 l 5
 743 1589 731 1522 715 1428 c 5
 807 1428 l 6xfe80
 924.192695984 1428 1041 1343.29832972 1041 1228 c 4
 1041 1138.88572631 965.41546535 1062 875 1062 c 4
 840 1062 815 1066 803 1073 c 4
 799 1075 782 1091 753 1120 c 5
 753 1153 l 5
 772 1151 l 5
 803.715058382 1151 835 1177.53772431 835 1209 c 4xff
 835 1269.67134724 772.256574076 1321.85625982 711 1320 c 5
 697 1320 l 5
 686 1243 673 1141 664 1053 c 5
 910.05588169 970.98137277 1096 840.48900095 1096 551 c 4
 1096 315.311368232 908.016620577 100.781516518 733 27 c 4
 692 9 660 0 639 0 c 6
 550 0 l 5
 548 -17 545 -32 543 -48 c 5
 389 -202 l 5
 401 -145 412 -74 420 14 c 5
 246.280375937 49.3588615349 50 145.759681026 50 328 c 4
 50 420 100 498 201 562 c 4
 290 619 384 647 481 647 c 6
 483 647 l 5
 500 799 l 5
 345.353957597 845.915091516 253 910.109841218 253 1092 c 4
571 1330 m 5
 550 1332 529 1333 506 1333 c 4
 406 1333 356 1289 356 1200 c 4
 356 1166 415 1129 534 1092 c 5
 545 1173 558 1252 571 1330 c 5
829 418 m 4
 829 319.541178335 693.881800786 240 592 240 c 6
 578 240 l 5
 571 162 565 103 561 64 c 5
 701.991170766 64 772.519124587 94.3170807722 870 188 c 4
 947 262 986 341 986 422 c 4xfe80
 986 655.757969814 852.005837069 717.332036207 633 766 c 5
 617 620 l 5
 759 572 829 505 829 418 c 4
582 291 m 5
 618.18269842 310.73601732 660 378.756536307 660 432 c 4
 660 473 642 509 608 541 c 5
 603 488 594 405 582 291 c 5
426 85 m 5
 429.288959196 148.586544453 436.868433089 219.250114349 444 287 c 5
 410 309 393 332 393 359 c 4
 393 388.508173369 436.950820002 435.278688572 463 439 c 5
 479 603 l 5
 462 603 l 6
 298.037627334 603 200 493.586736577 200 329 c 4
 200 203.583836171 318.436100963 117.96313035 426 85 c 5
EndSplineSet
EndChar

StartChar: slash
Encoding: 47 47 47
Width: 955
VWidth: 1901
Flags: HW
VStem: -21.9735 839
LayerCount: 2
Fore
SplineSet
840.513671875 1799 m 4
 886.794329711 1817.85508282 918.826235417 1815.93769063 900.513671875 1761 c 4
 745.381948975 1281.5019474 557.98093088 772.620740015 391.513671875 297 c 4
 348.836838016 175.066188974 304.968680925 52.4227519545 268.513671875 -47 c 4
 233.670891821 -141.849790146 195.024951842 -200.909406845 108.513671875 -241 c 4
 20.249530028 -283.213285231 62.7209802755 -174.239869198 74.513671875 -131 c 4
 135.337262644 37.6472289505 206.717024988 257.029244402 272.513671875 448 c 4
 400.028081751 818.102799395 548.480798866 1224.4054901 672.513671875 1581 c 4
 711.919234136 1685.42473999 741.62971975 1754.60312354 840.513671875 1799 c 4
EndSplineSet
EndChar

StartChar: backslash
Encoding: 92 92 48
Width: 1044
VWidth: 1900
Flags: HW
VStem: 945.834 147<-780 -549>
LayerCount: 2
Fore
SplineSet
91.4169921875 1798 m 4
 128.416992188 1824 158.416992188 1812 181.416992188 1760 c 4
 360.987089204 1378.41354384 534.369072869 949.036412414 703.416992188 556 c 4
 791.294478894 351.684843407 885.896163415 130.297906178 963.416992188 -48 c 4
 995.48362325 -126.563246103 1019.82005021 -198.494548193 953.416992188 -242 c 5
 892.022970431 -290.238159952 852.300163689 -166.619147752 833.416992188 -132 c 5
 669.734599226 260.837743108 475.963433929 679.404234776 308.416992188 1075 c 4
 234.20445993 1250.2240345 156.512180437 1417.75523022 93.4169921875 1580 c 4
 70.4169921875 1633 57.4169921875 1678 51.4169921875 1714 c 4
 45.4169921875 1750 58.4169921875 1776 91.4169921875 1798 c 4
EndSplineSet
EndChar

StartChar: one
Encoding: 49 49 49
Width: 742
VWidth: 1758
Flags: HW
VStem: 226.35 276<-232 826>
LayerCount: 2
Fore
SplineSet
380.349609375 1520 m 6
 409.233553221 1548.88394385 473.78715438 1596.83321332 500.349609375 1526 c 4
 505.578374448 1512.05662647 508.349609375 1490.82144726 508.349609375 1472 c 6
 508.349609375 1418 l 6
 508.349609375 1355.51339937 502.954698372 1344.67480584 501.349609375 1258 c 4
 495.769594617 956.679203078 484.349609375 617.518250583 484.349609375 314 c 4
 484.349609375 273.123969607 485.660303607 220.702889229 502.349609375 194 c 4
 544.631784277 133.596892997 621.042049299 199.670348561 672.349609375 207 c 4
 704.755264563 211.629379313 693.056879179 169.624361882 670.349609375 156 c 4
 587.572625932 103.507278792 499.793036312 57.7338128831 408.349609375 14 c 4
 388.644870723 1.4606208577 370.566982133 0 342.349609375 0 c 4
 231.1020753 5.56237670375 206.67332416 96.6825879038 210.349609375 218 c 4
 218.201384578 557.589277546 222.298359921 883.49259057 224.349609375 1224 c 5
 214.349609375 1216 204.349609375 1207 196.349609375 1199 c 6
 125.349609375 1138 l 6
 102.229868802 1116.98205402 78.8521198172 1112.19698747 57.349609375 1138 c 4
 40.911746723 1163.83092702 54.7149345978 1189.36532522 71.349609375 1206 c 6
 380.349609375 1520 l 6
EndSplineSet
EndChar

StartChar: two
Encoding: 50 50 50
Width: 1285
VWidth: 1750
Flags: HW
VStem: 711.151 298<621 928>
LayerCount: 2
Fore
SplineSet
150.151367188 1246 m 4
 150.151367188 1157.75549115 225.771412032 1079 315.151367188 1079 c 4
 350.151367188 1079 376.151367188 1083 388.151367188 1090 c 4
 392.151367188 1092 410.151367188 1109 439.151367188 1138 c 5
 439.151367188 1171 l 5
 419.151367188 1169 l 5
 383.447297563 1169 362.000033658 1195.80711216 356.151367188 1227 c 4
 330.151367188 1369 517.151367188 1413 631.151367188 1347 c 4
 696.698986761 1308.76388858 731.151367188 1227.43019827 731.151367188 1129 c 4
 731.151367188 981.183343974 664.615262174 846.659309326 605.151367188 751 c 4
 582.151367188 714 562.151367188 685 543.151367188 663 c 4
 401.980812518 498.993032075 290.346231242 347.973405953 141.151367188 187 c 4
 107.891452299 149.58259575 55.0397980732 107.661170629 50.1513671875 49 c 4
 47.3163006212 14.9792012042 85.8943180808 -7.29362475186 112.151367188 0 c 4
 130.151367188 5 148.151367188 12 167.151367188 19 c 4
 297.345726445 64.2849945243 454.090105381 33.1428680268 571.151367188 -1 c 4
 775.522494879 -55.6908651569 898.398507648 50.2059503838 1012.15136719 145 c 4
 1086.55014467 206.998981231 1146.06536911 277.778252166 1211.15136719 351 c 4
 1235.15136719 377 1241.15136719 397 1229.15136719 409 c 260
 1217.15136719 421 1201.15136719 421 1183.15136719 407 c 4
 1135.53580467 361.368419252 1099.21398534 334.718848463 1049.15136719 293 c 4
 961.443243451 225.39165462 894.684183421 203.54015513 763.151367188 243 c 4
 670.495784648 267.171021532 597.827513496 302.913404698 485.151367188 305 c 4
 442.267943531 305 402.477979352 296.465322433 365.151367188 289 c 5
 459.546475115 391.603378182 554.809428638 502.950706366 651.151367188 607 c 4
 786.438304681 757.602439851 930.094714787 906.898863811 1004.15136719 1116 c 4
 1021.15136719 1164 1029.15136719 1211 1029.15136719 1257 c 4
 1029.15136719 1355.31268448 994.965155636 1446.35670834 933.151367188 1491 c 4
 875.151367188 1531 817.151367188 1570 741.151367188 1579 c 4
 575.151367188 1599 379.151367188 1559 220.151367188 1387 c 4
 179.151367188 1343 150.151367188 1302 150.151367188 1246 c 4
EndSplineSet
EndChar

StartChar: three
Encoding: 51 51 51
Width: 1544
VWidth: 1803
Flags: HW
HStem: -588 73<449 818> -302 43<571 710> 130 52<391 634>
VStem: 33 180<-364 -17> 445 108<-243 -102> 762 202<-218 47> 998 253<814 1059> 1229 247<-55 340>
LayerCount: 2
Fore
SplineSet
547 1107 m 4
 631.90914927 1107 615.432682534 1112.43268253 669 1166 c 5
 669 1199 l 5
 649 1197 l 5
 612.686932104 1197 592.917602799 1223.43945174 587 1255 c 4
 561 1397 707 1447 857 1449 c 28xfe
 939 1451 1017 1338 1017 1262 c 4xfe
 1017 1134.21784058 835.938841945 974.745587361 736 928 c 5
 812 928 912 887 1037 804 c 4
 1173 714 1240 632 1240 558 c 4
 1240 552.370474464 1246 501.426746603 1246 496 c 4
 1246 151.740768667 1027.54109395 -95.9023141709 739 -161 c 5
 702 -165 672 -168 647 -168 c 4
 550 -168 459 -140 374 -83 c 4
 278 -20 230 59 230 151 c 4
 230 345.003098027 349.427428593 476 543 476 c 4
 656.326875993 476 780 382.501767222 780 273 c 4
 780 201.672498519 709.703168888 88 640 88 c 4
 593 88 570 109 570 151 c 4
 570 171 593 197 640 229 c 5
 606 266 576 283 551 283 c 4
 513.307609061 283 462 222.023305024 462 184 c 4
 462 107.416642487 610.940161215 44 697 44 c 4
 820.899974822 44 982 140.950306896 982 257 c 4
 982 333 928 397 824 454 c 4
 733 503 648 528 565 528 c 4
 449 528 340 494 233 427 c 4
 112 350 50 258 50 147 c 4
 50 27 124 -70 270 -147 c 4
 391 -209 516 -241 647 -241 c 6
 755 -241 l 6
 778 -241 815 -231 866 -209 c 5
 1039 -174 1186 -75 1308 86 c 4
 1426 242 1488 413 1494 600 c 4xfd
 1495 635 1482 681 1456 738 c 4
 1405.77658848 846.817391629 1359.59757407 863.972988099 1274 919 c 4
 1257 930 1220 947 1160 970 c 5
 1103 987 1056 1000 1017 1010 c 5
 1113 1083 1168 1127 1181 1139 c 4
 1240 1197 1270 1257 1270 1319 c 4
 1270 1411 1259 1449 1165 1519 c 28
 1099 1569 1047 1598 971 1607 c 4
 805 1627 610 1587 451 1415 c 4
 410 1371 382 1329 382 1273 c 4
 382 1184.17116948 457.298691798 1107 547 1107 c 4
EndSplineSet
EndChar

StartChar: four
Encoding: 52 52 52
Width: 1354
VWidth: 1758
Flags: HW
HStem: 0 312<307.379 714.379>
VStem: 711.379 274<-232 0 286 796>
LayerCount: 2
Fore
SplineSet
708.379882812 218 m 4
 708.379882812 277.342659326 710.421144637 341.196592908 712.379882812 398 c 5
 611.035314178 398 535.786792047 434.824136346 446.379882812 446 c 4
 343.94201459 460.938855782 235.101402604 454.217515051 144.379882812 432 c 5
 81.1845973299 412.043594058 30.5635297701 438.595846785 57.3798828125 511 c 4
 67.3798828125 538 88.3798828125 568 118.379882812 602 c 5
 844.379882812 1520 l 5
 874.497843533 1556.14155286 963.160499246 1588.70974126 991.379882812 1526 c 4
 1000.37988281 1506 1006.37988281 1488 1006.37988281 1472 c 6
 1006.37988281 1418 l 6
 1006.37988281 1400 1005.37988281 1385 1004.37988281 1366 c 4
 1004.37988281 1149.74555378 989.598748355 883.320587958 986.379882812 658 c 5
 1097.245173 691.741610056 1178.7325186 769.504609295 1254.37988281 842 c 4
 1272.37988281 856 1286.37988281 856 1298.37988281 844 c 260
 1310.37988281 832 1306.37988281 812 1282.37988281 786 c 4
 1187.90991696 679.72128842 1099.23754339 572.631960423 984.379882812 488 c 5
 983.379882812 442 982.379882812 406 982.379882812 377 c 6
 982.379882812 314 l 6
 982.379882812 248.969513569 994.987057223 151.151793603 1070.37988281 170 c 4
 1093.5544783 174.965984747 1175.53837981 227.472630262 1192.37988281 198 c 4
 1199.37988281 184 1192.37988281 168 1172.37988281 156 c 4
 1090.0851723 103.813110406 1002.97482504 57.3280158491 912.379882812 14 c 4
 893.117447536 1.74208664209 864.409837036 0 836.379882812 0 c 4
 728.054281778 5.41628005171 704.769173319 98.84658671 708.379882812 218 c 4
302.379882812 678 m 5
 370.019224018 698.108993331 452.792943933 712 534.379882812 712 c 4
 600.379882812 712 660.379882812 703 716.379882812 684 c 5
 718.416987646 859.19101571 720.394502143 1017.30112044 722.379882812 1194 c 5
 302.379882812 678 l 5
EndSplineSet
EndChar

StartChar: five
Encoding: 53 53 53
Width: 1509
VWidth: 3106
Flags: HW
HStem: -581 73<461 830> -297 43<584 722> 136 52<403 646>
VStem: 45 180<-359 -10> 457 108<-238 -97> 774 202<-213 52> 1241 213<-151 350>
LayerCount: 2
Fore
SplineSet
734 1323 m 5
 806.761222278 1272.06714441 888.627870879 1231 1008 1231 c 4
 1078.75590809 1231 1126.04721596 1270.2743532 1168 1309 c 4
 1230.72061761 1364.48362327 1276.83871149 1406.64326578 1338 1475 c 4
 1362 1501 1368 1521 1356 1533 c 260
 1344 1545 1328 1545 1310 1531 c 4
 1268.95857208 1491.66863158 1222.60474654 1434.50915232 1138 1459 c 4
 1031.65342902 1485.58664275 931.912659571 1535.8496829 838 1581 c 4
 797 1601 782 1613 749 1608 c 4
 689.444434843 1598.97642952 651.538663386 1538.53892579 630 1489 c 4
 620 1466 609 1430 598 1381 c 5
 522 814 l 5
 509.908779671 773.695932236 534.785305582 748.392652791 578 770 c 4
 619.020071895 792.561039542 657.659364161 817.027225433 698 842 c 4
 727 861 716 850 758 854 c 4
 959 875 1205 819 1238 618 c 4
 1242 593 1246 556 1246 539 c 4
 1246 195.643202227 1026.75127436 -53.0805051744 739 -118 c 5
 702 -122 672 -124 647 -124 c 4
 550 -124 459 -96 374 -39 c 4
 278 24 230 102 230 194 c 4
 230 388.189335056 348.582229691 520 542 520 c 4
 654.159567977 520 779 425.580808811 779 317 c 4
 779 244.039822134 710.126428932 131 639 131 c 4
 592 131 569 152 569 194 c 4
 569 214 592 240 639 272 c 5
 605 309 576 327 551 327 c 4
 512.259643781 327 462 266.756239698 462 228 c 4
 462 149.195564114 611.047204603 88 697 88 c 4
 820.51309015 88 981 184.073069524 981 300 c 4
 981 376 928 441 824 498 c 4
 733 547 647 571 564 571 c 4
 448 571 338 538 231 471 c 4
 110 394 50 301 50 190 c 4
 50 70 122 -26 268 -103 c 4
 389 -165 516 -198 647 -198 c 6
 755 -198 l 6
 778 -198 814 -188 865 -166 c 5
 1194.01305905 -99.4580330013 1452.66543642 154.149227784 1459 530 c 5
 1429 823 1240 968 892 968 c 4
 861 968 817 966 758 963 c 4
 699 960 703 1019 704 1019 c 6
 734 1323 l 5
EndSplineSet
EndChar

StartChar: six
Encoding: 54 54 54
Width: 1482
VWidth: 1789
Flags: HW
HStem: -474 73<658.142 1015.14> -188 43<752.142 893.142> 244 52<830.142 1073.14>
VStem: 500.142 202<-104 160> 912.142 108<-129 11> 1110.14 206<867 1032> 1251.14 180<-250 97>
LayerCount: 2
Fore
SplineSet
785.142578125 246 m 4
 661.629487975 246 501.142578125 342.073069524 501.142578125 458 c 4
 501.142578125 534 554.142578125 599 658.142578125 656 c 4
 749.142578125 705 835.142578125 729 918.142578125 729 c 4
 1034.14257812 729 1144.14257812 696 1251.14257812 629 c 4
 1372.14257812 552 1432.14257812 460 1432.14257812 349 c 4
 1432.14257812 229 1360.14257812 131 1214.14257812 54 c 4
 1093.14257812 -8 966.142578125 -39 835.142578125 -39 c 6
 728.142578125 -39 l 6
 487.142578125 -39 253.142578125 116 162.142578125 261 c 4xfa
 8.142578125 505 25.142578125 758 138.142578125 979 c 4
 249.142578125 1196 475.142578125 1384 693.142578125 1501 c 4
 853.142578125 1587 1088.14257812 1690 1247.14257812 1518 c 4
 1288.14257812 1474 1317.14257812 1432 1317.14257812 1376 c 4
 1317.14257812 1287.17116948 1241.84388633 1210 1152.14257812 1210 c 4
 1066.18238828 1210 1083.87944877 1215.26312935 1030.14257812 1269 c 5
 1030.14257812 1301 l 5
 1048.14257812 1299 l 5
 1081.21891421 1299 1111.14257812 1324.97069851 1111.14257812 1358 c 4xfc
 1109.14257812 1515 885.142578125 1511 760.142578125 1441 c 4
 589.142578125 1345 475.142578125 1160 395.142578125 953 c 4
 309.142578125 731 274.142578125 454 412.142578125 275 c 4
 540.142578125 107 582.142578125 92 743.142578125 40 c 5
 780.142578125 36 810.142578125 34 835.142578125 34 c 4
 932.142578125 34 1023.14257812 62 1108.14257812 119 c 4
 1204.14257812 182 1252.14257812 261 1252.14257812 353 c 4
 1252.14257812 545.634835428 1132.16161311 678 940.142578125 678 c 4
 826.087559908 678 703.142578125 585.495158284 703.142578125 475 c 4
 703.142578125 402.424293501 772.47366461 290 843.142578125 290 c 4
 890.142578125 290 913.142578125 311 913.142578125 353 c 4
 913.142578125 373 890.142578125 397 843.142578125 429 c 5
 877.142578125 466 906.142578125 485 931.142578125 485 c 4
 968.834969064 485 1020.14257812 424.023305024 1020.14257812 386 c 4
 1020.14257812 308.312946289 872.616481118 246 785.142578125 246 c 4
EndSplineSet
EndChar

StartChar: seven
Encoding: 55 55 55
Width: 1152
VWidth: 1766
Flags: HW
HStem: -413 227<489 614> 732 46G<31 40> 750 277<534 702> 893 262<158 391>
VStem: 229 240<-173 149>
LayerCount: 2
Fore
SplineSet
1062 1574 m 4
 1100.13556442 1574 1102 1558.68977403 1102 1517 c 4xa8
 1102 1489 1051 1401 950 1255 c 4
 811 1056 718 914 669 827 c 4
 567 648 516 506 516 404 c 260
 516 302 549 243 616 227 c 260
 683 211 717 195 717 177 c 5
 682.040316613 77.1151903235 623.095853123 0 516 0 c 4
 488 0 455 10 417 31 c 4
 323 85 276 170 276 287 c 4
 276 400 315 523 393 661 c 4
 452.568447537 769.777165067 530.032987133 868.040748811 615 973 c 4
 700 1080 745 1143 749 1163 c 5
 723.666666667 1163 698.333333333 1163 673 1163 c 4xa8
 641.035488762 1163 595.786603758 1163.16401887 573 1170 c 4
 498.81866529 1204.6179562 307.447068883 1306 259 1306 c 4
 208 1306 168 1280 138 1226 c 260
 108 1172 89 1145 82 1145 c 4
 58.0477175693 1145 50 1184.8821848 50 1212 c 4
 50 1272 80 1344 139 1427 c 4
 207 1520 280 1567 356 1567 c 6
 427 1567 l 6xd8
 441 1567 495 1545 588 1502 c 4
 678 1460 732 1440 749 1440 c 6
 844 1440 l 6
 873 1440 904 1454 936 1482 c 4
 1007 1544 1049 1574 1062 1574 c 4
EndSplineSet
EndChar

StartChar: eight
Encoding: 56 56 56
Width: 1094
VWidth: 1756
Flags: HW
HStem: -404 230<425 698> 976 202<460 670>
VStem: 57 232<-37 252> 125 240<686 905>
LayerCount: 2
Fore
SplineSet
274 826 m 5xe0
 249.719105576 843.343496017 230.505943622 853.494056378 212 872 c 4
 149 935 118 1008 118 1092 c 4xd0
 118 1213.18968909 140.488401485 1277.03916221 214 1338 c 4
 301.968072364 1414.49397597 366.651721685 1462.26355649 464 1522 c 4
 522.014963994 1557.16058424 576.75111708 1582 660 1582 c 4
 768.641700289 1582 844.097239155 1529.17615444 908 1472 c 4
 965.856924562 1418.96448582 1010 1371.62952252 1010 1278 c 4
 1010 1173.61988681 961.833255819 1108.89119313 918 1046 c 4
 877.858360616 988.956617717 855.00657929 955.00657929 806 906 c 5
 891.099621536 859.04848467 970.298506857 802.024876698 1017 719 c 4
 1035 687 1044 648 1044 606 c 4
 1044 553 1036 508 1018 470 c 4
 960.278447065 350.576097375 882.439463044 252.61796034 798 162 c 4
 722.274067609 81.3354198443 628.886757897 -7.02721760147 486 0 c 4
 316.134055585 6.53330555444 212.352994306 86.3733333902 130 192 c 4
 78.2780476909 257.514472925 50 323.513560465 50 428 c 4
 50 592.029791545 120.31231311 680.31231311 206 766 c 4
 229.197617067 789.197617067 250.650631396 802.650631396 274 826 c 5xe0
386 772 m 5
 335.313943095 738.209295396 280 660.458602917 280 578 c 4xe0
 280 417.500947497 372.314280458 312.183675972 484 259 c 4
 526 239 574 230 626 230 c 4
 722 230 780 276 802 372 c 4
 841.119651141 574.71091955 662.975627409 633.512186295 532 699 c 6
 386 772 l 5
484 1380 m 4
 413.175024309 1380 358 1318.9281248 358 1250 c 4xd0
 354.65479893 1163.02477217 387.890131878 1109.96042747 446 1078 c 4
 528.96139124 1032.74833205 609.241643818 990.637407291 698 956 c 5
 748.081389463 1011.64598829 803.482168249 1092.58509843 767 1188 c 4
 738.445875724 1262.68001734 668.02866243 1315.98566879 598 1351 c 4
 558 1371 520 1380 484 1380 c 4
EndSplineSet
EndChar

StartChar: nine
Encoding: 57 57 57
Width: 1317
VWidth: 1809
Flags: HW
HStem: 203 267<352 677> 726 42G<689 709> 1013 214<368 769>
VStem: 21 206<-392 -238> 704 138<502 722>
LayerCount: 2
Fore
SplineSet
319 146 m 5
 286.725289483 146 256 118.995286244 256 87 c 4
 258 -70 598 -84 721 -12 c 4
 1148 238 1025 1057 889 1239 c 4
 800 1358 675 1394 564 1394 c 4
 487 1394 419 1367 360 1310 c 4
 301 1251 271 1187 271 1119 c 4
 271 1067 296 1013 344 957 c 4
 404 887 479 852 571 852 c 4
 645.152055724 852 734 918.369210657 734 990 c 4
 734 1039 720 1072 695 1090 c 4
 682 1100 677 1110 677 1119 c 4
 677 1141.9651561 700.560840079 1152 725 1152 c 4
 750 1152 780 1132 814 1092 c 4
 852 1048 871 1003 871 957 c 6
 871 893 l 6
 871 831 842 767 785 702 c 4
 716 624 634 586 538 586 c 4
 413 586 314 642 242 756 c 4
 191 836 185 885 167 973 c 4
 154 1039 142 1190 166 1252 c 28
 227 1412 238 1421 382 1531 c 4
 504 1624 614 1610 721 1610 c 4
 837 1610 1014 1473 1109 1314 c 4
 1261 1060 1309 759 1229 467 c 4
 1168 247 995 27 777 -90 c 4
 617 -176 279 -244 120 -72 c 4
 79 -28 50 13 50 69 c 4
 50 157.82883052 125.298691798 235 215 235 c 4
 299.279914267 235 284.111790332 228.888209668 337 176 c 5
 337 144 l 5
 319 146 l 5
EndSplineSet
EndChar

StartChar: colon
Encoding: 58 58 58
Width: 371
VWidth: 1893
Flags: HW
VStem: 48 271<-251 -13 436 672>
LayerCount: 2
Fore
SplineSet
193 686 m 4
 118.199443621 686 50 742.059030638 50 816 c 4
 50 846 72 896 118 965 c 4
 169 1041 211 1079 245 1079 c 4
 289.942645681 1079 321 886.848150489 321 834 c 260
 321 747.766563844 273.559063373 686 193 686 c 4
193 0 m 4
 118.199443621 0 50 56.059030638 50 130 c 4
 50 160 72 210 118 279 c 4
 169 355 211 392 245 392 c 4
 290.259960302 392 321 200.860830732 321 148 c 260
 321 61.0061520618 274.567520929 0 193 0 c 4
EndSplineSet
EndChar

StartChar: semicolon
Encoding: 59 59 59
Width: 375
VWidth: 1936
Flags: HW
VStem: 52 271<-399 -118 480 717> 84 243<-204 30> 135 192<-291 6>
LayerCount: 2
Fore
SplineSet
193 568 m 4
 117.371229368 568 50 623.321289402 50 698 c 4x80
 50 728 72 778 118 847 c 4
 169 923 211 961 245 961 c 4
 289.942645681 961 321 768.848150489 321 716 c 260
 321 629.766563844 273.559063373 568 193 568 c 4
219 204 m 6
 295.122239206 204 325 98.0429520792 325 9 c 4
 325 -133.336413285 221.409337676 -213.547434853 114 -279 c 4
 97 -290 86 -296 82 -296 c 4x40
 61 -296 50 -288 50 -271 c 5
 55 -255 68 -232 89 -198 c 4
 117 -149 133 -110 133 -78 c 4x20
 133 -55.4198620836 82 51.457909392 82 73 c 4
 82 89 119 133 195 204 c 5
 219 204 l 6
EndSplineSet
EndChar

StartChar: less
Encoding: 60 60 60
Width: 1192
VWidth: 1873
Flags: HW
HStem: 752 67<1034.17 1118.17>
LayerCount: 2
Fore
SplineSet
115.166992188 466 m 6
 85.1669921875 484 47.1669921875 530 50.1669921875 552 c 4
 53.1669921875 574 76.1669921875 596 86.1669921875 602 c 4
 246.166992188 696 383.166992188 761 492.166992188 818 c 4
 697.565772686 925.410371454 833.807349735 990.365918599 1008.16699219 1090 c 4
 1042.67789146 1105.33817745 1075.38109259 1116.9746354 1107.16699219 1092 c 4
 1131.85964139 1071.42279233 1123.85881816 1053.61509558 1101.16699219 1040 c 4
 979.166992188 976 865.166992188 912 756.166992188 852 c 4
 647.166992188 792 460.166992188 690 457.166992188 658 c 4
 454.166992188 626 529.166992188 589 607.166992188 543 c 4
 743.024104243 462.879139044 890.785285249 372.55246139 1017.16699219 300 c 4
 1071.16699219 269 1102.16699219 250 1110.16699219 244 c 4
 1139.25944215 227.837527796 1156.57709747 188.95926318 1127.16699219 162 c 4
 1059.57365624 104.968122797 1005.86084881 71.7905334773 930.166992188 20 c 4
 892.166992188 -3 851.166992188 -2 811.166992188 24 c 6
 115.166992188 466 l 6
EndSplineSet
EndChar

StartChar: greater
Encoding: 62 62 61
Width: 1193
VWidth: 1873
Flags: HW
HStem: 752 67<17.8505 99.8505>
LayerCount: 2
Fore
SplineSet
1076.85058594 466 m 6
 1106.85058594 484 1145.85058594 530 1142.85058594 552 c 4
 1139.85058594 574 1115.85058594 596 1105.85058594 602 c 4
 945.850585938 696 808.850585938 761 699.850585938 818 c 4
 494.644415594 925.309648712 358.340672617 990.29137904 183.850585938 1090 c 4
 149.339686668 1105.33817745 116.636485537 1116.9746354 84.8505859375 1092 c 4
 60.1579367342 1071.42279233 68.1587599685 1053.61509558 90.8505859375 1040 c 4
 212.850585938 976 327.850585938 912 436.850585938 852 c 4
 545.850585938 792 732.850585938 690 735.850585938 658 c 4
 738.850585938 626 664.850585938 589 586.850585938 543 c 4
 450.528453822 462.604896445 301.715698909 372.829972261 174.850585938 300 c 4
 120.850585938 269 89.8505859375 250 81.8505859375 244 c 4
 52.7581359704 227.837527796 35.4404806501 188.95926318 64.8505859375 162 c 4
 132.443921882 104.968122797 186.156729317 71.7905334773 261.850585938 20 c 4
 299.850585938 -3 340.850585938 -2 380.850585938 24 c 6
 1076.85058594 466 l 6
EndSplineSet
EndChar

StartChar: equal
Encoding: 61 61 62
Width: 1557
VWidth: 1860
Flags: HW
HStem: -6 156<809 1318> 44 155<180 989> 365 156<806 1315> 417 155<177 985>
LayerCount: 2
Fore
SplineSet
50 538 m 5
 110.200853004 624.001218577 400.668044859 688 552 688 c 4x10
 570 688 581 688 587 687 c 6
 805 674 l 5
 914.76331021 658.860233074 1046.33661316 636 1156 636 c 4
 1279 635 1395 643 1502 667 c 5
 1502 658 1501 653 1499 651 c 4
 1413 585 1355 566 1293 539 c 4x20
 1195 497 1084 481 988 481 c 4x20
 970 481 960 481 956 482 c 6
 808 490 l 5
 784.379948283 490 572.247509324 527.83946362 500 533 c 4
 394.258320945 541.811806588 252.403062602 560 149 560 c 4
 112.498304523 560 60.0306059774 558.061211955 50 538 c 5
53 166 m 5
 113.892964518 252.989949312 401.5706971 316 555 316 c 4x40
 573 316 584 315 590 314 c 6
 808 303 l 5
 916.382972276 288.050624514 1047.38800558 265 1159 265 c 4
 1282 264 1400 272 1507 296 c 5
 1507 287 1504 281 1502 279 c 4
 1416 213 1360 194 1298 167 c 4
 1200 125 1087 110 991 110 c 4x80
 973 110 963 110 959 111 c 6
 811 119 l 5
 787.84121923 119 574.936932074 154.861647709 503 160 c 4
 396.974016146 168.835498655 257.911472326 187 152 187 c 4
 112.720779044 187 63.9062474448 187.81249489 53 166 c 5
EndSplineSet
EndChar

StartChar: underscore
Encoding: 95 95 63
Width: 2036
VWidth: 2148
Flags: HW
HStem: -111 156<802 1739> -59 155<223 1301>
LayerCount: 2
Fore
SplineSet
50 -54 m 5
 135.377563976 38.3000691628 529.680755897 96 718 96 c 4x40
 741 96 758 96 766 95 c 6
 1056 83 l 5
 1202.50573639 67.9737706264 1378.28088334 44 1524 44 c 4
 1688 43 1844 52 1986 76 c 5
 1986 67 1985 61 1982 59 c 4
 1868 -7 1791 -26 1708 -53 c 4x80
 1578 -95 1430 -111 1302 -111 c 4x80
 1279 -111 1264 -111 1258 -110 c 6
 1062 -101 l 5
 1033.44110983 -101 744.781568729 -63.7390784364 650 -59 c 4
 508.797924677 -51.1554402598 319.405132537 -33 182 -33 c 4
 131.113273151 -33 67.9109608268 -30.1187188976 50 -54 c 5
EndSplineSet
EndChar

StartChar: grave
Encoding: 96 96 64
Width: 537
VWidth: 1472
Flags: HW
HStem: 509 42<459.936 485.936>
VStem: 68.9362 429
LayerCount: 2
Fore
SplineSet
487.936523438 1090 m 5
 455.936523438 1072 l 5
 350.086731313 1100.49802096 91.0887608571 1198.74309935 58.9365234375 1253 c 4
 31.2364509108 1302.86013055 66.6613201796 1367.1727981 98.9365234375 1386 c 4
 132.936523438 1406 186.936523438 1381 260.936523438 1311 c 4
 378.936523438 1196 449.936523438 1130 474.936523438 1113 c 5
 487.936523438 1090 l 5
EndSplineSet
EndChar

StartChar: acute
Encoding: 180 180 65
Width: 538
VWidth: 1472
Flags: HW
HStem: 509 42<31 56>
LayerCount: 2
Fore
SplineSet
50 1020 m 5
 82 1001 l 5
 187.849792124 1029.49802096 446.84776258 1127.74309935 479 1182 c 4
 506.984347547 1232.37182558 472.771671809 1296.29985811 439 1316 c 4
 405 1336 351 1310 277 1240 c 4
 159 1125 88 1060 63 1043 c 5
 50 1020 l 5
EndSplineSet
EndChar

StartChar: questiondown
Encoding: 191 191 66
Width: 978
VWidth: 1755
Flags: HW
VStem: 429 271<934 1171> 383 271<361 599>
LayerCount: 2
Fore
SplineSet
522 732 m 0
 440.913085938 732 393 670.771484375 393 584 c 256
 393 536 403 509 354 408 c 0x40
 296 287 71 166 51 60 c 0
 25 -78 152 -300 336 -333 c 256
 548 -371 697 -314 856 -142 c 0
 897 -98 926 -56 926 0 c 0
 926 88.578125 850.911132812 166 761 166 c 0
 675.040039062 166 692.737304688 160.737304688 639 107 c 1
 639 74 l 1
 657 76 l 1
 694.853515625 76 713.815429688 50.9873046875 720 18 c 0
 756.696289062 -182.420898438 440.23828125 -236.530273438 301 -114 c 0
 238 -58 227 -12 227 62 c 0
 227 156 502 310 595 453 c 0
 630 508 664 572 664 602 c 0
 664 675.78515625 596.185546875 732 522 732 c 0
439 1156 m 256
 439 1243.56738281 485.850585938 1304 568 1304 c 0
 643.499023438 1304 710 1248.49609375 710 1174 c 0x80
 710 1144 688 1094 642 1025 c 0
 591 949 548 912 514 912 c 0
 469.63671875 912 439 1104.06640625 439 1156 c 256
EndSplineSet
EndChar

StartChar: brokenbar
Encoding: 166 166 67
Width: 364
VWidth: 1846
Flags: HW
VStem: 40 264<-753 172 447 1350>
LayerCount: 2
Fore
SplineSet
50 1584 m 4
 50 1655.82311502 57.5681750299 1682.82480523 102 1718 c 260
 153.602350138 1758.85186053 180.053336701 1767.99555719 244 1799 c 4
 290 1821 314 1808 314 1760 c 6
 314 942 l 6
 314 919.686953898 298.610477891 871.034168155 286 860 c 4
 223.325818668 805.412809808 193.145085846 788.897319552 120 749 c 4
 77.8413300607 727.92066503 50 762.567438884 50 798 c 4
 50 1060 50 1322 50 1584 c 4
50 406 m 4
 50 477.289493243 57.7924127255 504.002326741 102 539 c 260
 154.047562149 580.204320035 179.30546485 588.632952655 244 620 c 4
 290 642 314 630 314 582 c 6
 314 -258 l 6
 314 -280.313046102 298.610477891 -328.965831845 286 -340 c 4
 223.325818668 -394.587190192 193.145085846 -411.102680448 120 -451 c 4
 77.8413300607 -472.07933497 50 -437.432561116 50 -402 c 4
 50 -132.666666667 50 136.666666667 50 406 c 4
EndSplineSet
EndChar

StartChar: section
Encoding: 167 167 68
Width: 833
VWidth: 1875
Flags: HW
HStem: -800 130<236 460> 1202 130<317 542>
VStem: 37 250<223 440> 529 236<-503 -279 196 371>
LayerCount: 2
Fore
SplineSet
238 1033.28027344 m 5
 163.95365816 1128.92346498 74 1206.73065084 74 1376.28027344 c 4
 75 1422.28027344 85 1464.28027344 105 1502.28027344 c 4
 125 1540.28027344 171 1611.28027344 208 1648.28027344 c 4
 232 1672.28027344 246 1682.28027344 280 1708.28027344 c 4
 378 1781.28027344 426 1813.28027344 544 1811.28027344 c 4
 658.985033028 1809.29777287 762 1756.37226316 762 1648.28027344 c 4
 762 1564.28027344 708 1507.28027344 624 1509.28027344 c 4
 616 1509.28027344 606 1522.28027344 598 1548.28027344 c 4
 566.558681991 1632.12378813 558.177844173 1681.28027344 468 1681.28027344 c 4
 374 1683.28027344 273 1611.28027344 290 1518.28027344 c 4
 300.503357161 1453.15945904 366.918931068 1333.43341613 424 1284.28027344 c 4
 496.748510881 1218.80661364 596.327196833 1137.61918541 666 1074.28027344 c 4
 724.666627207 1018.05808903 790.868458187 947.372917155 783 833.280273438 c 4
 777.651995109 755.734202521 723.143398481 682.571960414 684 633.280273438 c 4
 657 599.280273438 627 565.280273438 594 532.280273438 c 5
 663.185683951 472.118809132 735.863783544 386.802544453 767 290.280273438 c 4
 777 259.280273438 782 227.280273438 782 196.280273438 c 4
 778.673418078 29.951177313 677.237940673 -84.8627301355 594 -163.719726562 c 4
 570 -187.719726562 566 -191.719726562 532 -217.719726562 c 4
 434 -290.719726562 384 -322.719726562 266 -320.719726562 c 4
 151.735385942 -318.74964701 50 -265.600608679 50 -157.719726562 c 4
 50 -73.7197265625 102 -16.7197265625 186 -18.7197265625 c 4
 194 -18.7197265625 204 -30.7197265625 212 -56.7197265625 c 4
 243.17696332 -139.858295417 254.911947336 -189.719726562 344 -189.719726562 c 4
 438 -189.719726562 462 -157.719726562 486 -129.719726562 c 4
 509 -102.719726562 546 -25.7197265625 546 7.2802734375 c 4
 546 136.433100761 470.766324188 227.298991906 404 285.280273438 c 4
 292.903836204 381.758520944 132.646664257 469.163612796 73 618.280273438 c 4
 61 648.280273438 54 679.280273438 54 712.280273438 c 4
 54 788.280273438 72 849.280273438 107 898.280273438 c 4
 142 947.280273438 185 992.280273438 238 1033.28027344 c 5
558 706.280273438 m 4
 558 759.413284096 507.167892319 817.99857762 477 852.280273438 c 4
 440.978524547 893.213768271 385.950965707 943.299887155 336 963.280273438 c 5
 270.895250972 844.908002477 307.166448273 740.407004997 420 663.280273438 c 6
 510 601.280273438 l 5
 541 631.280273438 558 666.280273438 558 706.280273438 c 4
EndSplineSet
EndChar

StartChar: guillemotleft
Encoding: 171 171 69
Width: 783
VWidth: 1926
Flags: HW
HStem: 458 34<378.054 401.054 697.054 719.054>
VStem: 48.0544 677
LayerCount: 2
Fore
SplineSet
391.0546875 334 m 5
 369.336055465 351.374905628 363.26027241 384.20558491 381.0546875 402 c 4
 482.166388254 491.877067337 561.011805595 548.717838571 656.0546875 620 c 4
 669.47656398 630.06640736 701.962696536 670.910389156 721.0546875 648 c 4
 729.09064534 637.9550527 726.474416056 628.419728556 719.0546875 621 c 4
 679.0546875 589 640.0546875 558 604.0546875 528 c 4
 568.0546875 498 505.0546875 447 504.0546875 430 c 4
 503.0546875 413 529.0546875 396 555.0546875 373 c 4
 609.383320124 324.940055756 674.560549846 270.494137654 722.0546875 223 c 4
 753.523088647 196.776332378 710.667621518 160.612934018 696.0546875 146 c 4
 682.921494657 132.866807157 653.946606713 84.4843822647 623.0546875 113 c 6
 391.0546875 334 l 5
72.0546875 334 m 5
 50.3360554647 351.374905628 44.2602724097 384.20558491 62.0546875 402 c 4
 163.173436711 491.883332632 242.183247131 548.846419724 337.0546875 620 c 4
 350.775289053 630.290451165 383.478833657 671.491024612 403.0546875 648 c 4
 411.09064534 637.9550527 408.474416056 628.419728556 401.0546875 621 c 4
 361.0546875 589 321.0546875 558 285.0546875 528 c 4
 249.0546875 498 186.0546875 447 185.0546875 430 c 4
 184.0546875 413 209.0546875 396 235.0546875 373 c 4
 289.776818025 324.591961459 356.195434313 270.859253187 404.0546875 223 c 4
 433.935589777 198.099248103 390.331684247 158.276996747 378.0546875 146 c 4
 364.860565514 132.805878014 335.400949525 84.0649889002 304.0546875 113 c 6
 72.0546875 334 l 5
EndSplineSet
EndChar

StartChar: guillemotright
Encoding: 187 187 70
Width: 783
VWidth: 1926
Flags: HW
HStem: 458 34<49.2548 72.2548 369.255 392.255>
LayerCount: 2
Fore
SplineSet
392.254882812 335 m 5
 413.973514848 352.374905628 420.049297903 385.20558491 402.254882812 403 c 4
 300.987562856 493.015395517 221.359660457 549.671416767 126.254882812 621 c 4
 112.724598169 631.147713483 81.0685384925 672.776386816 61.2548828125 649 c 4
 53.2189249726 638.9550527 55.8351542565 629.419728556 63.2548828125 622 c 4
 103.254882812 590 142.254882812 559 178.254882812 529 c 4
 214.254882812 499 278.254882812 448 279.254882812 431 c 4
 280.254882812 414 255.254882812 397 229.254882812 374 c 4
 174.532752288 325.591961459 108.114135999 271.859253187 60.2548828125 224 c 4
 30.3739805357 199.099248103 73.9778860654 159.276996747 86.2548828125 147 c 4
 99.4490047988 133.805878014 128.908620788 85.0649889002 160.254882812 114 c 6
 392.254882812 335 l 5
711.254882812 335 m 5
 732.973514848 352.374905628 739.049297903 385.20558491 721.254882812 403 c 4
 620.143182059 492.877067337 541.297764718 549.717838571 446.254882812 621 c 4
 432.833006332 631.06640736 400.346873776 671.910389156 381.254882812 649 c 4
 373.218924973 638.9550527 375.835154256 629.419728556 383.254882812 622 c 4
 423.254882812 590 462.254882812 559 498.254882812 529 c 4
 534.254882812 499 596.254882812 448 597.254882812 431 c 4
 598.254882812 414 573.254882812 397 547.254882812 374 c 4
 492.808579254 325.835962237 426.874277866 271.619395053 379.254882812 224 c 5
 341.292286221 192.36450284 420.642276697 130.612606116 439.254882812 112 c 4
 451.254882812 101 466.254882812 102 479.254882812 114 c 6
 711.254882812 335 l 5
EndSplineSet
EndChar

StartChar: cent
Encoding: 162 162 71
Width: 846
VWidth: 1857
Flags: HW
HStem: -283 114<336 525> 691 117<388 542>
VStem: 26 214<-116 562> 307 131<-480 709 731 1048> 563 206<-147 2 518 667>
LayerCount: 2
Fore
SplineSet
795 210 m 0
 795 91.1739820254 680.521463175 0 561 0 c 1
 465 1.54340836013 l 1
 465 -81 l 2
 465 -129.702230065 431.264635679 -163.668513019 410 -183 c 0
 395.540185256 -196.145286131 333 -258.06898098 333 -182 c 0
 333 -120.111468382 333 -58.2229367631 333 3.66559485531 c 1
 250 5 l 1
 160 11 64 83 56 149 c 0
 53 177 52 186 52 219 c 0
 52 289 52 289 52 348 c 0
 52 420.674944717 50 487.096428874 50 556 c 0
 50 603 50 601 50 649 c 0
 50 767.621388711 69.9626930692 817.319098668 142 867 c 0
 186.235264185 900.176448139 222.882115478 926.498289537 266 956 c 0
 288.344305695 971.28820916 310.18503401 988.45668934 333 1003.66666667 c 1
 333 1209 l 2
 333 1299.85306591 374.951133546 1322.73308641 431 1359 c 0
 454 1373 465 1365 465 1332 c 2
 465 1081.67460476 l 1
 493.078230695 1090.8653486 524.557704859 1096 562 1096 c 0
 681.546916938 1096 796 1004.82807955 796 886 c 0
 796 793.603962822 721.973250812 711 630 711 c 0
 595 711 570 715 558 722 c 0
 554 724 537 742 508 773 c 1
 508 807 l 1
 527 805 l 1
 559.292342644 805 590 833.655218005 590 866 c 0
 590 930.906482353 531.20981656 979 466 979 c 0
 465.666654799 979 465.333320279 978.997052345 465 978.997052345 c 2
 465 117.003068626 l 1
 529.591701073 117.399984498 589 164.410213974 589 229 c 0
 589 260.817585865 557.988453955 291 526 291 c 1
 506 289 l 1
 506 323 l 1
 535 354 553 372 557 374 c 0
 569 381 593 385 628 385 c 0
 720.669622358 385 795 302.652062038 795 210 c 0
333 917.973848637 m 1
 291.619665529 872.590114416 263.943677175 802.069054216 265 707 c 2
 266 527 l 1
 265 456 265 445 265 377 c 0
 263.93435864 281.092277594 291.542402864 213.574342895 333 171.420862705 c 1
 333 917.973848637 l 1
EndSplineSet
EndChar

StartChar: currency
Encoding: 164 164 72
Width: 1530
VWidth: 1873
Flags: HW
HStem: -218 183<562.455 751.455> 649 180<684.455 959.455>
VStem: 983.455 301<169 539>
LayerCount: 2
Fore
SplineSet
967.454101562 317 m 5
 882.365793022 280.533582054 805.475537572 238.630891247 718.454101562 201 c 4
 614.993929273 156.933630321 504.856382007 147.846905387 402.454101562 197 c 5
 344.807909682 136.151241904 284.91489855 66.6828217575 217.454101562 27 c 4
 183.454101562 7 143.454101562 -1 97.4541015625 0 c 4
 48.9924545724 -2.01923529126 35.8001473178 32.3460457553 67.4541015625 64 c 4
 135.473575552 141.736541703 205.987641239 214.962969648 280.454101562 296 c 5
 232.517216477 352.273734665 214.322229645 414.866586888 200.454101562 506 c 4
 175.365602245 667.681440045 252.006845871 809.206752498 358.454101562 900 c 5
 273.832994956 982.13225053 177.78205051 1053.24248679 121.454101562 1149 c 4
 101.454101562 1183 94.4541015625 1223 95.4541015625 1269 c 4
 93.4287811418 1317.6076901 128.551470947 1330.90263062 160.454101562 1299 c 4
 220.587610177 1246.38317996 258.533477343 1205.63722586 328.454101562 1143 c 4
 376.454101562 1100 428.454101562 1053 485.454101562 1001 c 5
 594.553212169 1078.1676636 692.114589382 1134.39896466 817.454101562 1183 c 4
 866.454101562 1202 915.454101562 1211 965.454101562 1211 c 4
 1031.45410156 1211 1093.45410156 1193 1152.45410156 1157 c 5
 1192.71664628 1203.97296884 1245.07505046 1250.94007924 1287.45410156 1280 c 4
 1322.45410156 1304 1367.45410156 1316 1420.45410156 1316 c 4
 1483.45410156 1316 1496.45410156 1296 1460.45410156 1256 c 4
 1401.52630791 1188.2330373 1330.97082468 1117.92733431 1260.45410156 1041 c 5
 1314.1374959 946.264598219 1340.37635203 829.569820237 1310.45410156 699 c 4
 1290.68615367 612.739863727 1254.17904195 528.624016669 1197.45410156 474 c 4
 1170.45410156 448 1141.45410156 425 1110.45410156 403 c 5
 1156.3713842 360.045122698 1199.15439273 317.03615188 1240.45410156 287 c 5
 1280.45410156 249 1311.45410156 212 1335.45410156 177 c 4
 1359.45410156 142 1370.45410156 98 1370.45410156 45 c 4
 1370.45410156 -18 1350.45410156 -32 1310.45410156 4 c 4
 1210.90614824 97.1255047171 1087.08633698 208.103990837 967.454101562 317 c 5
487.454101562 684 m 4
 487.454101562 500.623216424 589.649005733 375.873653787 748.454101562 347 c 5
 946.346447846 319.29507152 1030.93281502 523.947017304 1021.45410156 723 c 4
 1015.10150405 856.404547667 949.72145631 962.608567785 852.454101562 1008 c 4
 822.454101562 1022 790.454101562 1031 757.454101562 1031 c 4
 631.147145144 1031 548.075198217 922.322924412 513.454101562 830 c 4
 495.454101562 782 487.454101562 734 487.454101562 684 c 4
EndSplineSet
EndChar

StartChar: degree
Encoding: 176 176 73
Width: 438
VWidth: 1441
Flags: HW
HStem: 544 55<144.435 222.435> 804 54<174.435 270.435>
VStem: 30.4353 86<612 760> 277.435 90<631 793>
LayerCount: 2
Fore
SplineSet
281.435546875 1315 m 4
 320.699190312 1315 354.340701142 1288.1422686 370.435546875 1264 c 5
 399.283463737 1212.07374965 388.16298312 1125.13650671 351.435546875 1093 c 4
 343.435546875 1086 333.435546875 1078 324.435546875 1072 c 6
 282.435546875 1046 l 5
 222.803602351 1016.18402774 130.056732284 966.171752789 75.435546875 1039 c 5
 27.5536246314 1093.72219685 55.3536517096 1186.73448387 99.435546875 1222 c 6
 137.435546875 1252 l 5
 177.443712395 1278.67211035 222.019990313 1315 281.435546875 1315 c 4
219.435546875 1260 m 4
 167.238513368 1260 138.435546875 1207.59131924 138.435546875 1156 c 4
 138.435546875 1096.11008125 193.782078223 1025.86880995 257.435546875 1063 c 4
 327.838146183 1104.06818293 302.359125637 1260 219.435546875 1260 c 4
EndSplineSet
EndChar

StartChar: dieresis
Encoding: 168 168 74
Width: 790
VWidth: 1453
Flags: HW
HStem: 493 392<122 253 544 672>
VStem: 20 271<532 770> 439 271<530 767>
LayerCount: 2
Fore
SplineSet
612 1001 m 4
 538.027294933 1001 469 1058.18600665 469 1132 c 4
 469 1162 492 1212 538 1281 c 4
 589 1357 630 1394 664 1394 c 4
 709.491594677 1394 740 1202.03030588 740 1149 c 260
 740 1062.4501193 692.519331112 1001 612 1001 c 4
321 1151 m 260
 321 1064.64441271 272.661090272 1004 192 1004 c 4
 115.995229895 1004 50 1059.82694881 50 1135 c 4
 50 1165 72 1215 118 1284 c 4
 169 1360 211 1397 245 1397 c 4
 290.1744536 1397 321 1204.0177351 321 1151 c 260
EndSplineSet
EndChar

StartChar: macron
Encoding: 175 175 75
Width: 766
VWidth: 1451
Flags: HW
HStem: 603 153<236 581> 634 124<66 338>
LayerCount: 2
Fore
SplineSet
538 1137 m 4
 604.141918307 1137 663.458847638 1149.63481648 716 1177 c 5
 717 1170 716 1164 715 1162 c 4
 680 1104 655 1086 628 1061 c 4x80
 581.882479329 1018.17658795 530.303720266 1001 475 1001 c 6x80
 406 1001 l 5
 396.444540795 999.938282311 296.439087079 1024 259 1024 c 4
 216.09222188 1024 56.8016403612 1057.61148253 50 1010 c 5
 71.1730898501 1084.10581448 197.398891679 1155 289 1155 c 6x40
 391 1154 l 5
 435.237102019 1147.680414 492.677183991 1137 538 1137 c 4
EndSplineSet
EndChar

StartChar: ordmasculine
Encoding: 186 186 76
Width: 821
VWidth: 1501
Flags: HW
HStem: 254 153<310 656> 287 124<140 412> 496 63<309 479> 961 67<344 634>
VStem: 50 192<589 891>
LayerCount: 2
Fore
SplineSet
560 1136 m 4
 624.269189988 1136 685.940886659 1150.4067118 737 1177 c 5
 738 1170 738 1165 737 1163 c 4
 702 1105 676 1087 649 1062 c 4xb8
 604.643689098 1020.81199702 548.126819963 1000 496 1000 c 5xb8
 426 1002 l 5
 416.786877659 1000.97631974 317.21700605 1024 281 1024 c 4
 237.524760511 1024 77.87314094 1058.11198658 71 1010 c 5
 91.7953999473 1082.78389982 220.443410415 1156 310 1156 c 6x78
 412 1155 l 5
 456.586721705 1148.63046833 514.461038223 1136 560 1136 c 4
545 1774 m 4
 666.901156205 1774 745.996165476 1705.51853353 767 1604 c 5
 787.866608847 1481.78129104 729.527999589 1393.52799959 669 1333 c 4
 639.325524754 1303.32552475 597.710326248 1285.61598324 551 1275 c 5
 452 1255 l 6
 448 1255 444 1255 440 1255 c 4
 364.158574369 1242.35976239 262.361284554 1231.99188513 190 1253 c 4
 159 1262 132 1280 109 1304 c 4
 90 1325 72 1347 60 1384 c 4
 53 1404 50 1424 50 1446 c 4
 50 1583.27802443 118.637317778 1669.2694344 229 1709 c 5
 321 1740 l 5
 393.908097204 1757.59850622 461.306403108 1774 545 1774 c 4
242 1476 m 4
 242 1382.27080924 314.995045329 1285.78482952 417 1304 c 4
 510.565718412 1320.708164 577 1438.75225205 577 1547 c 4
 577 1656.00054322 486.963697086 1742.76164315 375 1693 c 4
 300.626065464 1659.65996038 242 1579.71054872 242 1476 c 4
EndSplineSet
EndChar

StartChar: asciicircum
Encoding: 94 94 77
Width: 718
VWidth: 1418
Flags: HW
VStem: 59 609
LayerCount: 2
Fore
SplineSet
419 1357 m 6
 659 1113 l 5
 668 1087 l 5
 632 1076 l 5
 565.617049868 1109.19147507 494.045366246 1160.33844598 432 1204 c 4
 405 1223 395 1237 359 1237 c 28
 323 1237 311 1222 284 1203 c 4
 221.563844808 1159.06344635 152.788660275 1106.39433014 86 1073 c 5
 50 1085 l 5
 59 1110 l 5
 306 1357 l 5
 345 1390 384 1388 419 1357 c 6
EndSplineSet
EndChar

StartChar: bracketleft
Encoding: 91 91 78
Width: 694
VWidth: 1793
Flags: HW
HStem: -673 93<298 466> -409 42G<502 534> 1096 42G<418 434> 1276 93<298 466>
VStem: 55 209<-526 1221> 484 164<-564 -413 1109 1259>
LayerCount: 2
Fore
SplineSet
479 1552 m 4
 479 1602.40530969 430.807676162 1641 380 1641 c 4
 298 1641 259 1568 260 1424 c 6
 260 2 l 6
 259 -142 298 -214 380 -214 c 4
 431.393929346 -214 479 -174.922979258 479 -124 c 4
 479 -97.9168240722 455.243242869 -76 429 -76 c 5
 414 -78 l 5
 414 -50 l 5
 457.534225059 -4.65184889719 441.232162954 0 511 0 c 4
 584.959825966 0 644 -65.9673402285 644 -140 c 4
 644 -237.736743956 554.468894427 -307 456 -307 c 4
 383 -307 313 -276 263 -245 c 5
 144 -176 l 5
 115.513245074 -161.756622537 64.0727723125 -129.309282328 56 -95 c 4
 52 -78 50 -58 50 -35 c 6
 50 1463 l 6
 50 1517.04093402 55.5168756812 1543.16181298 91 1568 c 260
 111 1582 128 1595 144 1603 c 6
 263 1672 l 5
 313 1703 383 1735 456 1735 c 4
 553.35814681 1735 644 1663.0081063 644 1566 c 4
 644 1493.25553089 583.408053673 1427 511 1427 c 4
 442.138961435 1427 457.04164768 1431.16495033 414 1476 c 5
 414 1504 l 5
 429 1502 l 5
 455.239489923 1502 479 1525.75675713 479 1552 c 4
EndSplineSet
EndChar

StartChar: bracketright
Encoding: 93 93 79
Width: 694
VWidth: 1793
Flags: HW
HStem: -673 93<227 396> 1136 46G<253 276> 1276 93<227 396>
VStem: 45 164<-564 -413 1109 1259> 430 209<-526 -363 1059 1221>
LayerCount: 2
Fore
SplineSet
215 1552 m 4
 215 1602.90050653 263.72891771 1641 315 1641 c 4
 397 1641 436 1568 435 1424 c 6
 435 2 l 6
 436 -142 397 -214 315 -214 c 4
 263.143982946 -214 215 -175.425655829 215 -124 c 4
 215 -97.9168240722 238.756757131 -76 265 -76 c 5
 281 -78 l 5
 281 -50 l 5
 237.875701266 -5.0788554852 251.525591828 0 184 0 c 4
 109.529951435 0 50 -65.4122711352 50 -140 c 4
 50 -237.241828536 138.996019747 -307 237 -307 c 4
 310 -307 382 -276 432 -245 c 5
 551 -176 l 5
 579.800931935 -161.599534033 629.8074778 -129.81821935 638 -95 c 4
 642 -78 644 -58 644 -35 c 6
 644 1463 l 6
 644 1516.13973456 638.947134879 1543.53700558 604 1568 c 260
 584 1582 567 1595 551 1603 c 6
 432 1672 l 5
 382 1703 310 1735 237 1735 c 4
 140.100911984 1735 50 1662.51037113 50 1566 c 4
 50 1492.71033543 111.081756807 1427 184 1427 c 4
 212 1427 230 1430 240 1436 c 4
 243 1438 257 1451 281 1476 c 5
 281 1504 l 5
 265 1502 l 5
 238.760510077 1502 215 1525.75675713 215 1552 c 4
EndSplineSet
EndChar

StartChar: braceleft
Encoding: 123 123 80
Width: 836
VWidth: 1793
Flags: HW
HStem: -673 93<450 617> -409 42G<654 686> 1096 42G<570 585> 1276 93<450 617>
VStem: 207 209<-526 209 419 1221> 636 164<-564 -413 1109 1259>
LayerCount: 2
Fore
SplineSet
621 1552 m 4
 621 1602.90050653 572.27108229 1641 521 1641 c 4
 439 1641 400 1568 401 1424 c 6
 402 967 l 6
 400 809 277 701 177 689 c 5
 277 669 398 533 400 385 c 6
 401 2 l 6
 400 -142 439 -214 521 -214 c 4
 572.856017054 -214 621 -175.425655829 621 -124 c 4
 621 -97.9168240722 597.243242869 -76 571 -76 c 5
 555 -78 l 5
 555 -50 l 5
 598.124298734 -5.0788554852 584.474408172 0 652 0 c 4
 726.470048565 0 786 -65.4122711352 786 -140 c 4
 786 -237.241828536 697.003980253 -307 599 -307 c 4
 526 -307 454 -276 404 -245 c 5
 285 -176 l 5
 256.199068065 -161.599534033 206.1925222 -129.81821935 198 -95 c 4
 194 -78 192 -58 192 -35 c 6
 190 389 l 6
 188 527 104 676 50 689 c 5
 104 701 190 813 193 967 c 6
 192 1463 l 6
 192 1516.13973456 197.052865121 1543.53700558 232 1568 c 260
 252 1582 269 1595 285 1603 c 6
 404 1672 l 5
 454 1703 526 1735 599 1735 c 4
 695.899088016 1735 786 1662.51037113 786 1566 c 4
 786 1492.71033543 724.918243193 1427 652 1427 c 4
 624 1427 606 1430 596 1436 c 4
 593 1438 579 1451 555 1476 c 5
 555 1504 l 5
 571 1502 l 5
 597.239489923 1502 621 1525.75675713 621 1552 c 4
EndSplineSet
EndChar

StartChar: braceright
Encoding: 125 125 81
Width: 835
VWidth: 1793
Flags: HW
HStem: -673 93<217 386> 1136 46G<243 266> 1276 93<217 386>
VStem: 35 164<-564 -413 1109 1259> 420 209<-526 -363 19 209 419 601 1059 1221>
LayerCount: 2
Fore
SplineSet
215 1552 m 4
 215 1603.41230386 262.406276271 1641 314 1641 c 4
 396 1641 435 1568 434 1424 c 6
 434 967 l 6
 436 809 559 701 659 689 c 5
 559 669 438 533 436 385 c 6
 434 2 l 6
 435 -142 396 -214 314 -214 c 4
 261.827653242 -214 215 -175.93955692 215 -124 c 4
 215 -97.9168240722 238.756757131 -76 265 -76 c 5
 280 -78 l 5
 280 -50 l 5
 236.465774941 -4.65184889719 252.767837046 0 183 0 c 4
 109.040174034 0 50 -65.9673402285 50 -140 c 4
 50 -237.736743956 139.531105573 -307 238 -307 c 4
 311 -307 381 -276 431 -245 c 5
 550 -176 l 5
 578.486754926 -161.756622537 629.927227687 -129.309282328 638 -95 c 4
 642 -78 644 -58 644 -35 c 6
 646 389 l 6
 648 527 731 676 785 689 c 5
 731 701 646 813 643 967 c 6
 644 1463 l 6
 644 1517.04093402 638.483124319 1543.16181298 603 1568 c 260
 583 1582 566 1595 550 1603 c 6
 431 1672 l 5
 381 1703 311 1735 238 1735 c 4
 140.64185319 1735 50 1663.0081063 50 1566 c 4
 50 1493.25553089 110.591946327 1427 183 1427 c 4
 251.861038565 1427 236.95835232 1431.16495033 280 1476 c 5
 280 1504 l 5
 265 1502 l 5
 238.760510077 1502 215 1525.75675713 215 1552 c 4
EndSplineSet
EndChar

StartChar: exclamdown
Encoding: 161 161 82
Width: 452
VWidth: 1726
Flags: HW
VStem: 55 271<1023 1260> 187 90<346 712>
LayerCount: 2
Fore
SplineSet
90 113 m 4
 98.1695714131 66.0249643748 154.398520362 22.8012682614 181 0 c 4
 195 -12 216 -28 240 -47 c 4
 260 -63 280 -63 300 -47 c 4
 335.596131437 -17.9957447552 404.604322128 31.7049131814 402 89 c 4
 397.472986497 188.594297068 375.121569722 296.497049792 361 413 c 4
 334.780149858 629.313763669 297.998754132 874.009966945 272 1082 c 4
 266.328345458 1102.79606665 253.106623827 1121 228 1121 c 4
 173.753918522 1121 180.346372365 1074.81009601 174 1005 c 4
 152.978445727 773.762903001 120.280229934 500.222644238 100 267 c 4
 93.0250404662 186.787965361 78.526983011 178.969847687 90 113 c 4
192 1708 m 4
 116.624122845 1708 50 1653.21081338 50 1578 c 4x80
 50 1548 72 1497 118 1428 c 4
 169 1352 211 1315 245 1315 c 4
 289.942645681 1315 321 1507.15184951 321 1560 c 260
 321 1646.80396851 273.137358357 1708 192 1708 c 4
EndSplineSet
EndChar

StartChar: sterling
Encoding: 163 163 83
Width: 1329
VWidth: 1762
Flags: HW
HStem: -404 174<693.512 993.512> 339 182<668.512 808.512 851.512 865.512> 1045 117<649.512 841.512>
VStem: 318.512 287<642 969> 393.512 282<-72 337> 879.512 206<873 1022>
LayerCount: 2
Fore
SplineSet
905.512695312 1243 m 4
 905.512695312 1307.87924372 845.619834798 1355 780.512695312 1355 c 4
 678.512695312 1355 628.512695312 1265 630.512695312 1085 c 6
 630.512695312 1074 l 5xf4
 644.512695312 952 l 6
 650.512695312 913 655.512695312 872 662.512695312 831 c 5
 970.512695312 831 l 6
 1008.5609812 831 1019.2729886 798.020179229 986.512695312 778 c 4
 903.304376559 725.994800779 824.726192359 649 694.512695312 649 c 5
 700.487384912 603.194046402 707.071507369 560.426338649 702.512695312 508 c 4
 695.512695312 410 647.512695312 269 631.512695312 210 c 4
 627.512695312 193 695.512695312 157 793.512695312 111 c 4xec
 824.512695312 97 856.512695312 82 891.512695312 79 c 4
 1015.25627964 68.1724363715 1081.63994827 115.642408589 1146.51269531 167 c 4
 1170.51269531 186 1195.51269531 205 1221.51269531 225 c 4
 1253.80116014 247.461540747 1296.03166389 231.278452864 1272.51269531 196 c 4
 1250.64464868 163.197930056 1215.08661736 139.573922048 1187.51269531 112 c 4
 1131.12622564 55.6135303312 1076.34814072 7.61468506307 1003.51269531 -39 c 4
 933.512695312 -85 850.512695312 -97 767.512695312 -94 c 4
 641.231770205 -94 526.175056321 -36.4086003878 431.512695312 0 c 4
 366.856444656 23.5113638751 301.020234888 45.2778594993 229.512695312 60 c 4
 177.515853223 71.5548537977 131.006659942 36.5501907818 95.5126953125 5 c 4
 86.5126953125 -3 75.5126953125 -2 64.5126953125 6 c 4
 -0.82120645511 59.4550105371 182.55963741 174.730826422 216.512695312 191 c 4
 276.512695312 220 319.512695312 234 385.512695312 238 c 4
 406.512695312 239 425.512695312 306 419.512695312 388 c 4xec
 416.512695312 425 423.512695312 504 417.512695312 540 c 4
 411.512695312 576 402.512695312 612 394.512695312 649 c 5
 134.512695312 649 l 6
 92.0604410347 649 101.206250389 687.601819115 126.512695312 705 c 4
 189.266932577 746.836158176 218.662482708 769.133230252 288.512695312 803 c 4
 304.676497158 811.081900923 333.513860933 817.300349686 352.512695312 823 c 5
 346.934336681 856.470151792 344.512695312 889.938038796 344.512695312 928 c 6
 344.512695312 1065 l 6
 346.512695312 1096 367.512695312 1195 376.512695312 1218 c 4
 408.512695312 1299 468.512695312 1345 519.512695312 1381 c 4
 652.512695312 1476 772.512695312 1473 876.512695312 1472 c 4
 997.839745087 1472 1111.51269531 1383.70020512 1111.51269531 1263 c 4
 1111.51269531 1170.60396282 1037.48594612 1088 945.512695312 1088 c 4
 910.512695312 1088 885.512695312 1092 873.512695312 1099 c 4
 869.512695312 1101 852.512695312 1118 823.512695312 1149 c 5
 823.512695312 1184 l 5
 842.512695312 1181 l 5
 875.347588302 1181 905.512695312 1210.14123214 905.512695312 1243 c 4
EndSplineSet
EndChar

StartChar: yen
Encoding: 165 165 84
Width: 1244
VWidth: 1730
Flags: HW
HStem: -427 164<826.988 980.988> 88 198<282.988 495.988 821.988 943.988 1015.99 1066.99> 384 198<889.988 1066.99> 1081 168<859.988 957.988>
VStem: 495.988 326<-112 88 286 384>
LayerCount: 2
Fore
SplineSet
921.987304688 1425 m 4
 894.222514945 1425 879.96687319 1408.13027135 865.987304688 1392 c 5
 841.987304688 1417 l 5
 840.987304688 1459 840.987304688 1483 841.987304688 1488 c 4
 856.895285204 1540.17793181 934.661073656 1594.44429648 1003.98730469 1593 c 4
 1112.54049099 1590.73847529 1189.08627142 1494.25924272 1181.98730469 1386 c 4
 1177.98730469 1325 1066.98730469 1160 1033.98730469 1107 c 5
 896.987304688 925 l 5
 1156.98730469 925 l 6
 1194.42853743 925 1208.0923633 879.230869152 1174.98730469 859 c 4
 1111.42142792 816.622748823 1089.18948009 807.575526859 1022.98730469 767 c 4
 982.654245087 745.000149309 929.242884227 728 868.987304688 728 c 6
 828.987304688 728 l 5
 828.987304688 630 l 5
 1156.98730469 630 l 6
 1194.18606475 630 1208.02985616 583.192670342 1174.98730469 563 c 4
 1111.92579315 520.95899231 1089.68471265 511.727527202 1022.98730469 473 c 4
 982.872730105 452.942712709 927.496939117 432 868.987304688 432 c 6
 828.987304688 432 l 5
 831.987304688 97 l 5
 951.743098439 53.7548522562 1064.19163818 110.081733399 1148.98730469 144 c 4
 1168.0038353 151.606612245 1194.67411404 137.373618711 1182.98730469 114 c 4
 1177.98730469 104 1169.98730469 96 1161.98730469 90 c 4
 1049.51678975 1.63030969281 895.427684398 -83 701.987304688 -83 c 4
 547.279046035 -83 444.781606918 7.83575024553 344.987304688 69 c 4
 313.987304688 88 281.987304688 97 248.987304688 97 c 4
 224.437222027 97 177.274642887 73.7126618001 158.987304688 92 c 4
 118.788922528 135.852780538 338.74242546 220.328104794 384.987304688 231 c 4
 423.987304688 240 464.987304688 241 505.987304688 232 c 5
 502.987304688 432 l 5
 189.987304688 432 l 6
 148.321234621 432 146.04241603 472.100389048 174.987304688 492 c 4
 238.098299474 534.073996524 264.882186997 547.851753987 332.987304688 585 c 4
 380.790836031 607.063168312 438.061548497 627.835808127 502.987304688 630 c 5
 502.987304688 728 l 5
 189.987304688 728 l 6
 148.321234621 728 146.04241603 768.100389048 174.987304688 788 c 4
 237.90012924 829.941883035 265.210064016 843.030595997 332.987304688 880 c 4
 352.697895854 891.8263547 373.06887948 899.476793125 396.987304688 906 c 5
 321.610418208 1017.66946145 257.948126485 1104.5587673 186.987304688 1211 c 4
 174.987304688 1229 157.987304688 1256 134.987304688 1270 c 4
 33.9873046875 1335 9.9873046875 1356 134.987304688 1433 c 4
 162.987304688 1451 200.987304688 1470 230.987304688 1487 c 4
 253.509229673 1500.13778957 279.460378614 1506 312.987304688 1506 c 4
 394.596410157 1501.91954473 417.31419365 1441.50966656 452.987304688 1388 c 4
 553.541202387 1237.16915345 639.368805854 1099.21511422 748.987304688 925 c 5
 893.987304688 1129 l 6
 910.987304688 1158 993.987304688 1293 995.987304688 1326 c 4
 998.722031383 1371.12299047 974.105240476 1425 921.987304688 1425 c 4
EndSplineSet
EndChar

StartChar: plusminus
Encoding: 177 177 85
Width: 1188
VWidth: 1747
Flags: HW
HStem: -395 194<386 875> -297 160<108 484> 475 262<163 428> 475 230<232 452 711 941>
VStem: 455 250<74 468 706 1008>
LayerCount: 2
Fore
SplineSet
742 1579 m 5
 742 1489.18974299 712 1325.95812164 712 1219 c 4
 712 1171 720 1131 740 1099 c 5
 850 1103 982 1131 1138 1183 c 5
 1120 1137 1098 1082 1068 1020 c 6
 958 797 l 5x18
 866 843 790 864 732 864 c 5
 718 840 710 804 710 752 c 6
 710 709 l 6
 710 671.531714889 720 571.803406108 720 540 c 4
 720 528 718 503 714 467 c 5
 634 455 516 413 364 347 c 5
 364 444.253407897 373.19921208 432.313047554 408 487 c 4
 418 501 422 513 422 523 c 4
 446 617 460 702 460 780 c 6
 460 840 l 5
 432 860 396 870 350 870 c 4
 296 870 198 843 50 789 c 5
 95.9238742653 919.70641137 124.784104186 1043.9441476 182 1125 c 5
 196 1129 214 1132 236 1132 c 4x28
 277.225356192 1132 373.474492895 1099 408 1099 c 4
 428 1099 446 1107 460 1121 c 4
 460 1125 460 1132 462 1140 c 5
 462 1157 l 6
 462 1203.22381525 436 1356.6314728 436 1404 c 5
 524 1432 626 1491 742 1579 c 5
886 72 m 4
 821 19 746 0 682 0 c 4x88
 671 0 663 1 660 2 c 6
 562 12 l 5
 546.933283573 12 406.861471362 58.9138528638 356 64 c 4
 288.053965639 72.4932542952 193.392457932 98 122 98 c 4
 90.1420211224 98 62.7120629796 93.3735432654 56 71 c 5
 75 122 121 167 192 204 c 4
 264 241 330 258 390 258 c 4x48
 401 258 410 258 414 257 c 6
 560 242 l 5
 630.267151127 223.50864444 717.105387553 194 794 194 c 4x88
 876 193 954 203 1024 233 c 5
 1024 222 1024 214 1022 212 c 4
 965 129 927 105 886 72 c 4
EndSplineSet
EndChar

StartChar: uni00B2
Encoding: 178 178 86
Width: 545
VWidth: 1458
Flags: HW
HStem: 404 98<83 159>
VStem: 219 112<719 808 812 901>
LayerCount: 2
Fore
SplineSet
150 1404 m 4
 179.854833903 1404 176.891687337 1406.89168734 196 1426 c 5
 196 1439 l 5
 189 1438 l 5
 175.959515041 1438 166.985095758 1448.08942545 165 1460 c 4
 156 1513 226 1530 268 1505 c 4
 292.747141691 1491.25158795 305 1459.64614545 305 1423 c 4
 305 1353.09025584 268.485690388 1286.26936044 235 1248 c 4
 181.048931094 1187.82380776 138.970183516 1130.85984604 84 1070 c 4
 72.4209923206 1058.42099232 50 1037.93760542 50 1018 c 4
 50 981.938430191 120.906879502 1015 143 1015 c 4
 159 1015 175 1014 193 1011 c 4
 202 1009 212 1001 219 1006 c 4
 240 1020 236 1002 245 999 c 4
 360.641770312 969.018800289 429.172703511 1068.96967057 485 1131 c 4
 500.007712427 1146.00771243 492.921020992 1166.93418416 475 1152 c 4
 431.500028917 1113.33335904 396.58321016 1070.50003213 318 1091 c 4
 283.386459959 1100.61487223 253.600818569 1113.06662769 213 1115 c 4
 196.793837483 1115 181.641363367 1111.89753239 168 1108 c 5
 224.716083731 1167.86697727 279.44117561 1232.25735195 334 1295 c 4
 371.454428282 1338.07259252 417 1395.72771794 417 1471 c 4
 417 1540.89684343 369.01973101 1585.56931453 309 1592 c 4
 247 1599 174 1584 114 1520 c 4
 98 1503 88 1488 88 1467 c 4
 88 1433.09454186 116.286017006 1404 150 1404 c 4
EndSplineSet
EndChar

StartChar: uni00B3
Encoding: 179 179 87
Width: 641
VWidth: 1453
Flags: HW
HStem: 340 28<150 288> 448 17<196 248> 609 20<128 219>
VStem: -6 67<417 564> 148 40<470 522> 267 76<470 589> 356 95<847 972> 442 92<500 708>
LayerCount: 2
Fore
SplineSet
236 1445 m 4
 267.551847758 1445 262.047635147 1447.04763515 282 1467 c 5
 282 1479 l 5
 274 1478 l 5
 262.040914974 1478 252.850890793 1489.89465524 251 1501 c 4
 242 1554 296 1572 352 1573 c 28xfe
 383 1574 412 1531 412 1503 c 4xfe
 412 1453.93751041 344.436591969 1395.61677132 306 1378 c 5
 361.367193388 1378 496 1290.80230627 496 1239 c 4
 496 1236.62935797 498 1218.45149216 498 1216 c 4
 498 1082.80332518 407.91489142 967 273 967 c 4
 201.865513753 967 117 1018.31127188 117 1086 c 4
 117 1158.64444023 161.656073182 1208 234 1208 c 4
 277.296587021 1208 323 1175.09373917 323 1133 c 4
 323 1104.90685219 297.091856981 1063 270 1063 c 4
 252 1063 244 1070 244 1086 c 4
 244 1093 252 1104 270 1115 c 5
 258 1128 246 1136 237 1136 c 4
 223.207431612 1136 204 1113.87026722 204 1100 c 4
 204 1070.05836786 257.610687265 1047 292 1047 c 4
 339.118240632 1047 399 1084.03450752 399 1127 c 4
 399 1181.33688103 301.529651293 1228 242 1228 c 4
 155.058711191 1228 50 1166.08981007 50 1085 c 4
 50 997.046853469 176.622744958 939 273 939 c 6
 314 939 l 6
 322 939 336 944 355 952 c 5
 479.279723227 976.855944645 586.870827619 1110.47896666 591 1255 c 4xfd
 591 1289.03030904 558.418212508 1342.87400624 538 1356 c 4
 511.940018693 1372.28748832 506.755079156 1378.82432029 466 1393 c 5
 444 1399 426 1405 412 1409 c 5
 448 1437 469 1453 474 1457 c 4
 496 1479 507 1501 507 1525 c 4
 507 1559 503 1572 468 1599 c 28
 391.146624355 1657.40856549 279.489845605 1645.78916865 200 1561 c 4
 184 1544 174 1528 174 1507 c 4
 174 1473.59301304 202.823052742 1445 236 1445 c 4
EndSplineSet
EndChar

StartChar: uni00B9
Encoding: 185 185 88
Width: 341
VWidth: 1459
Flags: HW
HStem: 395 576
VStem: 123 102<467 848>
LayerCount: 2
Fore
SplineSet
220 1472 m 4
 220 1374.75944161 213 1257.13039634 213 1157 c 4
 213 1137 212 1124 212 1118 c 4
 212 1067.84075173 229.814645006 1052.4073225 275 1075 c 4
 278 1076 281 1078 284 1078 c 4
 295.721253248 1078 290.696454559 1064.49746754 283 1059 c 4
 249.566453056 1040.19362984 206.328313459 1000 160 1000 c 5
 119.830778567 1005.7384602 105.96660989 1033.59931868 110 1082 c 4
 113.933031815 1209.82353397 112.944321404 1331.54792708 115 1459 c 5
 111 1456 108 1453 105 1450 c 6
 78 1427 l 5
 58.2459243195 1407.24592432 40.8223580417 1435.82235804 58 1453 c 6
 174 1570 l 6
 184.955786991 1580.95578699 221 1601.09087475 221 1562 c 4
 221 1558 222 1555 222 1552 c 6
 222 1532 l 6
 222 1508.76032392 220 1505.96008791 220 1472 c 4
EndSplineSet
EndChar

StartChar: onequarter
Encoding: 188 188 89
Width: 935
VWidth: 1871
Flags: HW
HStem: -270 46G<692 698> -121 117<496 649>
VStem: 97 102<302 684> 648 103<-193 -121 -14 177>
LayerCount: 2
Fore
SplineSet
709 0 m 5
 669.250583473 5.67848807525 656.081026176 34.9723141172 660 82 c 4
 660 93 661 105 661 116 c 4
 661 127 661 139 662 149 c 5
 604.671224931 149 567.819929397 173.09099647 506 170 c 4
 480.096083838 168.704804192 456.437081101 159 430 159 c 4
 391.457122844 159 429.790013736 214.861833167 440 226 c 5
 712 569 l 6
 732.505782176 594.63222772 772 588.855566914 772 551 c 6
 772 532 l 6
 772 526 772 518 771 511 c 4
 771 428.395215432 768.237701091 330.180228356 765 246 c 5
 806.68912221 261.633420829 834.537092596 288.921860086 865 316 c 4
 882.85830918 330.881924316 890.047886264 310.047886264 875 295 c 4
 839.252417428 253.294486999 807.743011634 216.801418081 764 183 c 5
 763 165 764 152 764 141 c 6
 764 118 l 6
 764 63.961832812 783.546897458 53.7734487292 828 76 c 4
 831 77 832 78 835 78 c 4
 847.27542979 78 843.346631349 63.9618795348 835 58 c 4
 798.997705653 37.74870943 758.838551801 0 709 0 c 5
508 253 m 5
 533.497946738 260.845522073 562.927442445 266 595 266 c 4
 620 266 642 263 663 256 c 5
 664 288 664 320 664 351 c 4
 664 382 665 414 666 447 c 5
 508 253 l 5
527 982 m 4
 534.325020135 993.986396584 580.645711412 1045.01257315 609 1028 c 4
 623.139319316 1019.51640841 592.814828718 954.734047178 585 932 c 4
 526.724149412 762.470252834 463.209756592 574.991679989 401 403 c 4
 371.928158539 322.624908901 342.667967706 243.003903117 318 169 c 4
 292.825793564 93.4773806909 279.951117944 33.6933362619 213 5 c 5
 169.636400208 -18.6528726138 192.678716387 40.0722983226 196 60 c 4
 285.943323038 338.824301417 395.933844793 643.56807318 495 916 c 4
 505 943 516 964 527 982 c 4
220 967 m 4
 220 870.215272843 213 752.676277792 213 653 c 4
 213 633 212 619 212 613 c 4
 212 561.394963902 231.27649349 549.138246745 275 571 c 4
 278 572 281 573 284 573 c 4
 295.74003713 573 290.786674 558.56191 283 553 c 4
 248.613125641 533.657383173 206.102568726 496 160 496 c 5
 119.670216436 501.761397652 105.952373101 528.428477214 110 577 c 4
 113.933031815 704.823533974 112.944321404 826.547927077 115 954 c 5
 111 951 108 947 105 944 c 6
 78 922 l 5
 58.7495522676 902.749552268 40.9512606778 930.951260678 58 948 c 6
 174 1064 l 6
 180.023216743 1070.02321674 201.345343598 1093.4819846 213 1076 c 4
 217.612529206 1069.08120619 221 1069.12453062 221 1057 c 4
 221 1053 222 1050 222 1047 c 6
 222 1027 l 6
 222 1004.35911663 220 1000.80507635 220 967 c 4
EndSplineSet
EndChar

StartChar: onehalf
Encoding: 189 189 90
Width: 951
VWidth: 1872
Flags: HW
HStem: -251 98<547 623>
VStem: 81 102<303 685> 684 112<63 151 155 245>
LayerCount: 2
Fore
SplineSet
557 406 m 4
 588.700597505 406 583.468238002 407.468238002 603 427 c 5
 603 440 l 5
 596 439 l 5
 584.509931686 439 573.740645985 449.556124087 572 460 c 4
 563 513 634 531 676 506 c 4
 700.129837395 492.594534781 713 458.528065776 713 423 c 4
 713 355.244729716 675.753760802 286.432869488 643 249 c 4
 588.878644256 188.633872439 547.093266256 130.996116212 492 70 c 4
 480.84708108 58.8470810798 457 37.641686851 457 19 c 4
 457 -19.159563526 527.809119271 17 550 17 c 4
 608.086784693 17 667.697800927 -17.0863425923 724 -1 c 4
 794.636734658 19.1819241881 848.875224091 81.972471212 893 131 c 4
 906.744752396 144.744752396 899.010174308 166.341811923 883 153 c 4
 839.48192313 114.317265004 803.751189771 71.456211364 725 92 c 4
 690.593000361 101.5574999 663.666649267 112.968254797 621 115 c 4
 605.285012114 115 588.678297843 112.908085098 575 109 c 5
 631.891812293 169.052468531 687.260360053 233.049414061 742 296 c 4
 779.037114452 338.59268162 825 397.776037281 825 472 c 4
 825 541.56127757 776.073126974 586.563593538 716 593 c 4
 654 600 582 584 522 520 c 4
 506 503 495 489 495 468 c 4
 495 433.760510077 522.756757131 406 557 406 c 4
527 981 m 4
 534.325020135 992.986396584 580.645711412 1044.01257315 609 1027 c 4
 623.139319316 1018.51640841 592.814828718 953.734047178 585 931 c 4
 526.724149412 761.470252834 463.209756592 573.991679989 401 402 c 4
 371.928158539 321.624908901 342.667967706 242.003903117 318 168 c 4
 292.825793564 92.4773806909 279.951117944 32.6933362619 213 4 c 5
 169.269499605 -19.8530002153 192.796912524 39.7814751435 196 59 c 4
 286.040951719 338.126950329 395.770405362 642.118614745 495 915 c 4
 505 942 516 963 527 981 c 4
220 966 m 4
 220 869.215272843 213 751.676277792 213 652 c 4
 213 632 212 618 212 612 c 4
 212 560.394963902 231.27649349 548.138246745 275 570 c 4
 278 571 281 572 284 572 c 4
 295.74003713 572 290.786674 557.56191 283 552 c 4
 248.613125641 532.657383173 206.102568726 495 160 495 c 5
 119.670216436 500.761397652 105.952373101 527.428477214 110 576 c 4
 113.933031815 703.823533974 112.944321404 825.547927077 115 953 c 5
 111 950 108 947 105 944 c 6
 78 921 l 5
 58.7495522676 901.749552268 40.9512606778 929.951260678 58 947 c 6
 174 1064 l 6
 180.1317501 1070.1317501 201.906387534 1091.6404187 213 1075 c 4
 217.612529206 1068.08120619 221 1068.12453062 221 1056 c 4
 221 1052 222 1049 222 1046 c 6
 222 1026 l 6
 222 1002.76032392 220 999.960087905 220 966 c 4
EndSplineSet
EndChar

StartChar: threequarters
Encoding: 190 190 91
Width: 1207
VWidth: 1873
Flags: HW
HStem: -269 46G<983 989> -119 117<787 940> 112 28<212 350> 219 17<258 310> 381 20<190 281>
VStem: 56 67<188 335> 210 40<241 294> 329 76<241 360> 418 95<619 744> 504 92<271 479> 940 101<-192 -119 -12 179>
LayerCount: 2
Fore
SplineSet
236 887 m 4
 266.720924451 887 262.50136103 888.50136103 282 908 c 5
 282 921 l 5
 274 920 l 5
 261.493545059 920 252.904381974 930.573708155 251 942 c 4
 242 995 296 1014 352 1015 c 28xffa0
 383 1016 412 973 412 945 c 4xffa0
 412 895.289401727 344.913803875 836.835493443 306 819 c 5
 362.053497018 819 496 733.224333508 496 681 c 4
 496 678.354795154 498 659.828430644 498 657 c 4
 498 523.57537831 408.182565914 409 273 409 c 4
 201.865513753 409 117 460.311271875 117 528 c 4
 117 600.644440233 161.656073182 650 234 650 c 4
 276.711445963 650 323 615.708660524 323 574 c 4
 323 546.294081828 296.632226785 505 270 505 c 4
 252 505 244 512 244 528 c 4
 244 535 252 546 270 557 c 5
 258 570 246 577 237 577 c 4
 222.156032944 577 204 555.616542279 204 541 c 4
 204 512.152614215 259.0222849 488 292 488 c 4
 339.118240632 488 399 525.034507518 399 568 c 4
 399 622.336881027 301.529651293 669 242 669 c 4
 155.669094112 669 50 607.527539083 50 527 c 4
 50 437.971919245 175.279005982 381 273 381 c 6
 314 381 l 6
 322 381 336 385 355 393 c 5
 478.421912446 417.684382489 586.895429286 552.340025014 591 696 c 4xff60
 591 729.813112378 558.274464697 784.966415552 538 798 c 4
 512.342022333 814.036236042 505.895846166 821.123183942 466 835 c 5
 444 841 426 846 412 850 c 5
 448 878 469 894 474 898 c 4
 496 920 507 942 507 966 c 4
 507 1000 503 1014 468 1041 c 28
 390.618638214 1099.80983496 279.612640873 1086.92015026 200 1002 c 4
 184 985 174 970 174 949 c 4
 174 914.760510077 201.756757131 887 236 887 c 4
981 0 m 5
 941.759710373 5.60575566101 928.101237495 35.2148499375 932 82 c 4
 932 93 933 105 933 116 c 4
 933 127 933 140 934 150 c 5
 875.902214703 150 840.655598372 174.132779919 778 171 c 4
 752.176273522 169.708813676 727.091415918 159 702 159 c 4
 665.385858594 159 702.009654161 215.101440902 712 226 c 5
 984 570 l 6
 1004.05419222 595.067740275 1044 588.164388775 1044 552 c 6
 1044 532 l 6
 1044 526 1045 519 1044 512 c 4
 1044 430.327360695 1040.24929385 331.481640103 1037 247 c 5
 1055.53028597 253.948857238 1071.75770928 260.568281963 1087 272 c 4
 1095.77609473 278.825851453 1141.315747 330.684253001 1155 317 c 260
 1173.24452215 298.755477854 1053.3096906 195.60294274 1037 183 c 5
 1036 165 1036 152 1036 141 c 6
 1036 118 l 6
 1036 65.815533292 1055.32603609 53.6630180474 1100 76 c 4
 1103 77 1105 78 1108 78 c 4
 1120.08744334 78 1114.74501191 64.5321513611 1107 59 c 4
 1071.98313256 39.3030120633 1030.83417837 0 981 0 c 5
781 255 m 5
 806.009828916 262.695331974 836.016621144 267 867 267 c 4
 892 267 915 264 936 257 c 5
 937 289 937 321 937 352 c 4
 937 383 938 415 939 448 c 5
 781 255 l 5
799 983 m 4
 806.192651404 994.769793206 854.310654884 1045.01360707 881 1029 c 4
 895.043578476 1020.57385291 864.846974282 954.827561549 857 932 c 4
 798.790510798 762.663304141 734.637785011 575.410346794 673 405 c 4
 635.939001041 302.537238172 605.470254182 194.097259757 566 102 c 5
 550.321812089 54.9654362679 528.351846435 23.5793627579 485 5 c 5
 440.878477292 -19.0662851133 465.938095442 41.6285726505 469 60 c 4
 559.298349472 339.924883364 669.052729211 644.895005329 768 917 c 4
 778 944 788 965 799 983 c 4
EndSplineSet
EndChar

StartChar: mu
Encoding: 181 181 92
Width: 966
VWidth: 4215
Flags: HW
HStem: -592 142<388 534>
VStem: 152 235<-447 -304 5 95 652 777> 585 234<93 777>
LayerCount: 2
Fore
SplineSet
50 960 m 5
 93.5513190949 935.502383009 142 886.141994765 142 818 c 6
 142 -189 l 6
 142 -268 172 -333 260 -383 c 4
 303 -407 368 -426 405 -426 c 4
 480.502255683 -426 538.55440105 -365.834348527 540 -295 c 4
 540 -273.724217247 536.293470092 -245.586940184 528 -229 c 5
 528 -228 l 5
 509 -262 485 -280 457 -284 c 5
 448 -284 l 6
 426 -284 409 -275 391 -257 c 4
 372 -238 378 -254 378 -138 c 6
 378 10 l 5
 579 159 l 5
 589.65071711 101.486127606 617.592061526 67.4079384738 653 32 c 4
 673 12 689 4 702 0 c 4
 787 -26 970 75 902 137 c 4
 883 155 872 155 856 173 c 4
 830.246650598 204.696430033 809 244.023762394 809 298 c 4
 810 661 811 862 811 899 c 4
 811 1003.44722268 743.913737196 1056.7241752 679 1100 c 5
 676 1101 l 5
 675 1102 l 5
 674 1102 l 5
 481 960 l 5
 531.228090139 934.885954931 575 870.563869636 575 795 c 6
 575 259 l 5
 451 168 l 5
 403 196 379 227 378 261 c 5
 378 858 l 5
 367.393609412 960.528442348 312.750539936 1060.42826289 240 1102 c 5
 50 960 l 5
EndSplineSet
EndChar

StartChar: paragraph
Encoding: 182 182 93
Width: 1639
VWidth: 1815
Flags: HW
HStem: -327 46G<1055.08 1088.08> 957 216<591.083 945.083 1207.08 1388.08>
VStem: 23.083 567<521 910> 332.083 256<-444 417> 943.083 266<-126 957>
LayerCount: 2
Fore
SplineSet
595.083984375 635 m 4
 595.083984375 404.092432386 594.083984375 110.721606682 594.083984375 0 c 4
 594.083984375 -50.8608324195 576.641322241 -80.9918302169 546.083984375 -102 c 4
 493.318613986 -140.55930913 460.323040405 -162.304377588 396.083984375 -188 c 4
 358.727960416 -204.343260482 338.083984375 -173.819576961 338.083984375 -139 c 6
 331.083984375 744 l 5xd8
 311.083984375 744 l 6
 146.163172279 744 29.083984375 877.474758761 29.083984375 1042 c 4
 29.083984375 1151.73500705 80.4219231468 1235.35471208 147.083984375 1284 c 5
 29.083984375 1284 l 6
 -16.2820099963 1284 -0.22636225167 1339.97413669 23.083984375 1356 c 4
 117.006608198 1418.61508255 205.656330681 1500 361.083984375 1500 c 6
 1503.08398438 1500 l 6
 1538.69409931 1500 1553.32306266 1449.70165895 1521.08398438 1430 c 4
 1457.70896545 1387.74998739 1436.47483738 1378.07826475 1371.08398438 1338 c 4
 1330.84999787 1316.05418918 1275.25694943 1284 1215.08398438 1284 c 6
 1213.08398438 1284 l 5
 1213.08398438 318 l 6
 1213.08398438 251.608221145 1228.88760887 157.532034342 1303.08398438 178 c 4
 1326.07465304 182.926571857 1407.39341716 235.458492634 1423.08398438 208 c 4
 1431.08398438 196 1427.08398438 182 1407.08398438 168 c 4
 1325.76929836 114.45130433 1236.13094769 65.6685751463 1149.08398438 18 c 4
 1127.08398438 7 1106.08398438 0 1083.08398438 0 c 4
 1015.3267079 4.61981430516 960.796176204 53.0195429314 953.083984375 125 c 4
 950.083984375 153 949.083984375 183 949.083984375 216 c 6
 949.083984375 1124 l 6
 949.083984375 1217 950.083984375 1270 951.083984375 1284 c 5
 597.083984375 1284 l 5
 597.083984375 1094.82549005 595.083984375 854.570172054 595.083984375 635 c 4
EndSplineSet
EndChar

StartChar: agrave
Encoding: 224 224 94
Width: 1069
VWidth: 2160
Flags: HW
HStem: 0 180<237.246 471.246> 16 46G<659.246 671.246> 1196 42<612.246 636.246>
VStem: 50.2456 267<202 822> 541.246 261<215 860>
LayerCount: 2
Fore
SplineSet
650.245117188 1215 m 5x38
 618.245117188 1196 l 5
 512.395325063 1224.49802096 253.397354607 1322.74309935 221.245117188 1377 c 4
 193.26076964 1427.37182558 227.473445379 1491.29985811 261.245117188 1511 c 4
 295.245117188 1531 348.245117188 1505 422.245117188 1435 c 4
 540.245117188 1320 611.245117188 1255 636.245117188 1238 c 5
 650.245117188 1215 l 5x38
666.245117188 16 m 4x78
 599.771149673 16 559.942747135 81.6612058039 535.245117188 124 c 5
 468.420002581 83.323843283 412.943209448 46.1367845977 335.245117188 17 c 4
 251.70330692 -14.3281788503 164.564675709 4.16039242519 115.245117188 48 c 4
 45.5751764079 117.66994078 48.3955913703 289.13508953 50.2451171875 426 c 4
 51.7040451355 533.960668154 52.8486839887 658.017834006 71.2451171875 750 c 4
 77.2451171875 780 93.2451171875 806 123.245117188 828 c 4
 231.74603295 904.352496277 343.164201521 971.954742085 461.245117188 1038 c 5
 561.715203834 1098.8909616 668.144421072 1035.96252504 735.245117188 992 c 4
 773.245117188 965 794.245117188 926 797.245117188 876 c 4
 803.174691054 696.136259397 803.22882969 513.465874733 805.245117188 332 c 4
 805.245117188 263.705555549 819.5668206 173.123228528 895.245117188 194 c 4
 918.510039824 198.985340565 999.519686465 251.519503764 1015.24511719 224 c 4
 1023.24511719 212 1019.24511719 196 999.245117188 182 c 4
 917.633896528 128.25602542 830.221206643 76.4880447275 741.245117188 32 c 4
 731.427671854 27.7925234287 680.471274938 16 666.245117188 16 c 4x78
317.245117188 368 m 4
 317.245117188 250.985702704 351.988974702 180 471.245117188 180 c 4xb8
 507.454333902 180 529.402999988 195.157656017 531.245117188 232 c 4
 537.212897453 387.162286907 541.245117188 528.624162646 541.245117188 688 c 4
 541.245117188 769.683465403 528.112237629 826.914537508 477.245117188 858 c 4
 453.813079989 872.319578288 393.392595192 917.838724338 359.245117188 878 c 4
 319.024690592 827.287288206 315.245117188 740.456687956 315.245117188 656 c 4
 313.245968163 558.041697818 315.266962462 464.929581547 317.245117188 368 c 4
EndSplineSet
EndChar

StartChar: aacute
Encoding: 225 225 95
Width: 1069
VWidth: 2160
Flags: HW
HStem: 0 180<237.246 471.246> 16 46G<659.246 671.246> 1196 42<228.246 253.246>
VStem: 50.2456 267<202 822> 541.246 261<215 860>
LayerCount: 2
Fore
SplineSet
214.245117188 1215 m 5x38
 246.245117188 1196 l 5
 351.955166021 1224.46039776 612.195274403 1322.9158903 644.245117188 1377 c 4
 672.262707859 1427.43166321 635.737982593 1492.04582851 603.245117188 1511 c 4
 569.245117188 1531 516.245117188 1505 442.245117188 1435 c 4
 324.245117188 1320 253.245117188 1255 228.245117188 1238 c 5
 214.245117188 1215 l 5x38
666.245117188 16 m 0x78
 599.771149673 16 559.942747135 81.6612058039 535.245117188 124 c 1
 468.420002581 83.323843283 412.943209448 46.1367845977 335.245117188 17 c 0
 251.70330692 -14.3281788503 164.564675709 4.16039242519 115.245117188 48 c 0
 45.5751764079 117.66994078 48.3955913703 289.13508953 50.2451171875 426 c 0
 51.7040451355 533.960668154 52.8486839887 658.017834006 71.2451171875 750 c 0
 77.2451171875 780 93.2451171875 806 123.245117188 828 c 0
 231.74603295 904.352496277 343.164201521 971.954742085 461.245117188 1038 c 1
 561.715203834 1098.8909616 668.144421072 1035.96252504 735.245117188 992 c 0
 773.245117188 965 794.245117188 926 797.245117188 876 c 0
 803.174691054 696.136259397 803.22882969 513.465874733 805.245117188 332 c 0
 805.245117188 263.705555549 819.5668206 173.123228528 895.245117188 194 c 0
 918.510039824 198.985340565 999.519686465 251.519503764 1015.24511719 224 c 0
 1023.24511719 212 1019.24511719 196 999.245117188 182 c 0
 917.633896528 128.25602542 830.221206643 76.4880447275 741.245117188 32 c 0
 731.427671854 27.7925234287 680.471274938 16 666.245117188 16 c 0x78
317.245117188 368 m 0
 317.245117188 250.985702704 351.988974702 180 471.245117188 180 c 0xb8
 507.454333902 180 529.402999988 195.157656017 531.245117188 232 c 0
 537.212897453 387.162286907 541.245117188 528.624162646 541.245117188 688 c 0
 541.245117188 769.683465403 528.112237629 826.914537508 477.245117188 858 c 0
 453.813079989 872.319578288 393.392595192 917.838724338 359.245117188 878 c 0
 319.024690592 827.287288206 315.245117188 740.456687956 315.245117188 656 c 0
 313.245968163 558.041697818 315.266962462 464.929581547 317.245117188 368 c 0
EndSplineSet
EndChar

StartChar: acircumflex
Encoding: 226 226 96
Width: 1069
VWidth: 2160
Flags: HW
HStem: 1 180<237.246 471.246> 17 46G<659.246 671.246>
VStem: 50.2456 267<203 824> 541.246 261<216 861>
LayerCount: 2
Fore
SplineSet
549.245117188 1491 m 6x30
 789.245117188 1246 l 5
 798.245117188 1221 l 5
 762.245117188 1208 l 5
 696.782911957 1240.73110262 624.840760116 1293.65491794 563.245117188 1337 c 4
 536.245117188 1356 525.245117188 1371 489.245117188 1371 c 28
 453.245117188 1371 442.245117188 1355 415.245117188 1336 c 4
 352.15656899 1291.60435497 283.273196935 1238.51403987 216.245117188 1205 c 5
 180.245117188 1218 l 5
 189.245117188 1242 l 5
 437.245117188 1491 l 5
 476.245117188 1524 514.245117188 1522 549.245117188 1491 c 6x30
666.245117188 17 m 0x70
 599.771149673 17 559.942747135 82.6612058039 535.245117188 125 c 1
 468.420002581 84.323843283 412.943209448 47.1367845977 335.245117188 18 c 0
 251.101513772 -13.5538512809 165.407380327 4.41132165396 115.245117188 49 c 0
 45.5751764079 118.66994078 48.3955913703 290.13508953 50.2451171875 427 c 0
 51.7040451355 534.960668154 52.8486839887 659.017834006 71.2451171875 751 c 0
 77.2451171875 781 93.2451171875 807 123.245117188 829 c 0
 231.74603295 905.352496277 343.164201521 972.954742085 461.245117188 1039 c 1
 561.200788478 1099.57919472 669.113014964 1036.32792904 735.245117188 993 c 0
 773.245117188 966 794.245117188 927 797.245117188 877 c 0
 803.174691054 697.136259397 803.22882969 514.465874733 805.245117188 333 c 0
 805.245117188 264.821733667 820.174739376 173.290930259 895.245117188 194 c 0
 919.383916032 199.172599752 998.620221162 253.093568045 1015.24511719 224 c 0
 1023.24511719 212 1019.24511719 197 999.245117188 183 c 0
 917.49324393 129.163400538 830.772380208 77.76363151 741.245117188 33 c 0
 731.427671854 28.7925234287 680.471274938 17 666.245117188 17 c 0x70
317.245117188 369 m 0
 317.245117188 251.985702704 351.988974702 181 471.245117188 181 c 0xb0
 507.454333902 181 529.402999988 196.157656017 531.245117188 233 c 0
 537.212897453 388.162286907 541.245117188 529.624162646 541.245117188 689 c 0
 541.245117188 770.683465403 528.112237629 827.914537508 477.245117188 859 c 0
 453.813079989 873.319578288 393.392595192 918.838724338 359.245117188 879 c 0
 319.024690592 828.287288206 315.245117188 741.456687956 315.245117188 657 c 0
 313.245968163 559.041697818 315.266962462 465.929581547 317.245117188 369 c 0
EndSplineSet
EndChar

StartChar: atilde
Encoding: 227 227 97
Width: 1069
VWidth: 2184
Flags: HW
HStem: 26 180<231.246 465.246> 41 46G<653.246 665.246> 1246 110<514.246 683.246> 1343 97<256.246 428.246>
VStem: 44.2456 267<228 848> 535.246 261<241 886>
LayerCount: 2
Fore
SplineSet
664.245117188 1328 m 4
 689.167158364 1328 725.414605839 1331.7796591 742.245117188 1343 c 5
 743.245117188 1343 l 5
 805.245117188 1373 l 5
 820.245117188 1345 l 5x2c
 646.245117188 1250 l 6
 614.615394548 1232.74742401 571.84903347 1220 526.245117188 1220 c 4x2c
 425.061757545 1220 388.555702023 1317 295.245117188 1317 c 4
 266.217591612 1317 243.490570503 1301.65340832 223.245117188 1289 c 4
 201.245117188 1278 190.245117188 1271 190.245117188 1269 c 6
 175.245117188 1297 l 5
 321.245117188 1377 l 6
 349.504532904 1392.54267864 392.996746837 1414 434.245117188 1414 c 4x1c
 461.615400908 1414 475.693270545 1406.43191967 503.245117188 1392 c 5
 530.868099002 1376.28964848 558.882673639 1360.97088978 587.245117188 1346 c 5
 610.245117188 1335 635.245117188 1328 664.245117188 1328 c 4
666.245117188 15 m 4x4c
 600.823365749 15 559.639941998 82.1803003255 535.245117188 124 c 5
 468.500109178 83.3726038203 412.542782294 44.9866244149 335.245117188 16 c 4
 250.920012286 -15.6219143382 164.314719903 4.38257536433 115.245117188 48 c 4
 45.5751764079 117.66994078 48.3955913703 289.13508953 50.2451171875 426 c 4
 51.7040451355 533.960668154 52.8486839887 658.017834006 71.2451171875 750 c 4
 77.2451171875 780 93.2451171875 806 123.245117188 828 c 4
 231.74603295 904.352496277 343.164201521 971.954742085 461.245117188 1038 c 5
 561.200788478 1098.57919472 669.113014964 1035.32792904 735.245117188 992 c 4
 773.245117188 965 794.245117188 926 797.245117188 876 c 4
 803.174691054 696.136259397 803.22882969 513.465874733 805.245117188 332 c 4
 805.245117188 263.821733667 820.174739376 172.290930259 895.245117188 193 c 4
 919.883235105 198.279596697 998.748854848 251.868459093 1015.24511719 223 c 4
 1023.24511719 211 1019.24511719 196 999.245117188 182 c 4
 917.49324393 128.163400538 830.772380208 76.76363151 741.245117188 32 c 4
 731.573110224 27.8548541585 679.460820305 15 666.245117188 15 c 4x4c
317.245117188 368 m 4
 317.245117188 250.985702704 351.988974702 180 471.245117188 180 c 4x8c
 507.454333902 180 529.402999988 195.157656017 531.245117188 232 c 4
 537.212897453 387.162286907 541.245117188 528.624162646 541.245117188 688 c 4
 541.245117188 769.938984695 528.149370421 826.891845246 477.245117188 858 c 4
 453.813079989 872.319578288 393.392595192 917.838724338 359.245117188 878 c 4
 319.024690592 827.287288206 315.245117188 740.456687956 315.245117188 656 c 4
 313.245968163 558.041697818 315.266962462 464.929581547 317.245117188 368 c 4
EndSplineSet
EndChar

StartChar: adieresis
Encoding: 228 228 98
Width: 1069
VWidth: 2139
Flags: HW
HStem: -20 180<237.246 471.246> -4 46G<659.246 671.246> 1184 392<208.246 339.246 630.246 759.246>
VStem: 50.2456 267<182 803> 106.246 271<1222 1460> 526.246 271<196 849 1220 1457>
LayerCount: 2
Fore
SplineSet
667.245117188 1180 m 4
 593.462631301 1180 526.245117188 1236.83783413 526.245117188 1311 c 4x24
 526.245117188 1341 548.245117188 1391 594.245117188 1460 c 4
 645.245117188 1536 687.245117188 1574 721.245117188 1574 c 4
 766.981862441 1574 796.245117188 1381.69666061 796.245117188 1328 c 260
 796.245117188 1240.98781507 748.052489847 1180 667.245117188 1180 c 4
377.245117188 1330 m 260
 377.245117188 1243.89229412 329.870395172 1184 249.245117188 1184 c 4
 173.30181071 1184 106.245117188 1239.09921613 106.245117188 1314 c 4x2c
 106.245117188 1344 128.245117188 1394 174.245117188 1463 c 4
 225.245117188 1539 267.245117188 1576 301.245117188 1576 c 4
 346.419570788 1576 377.245117188 1383.0177351 377.245117188 1330 c 260
666.245117188 -4 m 4x74
 598.850254559 -4 560.244907191 62.1432171371 535.245117188 105 c 5
 468.256114527 64.2240853371 413.435236096 26.3212945905 335.245117188 -3 c 4
 251.70330692 -34.3281788503 164.564675709 -15.8396075748 115.245117188 28 c 4
 45.4433182468 97.8017989407 48.3918774372 269.860258478 50.2451171875 407 c 4xb4
 51.700986024 514.734293898 52.8789379514 638.16910382 71.2451171875 730 c 4
 77.2451171875 760 93.2451171875 786 123.245117188 808 c 4
 231.874304562 884.442761486 342.715327718 951.703677076 461.245117188 1018 c 5
 561.715203834 1078.8909616 668.144421072 1015.96252504 735.245117188 972 c 4
 773.245117188 945 794.245117188 907 797.245117188 857 c 4
 803.184349316 676.843292115 803.2249414 493.815820836 805.245117188 312 c 4
 805.245117188 243.978793401 820.543696048 153.39271141 895.245117188 174 c 4
 918.510039824 178.985340565 999.519686465 231.519503764 1015.24511719 204 c 4
 1023.24511719 192 1019.24511719 176 999.245117188 162 c 4
 917.633896528 108.25602542 830.221206643 56.4880447275 741.245117188 12 c 4
 731.427671854 7.79252342868 680.471274938 -4 666.245117188 -4 c 4x74
317.245117188 350 m 4
 317.245117188 232.449015865 351.783933295 160 471.245117188 160 c 4xb4
 505.090336158 160 529.498766382 177.072983899 531.245117188 212 c 4
 537.218312427 367.303076226 541.245117188 508.782731061 541.245117188 668 c 4
 541.245117188 750.708451043 528.554082009 806.644521498 477.245117188 838 c 4
 456.35610239 850.765509043 392.405662783 898.687303194 359.245117188 860 c 4
 318.885379582 809.111635193 315.245117188 720.477510748 315.245117188 636 c 4
 313.257918015 538.62724055 315.281596075 446.212534499 317.245117188 350 c 4
EndSplineSet
EndChar

StartChar: aring
Encoding: 229 229 99
Width: 1069
VWidth: 2161
Flags: HW
HStem: 1 180<237.246 471.246> 17 46G<659.246 671.246> 1161 62<416.246 505.246> 1454 61<450.246 558.246>
VStem: 50.2456 267<203 824> 289.246 97<1238 1405> 541.246 261<216 861> 566.246 101<1258 1441>
LayerCount: 2
Fore
SplineSet
546.245117188 1515 m 4
 592.434539632 1515 628.529814143 1486.11269362 647.245117188 1457 c 5x35
 679.026854191 1396.32577481 667.483271279 1302.54502586 625.245117188 1265 c 4
 616.245117188 1257 606.245117188 1248 596.245117188 1241 c 6
 547.245117188 1212 l 5
 482.30695514 1179.53091898 375.994640763 1122.26989043 316.245117188 1205 c 4
 265.575450112 1270.14671481 291.40432106 1366.58480317 343.245117188 1409 c 6
 385.245117188 1443 l 5
 423.36133834 1467.50328503 453.863699781 1488.6889115 497.245117188 1504 c 4
 514.245117188 1510 529.245117188 1515 546.245117188 1515 c 4
477.245117188 1454 m 4
 419.972745855 1454 386.245117188 1394.55218705 386.245117188 1337 c 4
 386.245117188 1274.04202483 419.794377423 1232.9001345 474.245117188 1223 c 4
 570.374419736 1211.69067029 593.504749174 1362.37818668 536.245117188 1426 c 4
 523.479339602 1438.76577759 499.883944465 1454 477.245117188 1454 c 4
666.245117188 17 m 0x7a
 599.771149673 17 559.942747135 82.6612058039 535.245117188 125 c 1
 468.420002581 84.323843283 412.943209448 47.1367845977 335.245117188 18 c 0
 251.70330692 -13.3281788503 164.564675709 5.16039242519 115.245117188 49 c 0
 45.5751764079 118.66994078 48.3955913703 290.13508953 50.2451171875 427 c 0xba
 51.7040451355 534.960668154 52.8486839887 659.017834006 71.2451171875 751 c 0
 77.2451171875 781 93.2451171875 807 123.245117188 829 c 0
 231.74603295 905.352496277 343.164201521 972.954742085 461.245117188 1039 c 1
 561.715203834 1099.8909616 668.144421072 1036.96252504 735.245117188 993 c 0
 773.245117188 966 794.245117188 927 797.245117188 877 c 0
 803.174691054 697.136259397 803.22882969 514.465874733 805.245117188 333 c 0
 805.245117188 264.705555549 819.5668206 174.123228528 895.245117188 195 c 0
 918.510039824 199.985340565 999.519686465 252.519503764 1015.24511719 225 c 0
 1023.24511719 213 1019.24511719 197 999.245117188 183 c 0
 917.633896528 129.25602542 830.221206643 77.4880447275 741.245117188 33 c 0
 731.427671854 28.7925234287 680.471274938 17 666.245117188 17 c 0x7a
317.245117188 369 m 0
 317.245117188 251.985702704 351.988974702 181 471.245117188 181 c 0xba
 506.270820029 181 529.450911165 197.115879544 531.245117188 233 c 0
 537.148302299 386.482812888 541.245117188 530.460440673 541.245117188 689 c 0
 541.245117188 771.164681474 528.176551321 827.875234696 477.245117188 859 c 0
 453.813079989 873.319578288 393.392595192 918.838724338 359.245117188 879 c 0
 319.024690592 828.287288206 315.245117188 741.456687956 315.245117188 657 c 0
 313.245968163 559.041697818 315.266962462 465.929581547 317.245117188 369 c 0
EndSplineSet
EndChar

StartChar: ccedilla
Encoding: 231 231 100
Width: 846
VWidth: 2381
Flags: HW
HStem: 236 117<352 547> 1215 117<377 564>
VStem: 48 264<380 1086> 263 243<-39 195> 314 192<-126 171> 585 206<377 526 1042 1191>
LayerCount: 2
Fore
SplineSet
795 210 m 0
 795 91.1739820254 680.521463175 0 561 0 c 2
 423.771226405 1.76500030347 l 1
 486.291178838 -13.7410635713 510 -107.095285245 510 -189 c 0
 510 -331.921642119 406.270823587 -412.631841876 299 -478 c 0
 282 -489 271 -496 267 -496 c 0
 246 -496 235 -488 235 -471 c 1
 240 -455 253 -431 274 -397 c 0
 302 -348 318 -308 318 -276 c 0
 318 -254.423265845 267 -147.710493387 267 -125 c 0
 267 -109.124288103 303.427400177 -67.6509436483 378.235953606 2.35066297612 c 1
 250 4 l 1
 160 10 64 84 56 150 c 0
 53 178 52 185 52 218 c 2
 52 348 l 2
 52 420.353750206 50 486.356406933 50 555 c 2
 50 649 l 2
 50 767.725359424 69.8211053699 818.221451979 142 868 c 0
 203.93299199 914.449743993 257.928396369 956.957037821 323 996 c 1
 356 1020 l 2
 414 1066 470 1095 562 1095 c 0
 682.673731633 1095 796 1004.7357453 796 885 c 0
 796 793.080471509 721.456762503 711 630 711 c 0
 595 711 570 716 558 723 c 0
 554 725 537 742 508 773 c 1
 508 808 l 1
 527 805 l 1
 560.905458135 805 590 833.286017006 590 867 c 0
 590 930.492899556 529.514170856 979 466 979 c 0
 364 979 313 889 315 709 c 2
 317 529 l 2
 316 458 316 447 316 379 c 0
 314 199 362 118 464 118 c 0
 529.104078113 118 589 165.11633579 589 230 c 0
 589 261.317567428 557.450440547 291 526 291 c 2
 506 289 l 1
 506 323 l 1
 535 354 553 371 557 373 c 0
 569 380 593 385 628 385 c 0
 719.630773744 385 795 301.83242914 795 210 c 0
EndSplineSet
EndChar

StartChar: egrave
Encoding: 232 232 101
Width: 789
VWidth: 2153
Flags: HW
HStem: 8 46G<157 185> 1196 42<546 571>
VStem: 54 268<180 458 526 864>
LayerCount: 2
Fore
SplineSet
584 1207 m 5
 552 1188 l 5
 446.289951166 1216.46039776 186.049842785 1314.9158903 154 1369 c 4
 125.614447906 1420.09399377 160.986478144 1483.15877892 195 1503 c 4
 229 1523 282 1497 356 1427 c 4
 474 1312 545 1247 570 1230 c 5
 584 1207 l 5
50 218 m 4
 50 370.187256397 53.3267904574 507.13050418 58 652 c 4
 60.3638214705 751.280501761 60.5096883579 806.104899913 120 856 c 4
 214.817295137 931.19992373 329.483160263 983.528095272 452 1030 c 4
 482 1041 509 1046 532 1046 c 4
 608.423609329 1046 648.605162571 1006.52644991 682 962 c 4
 719.733470106 918.461380647 752.647101626 866.137440381 736 794 c 4
 722.058497166 733.586821054 681.308297632 685.017354051 642 644 c 4
 565.026744372 560.949908402 456.683359184 483.341679592 356 433 c 4
 344 427 331 419 320 412 c 5
 318 316 l 5
 318 246.856737955 329.232717802 158.530907131 404 174 c 4
 428.09066999 178.517000623 510.118668658 229.792329848 526 202 c 4
 534 190 528 176 506 162 c 4
 425.44301155 110.915080495 332.367845852 61.240300208 246 16 c 4
 223.676675717 2.97806083514 209.070740721 0 178 0 c 4
 112.554130928 4.67470493371 58.279510204 52.0868571437 53 126 c 4
 51 154 50 185 50 218 c 4
320 518 m 5
 396.565282796 564.789895042 485.936122747 606.147559665 490 724 c 4
 494.14303533 806.860706598 423.273322206 889.212220368 332 874 c 5
 320 518 l 5
EndSplineSet
EndChar

StartChar: eacute
Encoding: 233 233 102
Width: 789
VWidth: 2154
Flags: HW
HStem: 9 46G<156 184> 1193 42<196 222>
VStem: 53 268<181 458 526 865>
LayerCount: 2
Fore
SplineSet
182 1202 m 5
 215 1184 l 5
 320.710048834 1212.46039776 580.950157215 1310.9158903 613 1365 c 4
 641.299360967 1415.93884974 604.645239132 1479.95694384 572 1499 c 4
 538 1519 484 1493 410 1423 c 4
 292 1308 221 1243 196 1226 c 5
 182 1202 l 5
50 217 m 4
 50 369.577320077 53.3163059636 506.805484873 58 652 c 4
 60.3638214705 751.280501761 60.5096883579 806.104899913 120 856 c 4
 215.396354338 931.659177578 328.639232351 983.207984685 452 1030 c 4
 482 1041 509 1046 532 1046 c 4
 608.423609329 1046 648.605162571 1006.52644991 682 962 c 4
 719.87076787 918.30296015 752.808256249 866.835777079 736 794 c 4
 722.058497166 733.586821054 681.308297632 685.017354051 642 644 c 4
 565.026744372 560.949908402 456.683359184 483.341679592 356 433 c 4
 344 427 331 419 320 412 c 5
 318 316 l 5
 318 246.856737955 329.232717802 158.530907131 404 174 c 4
 428.09066999 178.517000623 510.118668658 229.792329848 526 202 c 4
 534 190 528 176 506 162 c 4
 425.44301155 110.915080495 332.367845852 61.240300208 246 16 c 4
 223.676675717 2.97806083514 209.070740721 0 178 0 c 4
 112.554130928 4.67470493371 58.279510204 52.0868571437 53 126 c 4
 51 154 50 184 50 217 c 4
320 517 m 5
 405.271215732 569.110187392 535.744658363 645.212819929 475 791 c 4
 454.569738183 840.032628361 404.094675032 887.015779172 332 875 c 5
 320 517 l 5
EndSplineSet
EndChar

StartChar: ecircumflex
Encoding: 234 234 103
Width: 789
VWidth: 2155
Flags: HW
HStem: 10 46G<156 184>
VStem: 53 268<182 460 528 866>
LayerCount: 2
Fore
SplineSet
465 1478 m 6
 705 1232 l 5
 713 1208 l 5
 677 1195 l 5
 611.096909859 1227.95154507 539.856404752 1280.47141888 478 1324 c 4
 451 1343 441 1358 405 1358 c 28
 369 1358 357 1341 330 1322 c 4
 267.598885676 1278.08810473 198.096974764 1225.04848738 132 1192 c 5
 95 1205 l 5
 105 1229 l 5
 352 1478 l 5
 391 1511 430 1509 465 1478 c 6
50 218 m 4
 50 370.187256397 53.3267904574 507.13050418 58 652 c 4
 60.3638214705 751.280501761 60.5096883579 806.104899913 120 856 c 4
 215.396354338 931.659177578 328.639232351 983.207984685 452 1030 c 4
 482 1041 509 1046 532 1046 c 4
 608.423609329 1046 648.605162571 1006.52644991 682 962 c 4
 719.87076787 918.30296015 752.808256249 866.835777079 736 794 c 4
 722.058497166 733.586821054 681.308297632 685.017354051 642 644 c 4
 565.026744372 560.949908402 456.683359184 483.341679592 356 433 c 4
 344 427 331 419 320 412 c 5
 318 316 l 5
 318 246.856737955 329.232717802 158.530907131 404 174 c 4
 427.458967601 178.398556425 510.18181727 229.681819778 526 202 c 4
 534 190 528 176 506 162 c 4
 425.44301155 110.915080495 332.367845852 61.240300208 246 16 c 4
 223.676675717 2.97806083514 209.070740721 0 178 0 c 4
 111.951327697 4.71776230737 58.32536809 52.4448467402 53 127 c 4
 51 155 50 185 50 218 c 4
320 518 m 5
 396.987132931 565.047692347 485.906815794 606.29765804 490 725 c 4
 494.117050467 807.34100934 422.09620558 890.016034263 332 875 c 5
 320 518 l 5
EndSplineSet
EndChar

StartChar: edieresis
Encoding: 235 235 104
Width: 801
VWidth: 2136
Flags: HW
HStem: -10 46G<157 185> 1181 392<164 294 586 714>
VStem: 61 271<162 445 506 851 1221 1458> 481 271<1218 1456>
LayerCount: 2
Fore
SplineSet
751 1336 m 260
 751 1249.64441271 702.661090272 1189 622 1189 c 4
 546.812648417 1189 480 1245.82152071 480 1320 c 4
 480 1350 503 1400 549 1469 c 4
 600 1545 642 1581 676 1581 c 4
 720.591513101 1581 751 1388.10101102 751 1336 c 260
331 1339 m 260
 331 1253.52694895 282.551704559 1191 203 1191 c 4
 129.210304624 1191 60 1249.56258033 60 1322 c 4
 60 1352 84 1402 130 1471 c 4
 181 1547 222 1585 256 1585 c 4
 300.276159826 1585 331 1391.09004752 331 1339 c 260
50 216 m 4
 50 368.610243349 53.3140577508 505.735790275 58 651 c 4
 60.3638214705 750.280501761 60.5096883579 805.104899913 120 855 c 4
 216.137252165 931.246786199 327.303900892 980.701479649 452 1028 c 4
 482 1039 509 1046 532 1046 c 4
 606.363580115 1046 649.384085967 1005.48788538 682 962 c 4
 720.047737125 918.098764856 752.890803412 865.193481451 736 792 c 4
 722.489752898 733.455595893 680.511348039 682.185754475 642 642 c 4
 566.032050098 560.034580369 454.880998746 480.440499373 356 431 c 4
 344 425 331 418 320 411 c 5
 318 315 l 5
 318 245.713846631 328.66788639 158.41404546 404 174 c 4
 430.167441224 178.906395229 509.314532169 230.199568703 526 201 c 4
 549.339634163 165.990548756 404.000023397 99.7727405665 378 85 c 4
 334 60 288 37 246 15 c 4
 224.117769963 2.23536581164 208.081932634 0 178 0 c 4
 113.16084516 4.63136820283 58.2333558308 51.7330183692 53 125 c 4
 51 153 50 183 50 216 c 4
320 516 m 5
 405.218072754 568.077711128 535.515373397 643.763103847 475 789 c 4
 454.121933673 839.107359184 406.317809788 886.386301631 332 874 c 5
 320 516 l 5
EndSplineSet
EndChar

StartChar: igrave
Encoding: 236 236 105
Width: 671
VWidth: 2155
Flags: HW
HStem: 10 46G<261.936 276.936> 1191 42<449.936 475.936>
VStem: 144.936 268<177 885>
LayerCount: 2
Fore
SplineSet
489.936523438 1199 m 5
 455.936523438 1181 l 5
 350.533609289 1209.37770766 90.7632507799 1308.29239761 58.9365234375 1362 c 4
 30.9189327657 1412.43166321 67.4436580316 1477.04582851 99.9365234375 1496 c 4
 133.936523438 1516 187.936523438 1490 261.936523438 1420 c 4
 379.936523438 1305 450.936523438 1240 475.936523438 1223 c 5
 489.936523438 1199 l 5
408.936523438 315 m 4
 408.936523438 249.96328672 421.479825298 151.135825465 496.936523438 170 c 4
 521.412699308 175.244894829 601.592551612 227.351950694 618.936523438 197 c 4
 625.936523438 183 619.936523438 169 599.936523438 157 c 4
 517.299639597 104.596122442 430.178404424 58.6374213414 338.936523438 15 c 4
 318.643056 2.08597526736 301.153573729 0 271.936523438 0 c 4
 117.722670492 7.71069264726 141.912469888 192.06191156 145.936523438 349 c 4
 148.643344662 454.566027744 150.663282073 548.529517696 153.936523438 650 c 4
 153.936523438 768.718085801 144.320450138 819.578819283 74.9365234375 877 c 4
 35.2182790726 910.446942623 54.652333901 928.001123499 89.9365234375 954 c 4
 132.581537929 985.014555994 164.801348747 1014.50537772 206.936523438 1044 c 4
 295.450383906 1097.10831628 374.186207013 956.143761213 395.936523438 894 c 5
 438.480908827 796.147913604 419.649621469 646.245333085 415.936523438 520 c 4
 413.936523438 452 411.936523438 383 408.936523438 315 c 4
EndSplineSet
EndChar

StartChar: iacute
Encoding: 237 237 106
Width: 671
VWidth: 2160
Flags: HW
HStem: 14 46G<259 275> 1179 42<61 86>
VStem: 143 268<181 889>
LayerCount: 2
Fore
SplineSet
50 1184 m 5
 82 1165 l 5
 185.805988906 1192.94776624 447.587671492 1292.99169564 479 1346 c 4
 507.459968024 1397.22794244 473.038255604 1461.1443509 439 1481 c 4
 405 1501 351 1474 277 1404 c 4
 159 1289 88 1225 63 1208 c 5
 50 1184 l 5
409 315 m 4
 409 249.235511218 419.651983815 149.662995954 497 169 c 4
 518.679146719 173.64553144 602.214869413 226.373978526 619 197 c 4
 626 183 619 169 599 157 c 4
 515.957164084 104.338689419 429.612796041 59.2930763676 337 15 c 4
 317.740637401 2.7440419827 298.014703253 0 271 0 c 4
 117.516220871 7.67418895646 141.999742195 191.989945624 146 348 c 4
 147.864481409 420.71477496 147.780486077 487.195068373 150 556 c 4
 151 587 152 618 153 649 c 4
 153 766.845250704 143.957269807 819.931914643 75 877 c 4
 35.6969128413 910.097336555 54.0400438171 927.240032286 89 953 c 4
 131.777168194 984.110667778 164.43818843 1013.2067319 207 1043 c 4
 330.96582933 1117.3794976 428.660494692 859.191377917 423 729 c 4
 417.055531861 588.314254037 415.143592228 454.254757165 409 315 c 4
EndSplineSet
EndChar

StartChar: icircumflex
Encoding: 238 238 107
Width: 784
VWidth: 2154
Flags: HW
HStem: 9 46G<374 390>
VStem: 258 268<176 884>
LayerCount: 2
Fore
SplineSet
419 1483 m 6
 659 1239 l 5
 667 1213 l 5
 631 1201 l 5
 565.094806474 1233.95259676 494.524570991 1286.70493152 433 1330 c 4
 406 1349 395 1363 359 1363 c 28
 323 1363 312 1348 285 1329 c 4
 221.911451802 1284.60435497 153.028079747 1231.51403987 86 1198 c 5
 50 1210 l 5
 59 1236 l 5
 306 1483 l 5
 345 1516 384 1514 419 1483 c 6
522 315 m 4
 522 248.82135846 532.147185147 149.536796287 610 169 c 4
 634.221361323 174.190291712 714.28880397 227.994593053 732 197 c 4
 739 183 732 169 712 157 c 4
 629.091694904 104.424001647 542.027218757 59.0130176663 450 15 c 4
 429.833354439 2.16668009748 413.234507735 0 384 0 c 4
 230.842784805 7.65786075977 255.007451518 192.290609203 259 348 c 4
 260.864481409 420.71477496 260.780486077 487.195068373 263 556 c 4
 264 587 265 618 266 649 c 4
 266 766.715011681 255.851904268 820.019113709 187 877 c 4
 148.214423218 909.661538343 167.792824012 928.79471243 202 954 c 4
 244.815199904 985.138327203 277.562842145 1014.2939895 320 1044 c 4
 407.354371445 1096.41262287 486.452429835 955.564486185 508 894 c 5
 549.734640467 798.010326925 532.711416342 646.188155621 529 520 c 4
 527 452 525 383 522 315 c 4
EndSplineSet
EndChar

StartChar: idieresis
Encoding: 239 239 108
Width: 805
VWidth: 2135
Flags: HW
HStem: -10 46G<395 411> 1184 392<151 282 573 701>
VStem: 49 271<1222 1460> 279 268<156 864> 468 271<1220 1457>
LayerCount: 2
Fore
SplineSet
612 1190 m 4
 538.027294933 1190 469 1247.18600665 469 1321 c 4xc8
 469 1351 492 1401 538 1470 c 4
 589 1546 630 1584 664 1584 c 4
 709.1744536 1584 740 1391.0177351 740 1338 c 260
 740 1251.4501193 692.519331112 1190 612 1190 c 4
321 1340 m 260
 321 1253.32535436 273.199883458 1194 192 1194 c 4
 115.174279064 1194 50 1248.23781208 50 1324 c 4xe0
 50 1354 72 1404 118 1473 c 4
 169 1549 211 1586 245 1586 c 4
 290.1744536 1586 321 1393.0177351 321 1340 c 260
543 314 m 4
 543 248.806408063 554.818396873 148.954599218 631 168 c 4
 655.16763113 173.178778099 735.638750008 226.382187486 753 196 c 4
 760 182 754 168 734 156 c 4
 650.985875253 103.356896502 564.253902834 58.1214317903 472 14 c 4
 452.295261348 1.4606208577 434.217372758 0 406 0 c 4
 250.63095009 7.76845249552 277.042010739 192.638418808 281 347 c 4
 282.864481409 419.71477496 282.780486077 486.195068373 285 555 c 4
 286 586 287 617 288 648 c 4
 288 767.014396748 278.573032524 818.422317911 209 876 c 4
 169.963374818 908.872947521 189.951257521 926.91145291 224 952 c 4
 266.777168194 983.110667778 299.43818843 1012.2067319 342 1042 c 4
 466.035242344 1116.42114541 563.685508941 858.766705641 558 728 c 4
 552.034791321 586.8233946 549.122665276 452.780412926 543 314 c 4
EndSplineSet
EndChar

StartChar: eth
Encoding: 240 240 109
Width: 1037
VWidth: 2163
Flags: HW
HStem: 17 180<245 459> 912 152<367 513> 1138 46G<347 360>
VStem: 53 264<218 838> 546 259<301 843>
LayerCount: 2
Fore
SplineSet
314 368 m 4
 314 262.913783142 354.630854643 186.335571585 456 180 c 4
 505.90802568 180 531.998016409 227.954377401 534 274 c 4
 541.855251504 407.539275563 548.161641875 548.33611749 542 688 c 4
 536.184728329 798.490161744 511.261294881 878.794074305 412 895 c 4
 312.472892407 907.440888449 314 746.396669978 314 655 c 4
 313 559 313 464 314 368 c 4
464 1169 m 4
 441.921260419 1169 357 1133.36133074 357 1121 c 5
 344 1150 l 5
 490 1230 l 6
 498 1234 493 1246 485 1254 c 6
 456 1283 l 6
 429.711715917 1309.28828408 416.34681961 1341.76011471 450 1367 c 4
 491.459060628 1400.1672485 528.376919384 1427.27412319 572 1459 c 4
 625.934399875 1497.52457134 664.067241188 1458.93275881 694 1429 c 4
 750.010762183 1372.98923782 775.555282681 1320.89013631 795 1232 c 4
 806.249628532 1172.9394502 852.897187187 1179.4742968 911 1194 c 5
 912 1194 l 5
 974 1225 l 5
 987 1197 l 5
 814 1102 l 6
 806 1097 798 1092 800 1054 c 6
 800 801 l 5
 812.857448508 556.708478356 807.185150712 315.809234266 664 212 c 4
 563.506958268 136.630218701 468.898108966 63.9617908623 341 16 c 4
 257.283103622 -15.3938361417 165.431770935 3.06064805806 116 47 c 4
 45.9350895533 117.064910447 50 288.642133623 50 426 c 4
 50 533.425392683 57.1957689069 655.174613441 73 750 c 4
 78 780 94 805 124 827 c 4
 233.095372167 903.770817451 346.984295894 964.35850267 462 1037 c 4
 478 1047 487 1052 504 1048 c 4
 522 1044 552 1024 550 996 c 5
 536 1071 l 6
 529 1110 529 1171 464 1169 c 4
EndSplineSet
EndChar

StartChar: ograve
Encoding: 242 242 110
Width: 852
VWidth: 2155
Flags: HW
HStem: 905 168<388 562> 1193 42<612 636>
VStem: 50 264<211 832> 543 259<294 836>
LayerCount: 2
Fore
SplineSet
650 1202 m 5
 618 1184 l 5
 512.150207876 1212.49802096 253.15223742 1310.74309935 221 1365 c 4
 192.643977439 1416.04084061 225.714003801 1478.41650222 261 1499 c 4
 295 1519 348 1493 422 1423 c 4
 540 1308 611 1243 636 1226 c 5
 650 1202 l 5
562 1064 m 4
 709.541135439 1064 800 944.823641763 800 802 c 5
 812.851398489 557.823428715 807.174035076 315.80117543 664 212 c 4
 563.061610202 136.296207651 468.97481855 64.9905569564 341 17 c 4
 257.619138422 -14.2678230917 165.353432111 4.13028256835 116 48 c 4
 45.8014928733 118.198507127 50 290.366013856 50 428 c 4
 50 534.868652157 57.2895443199 655.737265919 73 750 c 4
 78 780 94 806 124 828 c 4
 232.758908445 904.534046684 343.02076815 971.45229405 462 1038 c 4
 489.987885816 1055.49242863 519.348130763 1064 562 1064 c 4
314 370 m 4
 314 265.359971163 355.697249128 186.26892193 456 180 c 4
 506.842547499 180 531.960026976 229.080620451 534 276 c 4
 541.814745657 408.850676163 548.136989318 548.894908795 542 688 c 4
 536.161292238 798.935447469 511.636144352 879.732874392 412 896 c 4
 311.841083597 908.51986455 314 747.642181412 314 656 c 4
 313 560 313 466 314 370 c 4
EndSplineSet
EndChar

StartChar: oacute
Encoding: 243 243 111
Width: 852
VWidth: 2155
Flags: HW
HStem: 905 168<388 562> 1193 42<227 252>
VStem: 50 264<211 832> 543 259<294 836>
LayerCount: 2
Fore
SplineSet
213 1202 m 5
 246 1184 l 5
 351.26474367 1212.34050791 612.275250429 1311.4644851 644 1365 c 4
 672.017590672 1415.43166321 635.492865406 1480.04582851 603 1499 c 4
 569 1519 515 1493 441 1423 c 4
 323 1308 252 1243 227 1226 c 5
 213 1202 l 5
562 1064 m 4
 709.541135439 1064 800 944.823641763 800 802 c 5
 812.851398489 557.823428715 807.174035076 315.80117543 664 212 c 4
 563.061610202 136.296207651 468.97481855 64.9905569564 341 17 c 4
 257.619138422 -14.2678230917 165.353432111 4.13028256835 116 48 c 4
 45.8014928733 118.198507127 50 290.366013856 50 428 c 4
 50 534.868652157 57.2895443199 655.737265919 73 750 c 4
 78 780 94 806 124 828 c 4
 232.758908445 904.534046684 343.02076815 971.45229405 462 1038 c 4
 489.987885816 1055.49242863 519.348130763 1064 562 1064 c 4
314 370 m 4
 314 265.359971163 355.697249128 186.26892193 456 180 c 4
 506.842547499 180 531.960026976 229.080620451 534 276 c 4
 541.814745657 408.850676163 548.136989318 548.894908795 542 688 c 4
 536.161292238 798.935447469 511.636144352 879.732874392 412 896 c 4
 311.841083597 908.51986455 314 747.642181412 314 656 c 4
 313 560 313 466 314 370 c 4
EndSplineSet
EndChar

StartChar: ocircumflex
Encoding: 244 244 112
Width: 852
VWidth: 2155
Flags: HW
HStem: 906 168<388 562>
VStem: 50 264<212 833> 543 259<295 837>
LayerCount: 2
Fore
SplineSet
520 1478 m 6
 760 1232 l 5
 769 1208 l 5
 733 1195 l 5
 667.478846766 1227.76057662 594.789626046 1280.5184113 533 1324 c 4
 506 1343 496 1358 460 1358 c 28
 424 1358 413 1341 386 1322 c 4
 322.670265675 1277.4346314 253.268511239 1225.63425562 186 1192 c 5
 151 1205 l 5
 160 1229 l 5
 408 1478 l 5
 447 1511 485 1509 520 1478 c 6
664 212 m 4
 564.54764364 137.41073273 467.709701558 64.5161380841 341 17 c 4
 257.619138422 -14.2678230917 165.353432111 4.13028256835 116 48 c 4
 45.8014928733 118.198507127 50 290.366013856 50 428 c 4
 50 534.868652157 57.2895443199 655.737265919 73 750 c 4
 78 780 94 806 124 828 c 4
 232.758908445 904.534046684 343.02076815 971.45229405 462 1038 c 4
 489.987885816 1055.49242863 519.348130763 1064 562 1064 c 4
 709.586428622 1064 800 944.586052662 800 802 c 5
 812.851398489 557.823428715 807.174035076 315.80117543 664 212 c 4
314 370 m 4
 314 265.359971163 355.697249128 186.26892193 456 180 c 4
 506.842547499 180 531.960026976 229.080620451 534 276 c 4
 541.814745657 408.850676163 548.136989318 548.894908795 542 688 c 4
 536.161292238 798.935447469 511.636144352 879.732874392 412 896 c 4
 311.841083597 908.51986455 314 747.642181412 314 656 c 4
 313 560 313 466 314 370 c 4
EndSplineSet
EndChar

StartChar: otilde
Encoding: 245 245 113
Width: 852
VWidth: 2185
Flags: HW
HStem: 936 168<388 562> 1228 110<450 621> 1325 97<194 364>
VStem: 50 264<242 862> 543 259<325 867>
LayerCount: 2
Fore
SplineSet
595 1297 m 4
 619.353174903 1297 657.366393586 1299.91092906 674 1311 c 5
 675 1311 l 5
 737 1341 l 5
 750 1313 l 5xd8
 576 1218 l 6
 544.156098739 1200.63059931 503.035121268 1188 456 1188 c 4xd8
 356.991850273 1188 319.230643586 1285 227 1285 c 4
 198.443022652 1285 173.21962532 1269.63726583 153 1257 c 4
 131 1246 120 1240 120 1238 c 6
 107 1266 l 5
 253 1345 l 6
 280.851832029 1360.31850762 323.294291077 1382 364 1382 c 4xb8
 391.626958779 1382 407.244778486 1375.53844936 435 1361 c 5
 461.615959089 1344.61595909 488.958395605 1328.9583956 517 1314 c 5
 540 1303 566 1297 595 1297 c 4
664 212 m 4
 564.337559411 137.253169559 468.212585607 64.7047196027 341 17 c 4
 257.619138422 -14.2678230917 165.353432111 4.13028256835 116 48 c 4
 45.9350895533 118.064910447 50 289.642133623 50 427 c 4
 50 534.101618774 57.2637895324 655.582737194 73 750 c 4
 78 780 94 806 124 828 c 4
 232.629187375 904.442761486 343.470210531 971.703677076 462 1038 c 4
 489.150761051 1054.96922566 521.528137153 1064 562 1064 c 4
 708.913009528 1064 800 944.086122877 800 802 c 5
 812.855203162 557.751139926 807.147433601 315.781889361 664 212 c 4
314 369 m 4
 314 264.327105299 355.486739048 186.282078809 456 180 c 4
 506.377687706 180 531.978913224 228.515004147 534 275 c 4
 541.835026738 408.195454543 548.149332348 548.615133447 542 688 c 4
 536.161292238 798.935447469 511.636144352 879.732874392 412 896 c 4
 312.472892407 908.440888449 314 747.396669978 314 656 c 4
 313 560 313 465 314 369 c 4
EndSplineSet
EndChar

StartChar: odieresis
Encoding: 246 246 114
Width: 852
VWidth: 2136
Flags: HW
HStem: 886 168<385 559> 1182 392<196 326 618 746>
VStem: 47 264<191 811> 93 271<1221 1458> 513 271<252 616 1219 1456> 540 259<274 816>
LayerCount: 2
Fore
SplineSet
658 1189 m 4
 584.316684269 1189 516 1246.60535938 516 1320 c 4xc8
 516 1350 539 1400 585 1469 c 4
 636 1545 678 1582 712 1582 c 4
 758.612983193 1582 786 1391.3852783 786 1337 c 260
 786 1249.69093737 739.525314624 1189 658 1189 c 4
367 1339 m 260
 367 1253.21152664 319.086387612 1192 239 1192 c 4
 164.142005717 1192 96 1248.87962458 96 1322 c 4xd0
 96 1352 119 1403 165 1472 c 4
 216 1548 258 1585 292 1585 c 4
 337.736745254 1585 367 1392.69666061 367 1339 c 260
664 212 m 4
 564.306300355 137.229725266 468.397071153 63.7739016822 341 16 c 4
 257.283103622 -15.3938361417 165.431770935 3.06064805806 116 47 c 4
 45.9350895533 117.064910447 50 288.642133623 50 426 c 4
 50 533.425392683 57.1957689069 655.174613441 73 750 c 4
 78 780 94 805 124 827 c 4
 232.629187375 903.442761486 343.470210531 970.703677076 462 1037 c 4
 489.538864806 1054.2117905 520.391969691 1062 562 1062 c 4
 710.25186785 1062 800 944.157724374 800 801 c 5
 812.857448508 556.708478356 807.185150712 315.809234266 664 212 c 4
314 368 m 4
 314 263.296571927 355.277666154 186.295145865 456 180 c 4
 505.90802568 180 531.998016409 227.954377401 534 274 c 4
 541.855251504 407.539275563 548.161641875 548.33611749 542 688 c 4
 536.200252381 798.195204769 510.926885215 879.848671802 412 896 c 4
 313.470323526 908.316209559 314 746.832512736 314 656 c 4
 313 560 313 464 314 368 c 4
EndSplineSet
EndChar

StartChar: oslash
Encoding: 248 248 115
Width: 852
VWidth: 2271
Flags: HW
HStem: 126 180<346 455> 1021 168<393 567>
VStem: 55 264<499 948> 548 259<410 925>
LayerCount: 2
Fore
SplineSet
313.466178326 435.417540811 m 1
 365.629115663 583.739322952 417.656706062 735.76035719 466.981287823 875.94681787 c 1
 438.551659426 893.007700667 384.732810108 907.18827846 358 876 c 0
 317.920585363 825.465085893 314 739.099998416 314 655 c 0
 313.231561105 581.229866118 313.053620546 508.640728905 313.466178326 435.417540811 c 1
634.190435481 1049.74208631 m 1
 734.256510229 1015.76356345 800 926.864562731 800 801 c 1
 812.853641572 556.780810136 807.211946915 315.828661513 664 212 c 0
 563.41469263 136.561019472 468.808251582 63.9280943431 341 16 c 0
 316.859091904 6.94715946393 291.579934894 1.87819012509 266.450577214 0.363742483138 c 1
 247.328166015 -56.1696575345 219.324109903 -96.8628765794 167 -119 c 0
 100.464760209 -152.267619896 156.094196991 -18.1060806133 167.86112695 15.0945725113 c 1
 41.4504608093 61.2272931339 50 256.198564797 50 426 c 0
 50 533.425392683 57.1957689069 655.174613441 73 750 c 0
 78 780 94 805 124 827 c 0
 232.629187375 903.442761486 343.470210531 970.703677076 462 1037 c 0
 485.880794214 1051.92549638 504.586983024 1058.55641486 537.464824171 1061.77204546 c 1
 558.793284918 1106.87804363 575.812040412 1135.68521751 625 1157 c 0
 654.82204633 1169.27966614 672.753379194 1166.41081342 662 1132 c 0
 655.580246415 1111.82363159 645.796147027 1084.91857157 634.190435481 1049.74208631 c 1
533.523010238 759.201975094 m 1
 472.419703976 586.488864935 410.445759651 402.093655674 349.900863727 231.706040463 c 1
 371.961206246 200.415267251 407.176643811 183.051459762 456 180 c 0
 505.90802568 180 531.998016409 227.954377401 534 274 c 0
 541.855251504 407.539275563 548.161641875 548.33611749 542 688 c 0
 540.641247095 713.8163052 537.8465535 737.581266558 533.523010238 759.201975094 c 1
EndSplineSet
EndChar

StartChar: ugrave
Encoding: 249 249 116
Width: 1192
VWidth: 2154
Flags: HW
HStem: 9 170<439.077 581.077> 1193 42<612.077 636.077>
VStem: 153.077 266<192 820> 663.077 266<212 864>
LayerCount: 2
Fore
SplineSet
650.077148438 1202 m 5
 618.077148438 1184 l 5
 512.227356313 1212.49802096 253.229385857 1310.74309935 221.077148438 1365 c 4
 192.721125877 1416.04084061 225.791152239 1478.41650222 261.077148438 1499 c 4
 295.077148438 1519 348.077148438 1493 422.077148438 1423 c 4
 540.077148438 1308 611.077148438 1243 636.077148438 1226 c 5
 650.077148438 1202 l 5
366.077148438 0 m 4
 226.98363764 0 153.077148438 86.4338415141 153.077148438 220 c 6
 153.077148438 678 l 6
 153.077148438 786.939495639 126.228086001 822.727767803 71.0771484375 870 c 4
 25.7791735972 906.238379872 65.6320574583 936.362028649 96.0771484375 962 c 4
 130.716701907 987.979665102 151.746903556 1011.22985823 191.077148438 1034 c 4
 247.593539337 1071.67759393 268.388207292 1058.68894115 315.077148438 1012 c 4
 380.968001608 946.109146829 421.077148438 859.778491246 421.077148438 734 c 4
 420.077148438 664 419.077148438 594 419.077148438 526 c 6
 419.077148438 320 l 6
 419.077148438 234.944362294 465.390795679 164.269602953 557.077148438 170 c 4
 602.07767648 171.956544697 630.120435696 177.641232722 663.077148438 190 c 5
 663.077148438 353.333333333 663.077148437 516.666666667 663.077148438 680 c 4
 663.077148438 787.235826745 625.255949602 830.843548981 569.077148438 880 c 5
 517.884005156 931.193143281 651.683150037 1005.86142971 691.077148438 1034 c 4
 751.028476014 1077.81058554 772.07750201 1062.99964643 823.077148438 1012 c 4
 874.706031993 957.040220731 925.077148438 891.535719619 925.077148438 790 c 4
 927.039778104 636.914886008 929.077148438 475.155787704 929.077148438 320 c 4
 929.077148438 251.936236114 944.608225061 159.456848724 1019.07714844 180 c 4
 1050.99178267 186.838850194 1071.76175496 199.174515354 1101.07714844 212 c 4
 1115.60544692 218.226413636 1129.60040131 226.584307475 1139.07714844 210 c 4
 1147.07714844 198 1143.07714844 184 1123.07714844 170 c 4
 1042.04105784 116.634769606 951.552926524 65.3557832376 865.077148438 18 c 4
 843.077148438 7 822.077148438 0 799.077148438 0 c 4
 749.844793928 3.51659675069 692.365611682 35.6089681051 678.077148438 88 c 4
 675.077148438 99 672.077148438 113 669.077148438 125 c 5
 610.193009443 84.5171544412 536.745586085 40.7640121443 463.077148438 17 c 4
 432.077148438 7 399.077148438 0 366.077148438 0 c 4
EndSplineSet
EndChar

StartChar: uacute
Encoding: 250 250 117
Width: 1192
VWidth: 2154
Flags: HW
HStem: 9 170<439.077 581.077> 1193 42<227.077 252.077>
VStem: 153.077 266<192 820> 663.077 266<212 864>
LayerCount: 2
Fore
SplineSet
213.077148438 1202 m 5
 246.077148438 1184 l 5
 351.341892107 1212.34050791 612.352398866 1311.4644851 644.077148438 1365 c 4
 672.094739109 1415.43166321 635.570013843 1480.04582851 603.077148438 1499 c 4
 569.077148438 1519 515.077148438 1493 441.077148438 1423 c 4
 323.077148438 1308 252.077148438 1243 227.077148438 1226 c 5
 213.077148438 1202 l 5
366.077148438 0 m 4
 226.98363764 0 153.077148438 86.4338415141 153.077148438 220 c 6
 153.077148438 678 l 6
 153.077148438 786.939495639 126.228086001 822.727767803 71.0771484375 870 c 4
 25.7791735972 906.238379872 65.6320574583 936.362028649 96.0771484375 962 c 4
 130.716701907 987.979665102 151.746903556 1011.22985823 191.077148438 1034 c 4
 247.593539337 1071.67759393 268.388207292 1058.68894115 315.077148438 1012 c 4
 380.968001608 946.109146829 421.077148438 859.778491246 421.077148438 734 c 4
 420.077148438 664 419.077148438 594 419.077148438 526 c 6
 419.077148438 320 l 6
 419.077148438 234.944362294 465.390795679 164.269602953 557.077148438 170 c 4
 602.07767648 171.956544697 630.120435696 177.641232722 663.077148438 190 c 5
 663.077148438 353.333333333 663.077148437 516.666666667 663.077148438 680 c 4
 663.077148438 787.235826745 625.255949602 830.843548981 569.077148438 880 c 5
 517.884005156 931.193143281 651.683150037 1005.86142971 691.077148438 1034 c 4
 751.028476014 1077.81058554 772.07750201 1062.99964643 823.077148438 1012 c 4
 874.706031993 957.040220731 925.077148438 891.535719619 925.077148438 790 c 4
 927.039778104 636.914886008 929.077148438 475.155787704 929.077148438 320 c 4
 929.077148438 251.936236114 944.608225061 159.456848724 1019.07714844 180 c 4
 1050.99178267 186.838850194 1071.76175496 199.174515354 1101.07714844 212 c 4
 1115.60544692 218.226413636 1129.60040131 226.584307475 1139.07714844 210 c 4
 1147.07714844 198 1143.07714844 184 1123.07714844 170 c 4
 1042.04105784 116.634769606 951.552926524 65.3557832376 865.077148438 18 c 4
 843.077148438 7 822.077148438 0 799.077148438 0 c 4
 749.844793928 3.51659675069 692.365611682 35.6089681051 678.077148438 88 c 4
 675.077148438 99 672.077148438 113 669.077148438 125 c 5
 610.193009443 84.5171544412 536.745586085 40.7640121443 463.077148438 17 c 4
 432.077148438 7 399.077148438 0 366.077148438 0 c 4
EndSplineSet
EndChar

StartChar: ucircumflex
Encoding: 251 251 118
Width: 1192
VWidth: 2155
Flags: HW
HStem: 10 170<439.077 581.077>
VStem: 153.077 266<194 821> 663.077 266<213 865>
LayerCount: 2
Fore
SplineSet
549.077148438 1478 m 6
 789.077148438 1232 l 5
 798.077148438 1208 l 5
 762.077148438 1195 l 5
 695.605314126 1228.23591716 624.303103505 1280.21136495 562.077148438 1324 c 4
 535.077148438 1343 525.077148438 1358 489.077148438 1358 c 28
 453.077148438 1358 441.077148438 1341 414.077148438 1322 c 4
 350.970506698 1277.59162248 282.275232755 1225.59904216 215.077148438 1192 c 5
 179.077148438 1205 l 5
 189.077148438 1229 l 5
 436.077148438 1478 l 5
 475.077148438 1511 514.077148438 1509 549.077148438 1478 c 6
366.077148438 0 m 4
 226.98363764 0 153.077148438 86.4338415141 153.077148438 220 c 6
 153.077148438 678 l 6
 153.077148438 786.939495639 126.228086001 822.727767803 71.0771484375 870 c 4
 25.7791735972 906.238379872 65.6320574583 936.362028649 96.0771484375 962 c 4
 130.716701907 987.979665102 151.746903556 1011.22985823 191.077148438 1034 c 4
 247.593539337 1071.67759393 268.388207292 1058.68894115 315.077148438 1012 c 4
 380.968001608 946.109146829 421.077148438 859.778491246 421.077148438 734 c 4
 420.077148438 664 419.077148438 594 419.077148438 526 c 6
 419.077148438 320 l 6
 419.077148438 234.944362294 465.390795679 164.269602953 557.077148438 170 c 4
 602.07767648 171.956544697 630.120435696 177.641232722 663.077148438 190 c 5
 663.077148438 353.333333333 663.077148437 516.666666667 663.077148438 680 c 4
 663.077148438 787.235826745 625.255949602 830.843548981 569.077148438 880 c 5
 517.884005156 931.193143281 651.683150037 1005.86142971 691.077148438 1034 c 4
 751.028476014 1077.81058554 772.07750201 1062.99964643 823.077148438 1012 c 4
 874.706031993 957.040220731 925.077148438 891.535719619 925.077148438 790 c 4
 927.039778104 636.914886008 929.077148438 475.155787704 929.077148438 320 c 4
 929.077148438 251.936236114 944.608225061 159.456848724 1019.07714844 180 c 4
 1050.99178267 186.838850194 1071.76175496 199.174515354 1101.07714844 212 c 4
 1115.60544692 218.226413636 1129.60040131 226.584307475 1139.07714844 210 c 4
 1147.07714844 198 1143.07714844 184 1123.07714844 170 c 4
 1042.04105784 116.634769606 951.552926524 65.3557832376 865.077148438 18 c 4
 843.077148438 7 822.077148438 0 799.077148438 0 c 4
 749.844793928 3.51659675069 692.365611682 35.6089681051 678.077148438 88 c 4
 675.077148438 99 672.077148438 113 669.077148438 125 c 5
 610.193009443 84.5171544412 536.745586085 40.7640121443 463.077148438 17 c 4
 432.077148438 7 399.077148438 0 366.077148438 0 c 4
EndSplineSet
EndChar

StartChar: udieresis
Encoding: 252 252 119
Width: 1192
VWidth: 2136
Flags: HW
HStem: -9 170<439.077 581.077> 1180 392<208.077 339.077 630.077 757.077>
VStem: 106.077 271<1219 1457> 153.077 266<173 801> 525.077 271<1217 1454> 663.077 266<192 844>
LayerCount: 2
Fore
SplineSet
667.077148438 1186 m 4
 593.742752287 1186 525.077148438 1243.73908678 525.077148438 1317 c 4xc8
 525.077148438 1347 548.077148438 1397 594.077148438 1466 c 4
 645.077148438 1542 686.077148438 1579 720.077148438 1579 c 4
 765.568743114 1579 796.077148438 1387.03030588 796.077148438 1334 c 260
 796.077148438 1247.95966984 747.20362688 1186 667.077148438 1186 c 4
377.077148438 1336 m 260
 377.077148438 1249.08074841 328.308934478 1189 247.077148438 1189 c 4
 171.677551295 1189 106.077148438 1245.39863973 106.077148438 1320 c 4xe0
 106.077148438 1350 128.077148438 1400 174.077148438 1469 c 4
 225.077148438 1545 267.077148438 1581 301.077148438 1581 c 4
 346.568743114 1581 377.077148438 1389.03030588 377.077148438 1336 c 260
366.077148438 0 m 4
 226.976619393 0 153.077148438 84.5833286506 153.077148438 218 c 6
 153.077148438 676 l 6
 153.077148438 785.296540312 126.323722163 822.645793949 71.0771484375 870 c 4
 12.0067604537 917.256310387 107.584092431 971.684027424 141.077148438 998 c 4
 163.710986119 1015.78372961 218.432661002 1056.04028046 251.077148438 1054 c 4
 267.077148438 1053 288.077148438 1037 315.077148438 1010 c 4
 381.059651354 944.017497083 421.077148438 858.350137297 421.077148438 732 c 4
 420.077148438 662 419.077148438 592 419.077148438 524 c 6
 419.077148438 318 l 6
 419.077148438 277.767353725 441.370796024 225.75469442 459.077148438 200 c 4
 493.177089065 151.285799103 613.760690836 169.5063284 663.077148438 188 c 5
 663.077148438 351.333333333 663.077148437 514.666666667 663.077148438 678 c 4xd4
 663.077148438 786.764912814 625.883850827 828.294135409 569.077148438 878 c 5
 517.884005156 929.193143281 651.683150037 1003.86142971 691.077148438 1032 c 4
 751.028476014 1075.81058554 772.07750201 1060.99964643 823.077148438 1010 c 4
 874.960654642 954.769170815 925.077148438 891.140452561 925.077148438 788 c 4
 927.039778104 634.914886008 929.077148438 473.155787704 929.077148438 318 c 4
 929.077148438 249.705555549 943.39885185 159.123228528 1019.07714844 180 c 4
 1042.7310274 185.068688349 1123.32643086 237.563755768 1139.07714844 210 c 4
 1147.07714844 198 1143.07714844 182 1123.07714844 168 c 4
 1042.14966815 114.70629347 950.704446024 62.8911391545 865.077148438 16 c 4
 843.077148438 5 822.077148438 0 799.077148438 0 c 4
 749.620109425 3.53264564374 692.420756091 34.4067719366 678.077148438 87 c 4
 675.077148438 98 672.077148438 112 669.077148438 124 c 5
 589.425494747 69.2394880879 492.580119092 0 366.077148438 0 c 4
EndSplineSet
EndChar

StartChar: yacute
Encoding: 253 253 120
Width: 912
VWidth: 4508
Flags: HW
HStem: -310 167<356 560> 120 46G<328 433> 1147 42G<191 268 651 716> 1299 42<227 252>
VStem: 148 249<300 1034> 186 142<-116 16> 611 251<-79 282 382 1034>
LayerCount: 2
Fore
SplineSet
213 1198 m 1xf2
 246 1179 l 1
 349.746733797 1206.93181295 612.905045631 1307.5272645 644 1360 c 0
 672.212386254 1410.78229526 635.623165552 1475.96982009 603 1495 c 0
 569 1515 515 1488 441 1418 c 0
 323 1303 252 1239 227 1222 c 1
 213 1198 l 1xf2
611 776 m 2
 611 842.401685117 564.846618321 911.670759542 510 933 c 1
 715 1071 l 1
 716 1070 l 1
 718 1070 l 1
 720 1068 l 1
 727 1065 l 1
 791.434734845 1026.33915909 862 972.045920324 862 875 c 2
 862 98 l 1
 860.420220113 -113.690504876 782.210631118 -269.499923414 657 -361 c 0
 598 -408 533 -430 463 -430 c 0
 362.739102931 -430 297.505138022 -396.005440258 238 -333 c 0
 204 -297 186 -260 186 -223 c 0
 186 -148.454663048 246.655984276 -90.4355921576 317 -89 c 0
 335.810737201 -89 369.845703856 -91.1342778919 383 -101 c 1
 384 -101 l 1
 350 -120 332 -144 328 -172 c 1
 328 -180 l 2xf6
 328 -229.749821699 380.962555862 -264 431 -264 c 2
 438 -264 l 1
 531.850063395 -258.786107589 611 -157.495136537 611 -66 c 2
 611 162 l 5
 528.513671875 111.294921875 468.532226562 -3.701171875 367 0 c 5
 245.950176685 42.3674381603 148 121.558120754 148 269 c 2
 148 798 l 2
 148 863.124983617 95.6769005968 911.504987954 50 933 c 1
 254 1071 l 1
 340.737619997 1021.43564572 389.330507811 934.033906271 400 806 c 1
 399 267 l 2xfa
 399 232 425 200 478 172 c 1
 611 262 l 1
 611 776 l 2
EndSplineSet
EndChar

StartChar: ydieresis
Encoding: 255 255 121
Width: 912
VWidth: 4488
Flags: HW
HStem: -330 167<360 564> 100 46G<332 437> 1128 42G<195 272 655 720> 1287 392<212 343 634 761>
VStem: 110 271<1325 1563> 152 249<280 1014> 190 142<-135 -4> 529 271<1323 1560> 615 251<-98 263 362 1014>
LayerCount: 2
Fore
SplineSet
667 1184 m 0
 592.938769516 1184 525 1240.59694195 525 1314 c 0xf1
 525 1344 548 1394 594 1463 c 0
 645 1539 686 1577 720 1577 c 0
 764.942645681 1577 796 1384.84815049 796 1332 c 256
 796 1245.19603149 748.137358357 1184 667 1184 c 0
247 1187 m 0
 172.346125668 1187 106 1242.32367208 106 1317 c 0xf8
 106 1347 128 1397 174 1466 c 0
 225 1542 267 1579 301 1579 c 0
 345.942645681 1579 377 1386.84815049 377 1334 c 256
 377 1246.31028078 329.250377228 1187 247 1187 c 0
611 776 m 2xf480
 611 842.776320438 565.132351574 912.559641055 510 934 c 1
 715 1071 l 1
 716 1070 l 1
 718 1070 l 1
 787.952700213 1035.02364989 862 974.667834484 862 876 c 2
 862 99 l 1
 860.744592832 -69.2245605004 812.719828613 -198.089079318 730 -290 c 1
 669.465743959 -363.69387692 574.234267736 -430 463 -430 c 0
 362.739102931 -430 297.505138022 -396.005440258 238 -333 c 0
 204 -297 186 -259 186 -222 c 0
 186 -148.304598324 247.545219941 -89.417444491 317 -88 c 0
 338.275782753 -88 366.413059816 -91.7065299078 383 -100 c 1
 384 -100 l 1
 350 -119 332 -142 328 -170 c 1
 328 -180 l 2xf280
 328 -229.154581209 381.587076144 -263 431 -263 c 2
 438 -263 l 1
 531.410376859 -257.810534619 611 -157.086190086 611 -66 c 2
 611 163 l 5
 529.1484375 112.08984375 458.2734375 -11.2978515625 367 0 c 5
 246.90325019 42.0338624334 148 123.955392579 148 270 c 2
 148 798 l 2
 148 862.617970228 95.2799811123 912.691773594 50 934 c 1
 254 1071 l 1
 340.33834359 1021.66380366 389.38477826 934.382660876 400 807 c 1
 399 267 l 2
 399 232 425 200 478 172 c 1
 611 262 l 1
 611 776 l 2xf480
EndSplineSet
EndChar

